G75*
%MOIN*%
%OFA0B0*%
%FSLAX25Y25*%
%IPPOS*%
%LPD*%
%AMOC8*
5,1,8,0,0,1.08239X$1,22.5*
%
%ADD10C,0.00000*%
%ADD11OC8,0.05600*%
%ADD12C,0.06700*%
%ADD13OC8,0.06700*%
%ADD14C,0.07800*%
%ADD15C,0.05550*%
%ADD16C,0.11620*%
%ADD17OC8,0.06337*%
%ADD18C,0.05600*%
%ADD19OC8,0.05550*%
D10*
X0001800Y0003050D02*
X0001800Y0199900D01*
X0198650Y0199900D01*
X0198650Y0003050D01*
X0001800Y0003050D01*
D11*
X0038050Y0018050D03*
X0050550Y0013050D03*
X0071800Y0028050D03*
X0071800Y0038050D03*
X0050550Y0053050D03*
X0038050Y0058050D03*
X0023050Y0056800D03*
X0013050Y0056800D03*
X0083050Y0010550D03*
X0123050Y0010550D03*
X0174300Y0013050D03*
X0184300Y0013050D03*
X0129300Y0148050D03*
X0129300Y0158050D03*
X0139300Y0165550D03*
X0143050Y0185550D03*
X0143050Y0195550D03*
X0179300Y0165550D03*
X0100550Y0185550D03*
X0095550Y0193050D03*
X0090550Y0185550D03*
X0054300Y0178050D03*
X0054300Y0168050D03*
D12*
X0120550Y0184300D03*
X0130550Y0078050D03*
D13*
X0140550Y0078050D03*
X0120550Y0194300D03*
D14*
X0194300Y0190550D03*
X0194300Y0180550D03*
X0194300Y0170550D03*
X0194300Y0160550D03*
X0194300Y0150550D03*
X0194300Y0138050D03*
X0194300Y0128050D03*
X0194300Y0118050D03*
X0194300Y0108050D03*
X0194300Y0098050D03*
X0194300Y0088050D03*
X0194300Y0078050D03*
X0194300Y0068050D03*
X0006800Y0068050D03*
X0006800Y0078050D03*
X0006800Y0088050D03*
X0006800Y0098050D03*
X0006800Y0108050D03*
X0006800Y0118050D03*
X0006800Y0128050D03*
X0006800Y0138050D03*
D15*
X0038129Y0173001D03*
X0033404Y0176150D03*
X0038129Y0179300D03*
X0033404Y0182450D03*
X0038129Y0185599D03*
D16*
X0018050Y0193670D03*
X0018050Y0164930D03*
D17*
X0046052Y0191800D03*
X0077548Y0191800D03*
X0159457Y0186800D03*
X0179143Y0186800D03*
X0019300Y0027893D03*
X0019300Y0008207D03*
D18*
X0081700Y0028050D02*
X0086900Y0028050D01*
X0086900Y0038050D02*
X0081700Y0038050D01*
X0081700Y0048050D02*
X0086900Y0048050D01*
X0086900Y0058050D02*
X0081700Y0058050D01*
X0081700Y0068050D02*
X0086900Y0068050D01*
X0086900Y0078050D02*
X0081700Y0078050D01*
X0081700Y0088050D02*
X0086900Y0088050D01*
X0086900Y0098050D02*
X0081700Y0098050D01*
X0081700Y0108050D02*
X0086900Y0108050D01*
X0086900Y0118050D02*
X0081700Y0118050D01*
X0081700Y0128050D02*
X0086900Y0128050D01*
X0086900Y0138050D02*
X0081700Y0138050D01*
X0081700Y0148050D02*
X0086900Y0148050D01*
X0086900Y0158050D02*
X0081700Y0158050D01*
X0111700Y0158050D02*
X0116900Y0158050D01*
X0116900Y0148050D02*
X0111700Y0148050D01*
X0111700Y0138050D02*
X0116900Y0138050D01*
X0116900Y0128050D02*
X0111700Y0128050D01*
X0111700Y0118050D02*
X0116900Y0118050D01*
X0116900Y0108050D02*
X0111700Y0108050D01*
X0111700Y0098050D02*
X0116900Y0098050D01*
X0116900Y0088050D02*
X0111700Y0088050D01*
X0111700Y0078050D02*
X0116900Y0078050D01*
X0116900Y0068050D02*
X0111700Y0068050D01*
X0111700Y0058050D02*
X0116900Y0058050D01*
X0116900Y0048050D02*
X0111700Y0048050D01*
X0111700Y0038050D02*
X0116900Y0038050D01*
X0116900Y0028050D02*
X0111700Y0028050D01*
D19*
X0068050Y0066957D03*
X0068050Y0076800D03*
X0068050Y0086643D03*
X0069674Y0191800D03*
X0061800Y0191800D03*
X0053926Y0191800D03*
M02*
