%
M48
M72
T01C0.01969
T02C0.02362
T03C0.03150
T04C0.03200
T05C0.03937
T06C0.04000
T07C0.07480
%
T01
X40550Y13050
X105550Y143050
X141800Y143050
X166800Y133050
X168050Y123050
X46800Y161800
X30550Y145550
X26800Y169300
T02
X34300Y149300
X171800Y173050
T03
X33404Y182450
X38129Y185599
X38129Y179300
X33404Y176150
X38129Y173001
X53926Y191800
X61800Y191800
X69674Y191800
X68050Y86643
X68050Y76800
X68050Y66957
T04
X38050Y18050
X50550Y13050
X71800Y28050
X71800Y38050
X84300Y38050
X84300Y28050
X83050Y10550
X114300Y28050
X114300Y38050
X114300Y48050
X114300Y58050
X114300Y68050
X114300Y78050
X114300Y88050
X114300Y98050
X114300Y108050
X114300Y118050
X114300Y128050
X114300Y138050
X114300Y148050
X114300Y158050
X129300Y158050
X129300Y148050
X139300Y165550
X143050Y185550
X143050Y195550
X120550Y194300
X120550Y184300
X100550Y185550
X95550Y193050
X90550Y185550
X84300Y158050
X84300Y148050
X84300Y138050
X84300Y128050
X84300Y118050
X84300Y108050
X84300Y98050
X84300Y88050
X84300Y78050
X84300Y68050
X84300Y58050
X84300Y48050
X50550Y53050
X38050Y58050
X23050Y56800
X13050Y56800
X54300Y168050
X54300Y178050
X130550Y78050
X140550Y78050
X174300Y13050
X184300Y13050
X123050Y10550
X179300Y165550
T05
X46052Y191800
X77548Y191800
X159457Y186800
X179143Y186800
X19300Y27893
X19300Y8207
T06
X6800Y68050
X6800Y78050
X6800Y88050
X6800Y98050
X6800Y108050
X6800Y118050
X6800Y128050
X6800Y138050
X194300Y138050
X194300Y128050
X194300Y118050
X194300Y108050
X194300Y98050
X194300Y88050
X194300Y78050
X194300Y68050
X194300Y150550
X194300Y160550
X194300Y170550
X194300Y180550
X194300Y190550
T07
X18050Y193670
X18050Y164930
M30
