G75*
%MOIN*%
%OFA0B0*%
%FSLAX25Y25*%
%IPPOS*%
%LPD*%
%AMOC8*
5,1,8,0,0,1.08239X$1,22.5*
%
%ADD10C,0.00000*%
%ADD11OC8,0.05200*%
%ADD12C,0.06300*%
%ADD13OC8,0.06300*%
%ADD14C,0.07400*%
%ADD15C,0.05150*%
%ADD16C,0.11220*%
%ADD17OC8,0.05937*%
%ADD18C,0.05200*%
%ADD19OC8,0.05150*%
%ADD20C,0.03169*%
%ADD21C,0.01600*%
%ADD22OC8,0.03169*%
%ADD23C,0.03562*%
D10*
X0001800Y0003050D02*
X0001800Y0199900D01*
X0198650Y0199900D01*
X0198650Y0003050D01*
X0001800Y0003050D01*
D11*
X0038050Y0018050D03*
X0050550Y0013050D03*
X0071800Y0028050D03*
X0071800Y0038050D03*
X0050550Y0053050D03*
X0038050Y0058050D03*
X0023050Y0056800D03*
X0013050Y0056800D03*
X0083050Y0010550D03*
X0123050Y0010550D03*
X0174300Y0013050D03*
X0184300Y0013050D03*
X0129300Y0148050D03*
X0129300Y0158050D03*
X0139300Y0165550D03*
X0143050Y0185550D03*
X0143050Y0195550D03*
X0179300Y0165550D03*
X0100550Y0185550D03*
X0095550Y0193050D03*
X0090550Y0185550D03*
X0054300Y0178050D03*
X0054300Y0168050D03*
D12*
X0120550Y0184300D03*
X0130550Y0078050D03*
D13*
X0140550Y0078050D03*
X0120550Y0194300D03*
D14*
X0194300Y0190550D03*
X0194300Y0180550D03*
X0194300Y0170550D03*
X0194300Y0160550D03*
X0194300Y0150550D03*
X0194300Y0138050D03*
X0194300Y0128050D03*
X0194300Y0118050D03*
X0194300Y0108050D03*
X0194300Y0098050D03*
X0194300Y0088050D03*
X0194300Y0078050D03*
X0194300Y0068050D03*
X0006800Y0068050D03*
X0006800Y0078050D03*
X0006800Y0088050D03*
X0006800Y0098050D03*
X0006800Y0108050D03*
X0006800Y0118050D03*
X0006800Y0128050D03*
X0006800Y0138050D03*
D15*
X0038129Y0173001D03*
X0033404Y0176150D03*
X0038129Y0179300D03*
X0033404Y0182450D03*
X0038129Y0185599D03*
D16*
X0018050Y0193670D03*
X0018050Y0164930D03*
D17*
X0046052Y0191800D03*
X0077548Y0191800D03*
X0159457Y0186800D03*
X0179143Y0186800D03*
X0019300Y0027893D03*
X0019300Y0008207D03*
D18*
X0081700Y0028050D02*
X0086900Y0028050D01*
X0086900Y0038050D02*
X0081700Y0038050D01*
X0081700Y0048050D02*
X0086900Y0048050D01*
X0086900Y0058050D02*
X0081700Y0058050D01*
X0081700Y0068050D02*
X0086900Y0068050D01*
X0086900Y0078050D02*
X0081700Y0078050D01*
X0081700Y0088050D02*
X0086900Y0088050D01*
X0086900Y0098050D02*
X0081700Y0098050D01*
X0081700Y0108050D02*
X0086900Y0108050D01*
X0086900Y0118050D02*
X0081700Y0118050D01*
X0081700Y0128050D02*
X0086900Y0128050D01*
X0086900Y0138050D02*
X0081700Y0138050D01*
X0081700Y0148050D02*
X0086900Y0148050D01*
X0086900Y0158050D02*
X0081700Y0158050D01*
X0111700Y0158050D02*
X0116900Y0158050D01*
X0116900Y0148050D02*
X0111700Y0148050D01*
X0111700Y0138050D02*
X0116900Y0138050D01*
X0116900Y0128050D02*
X0111700Y0128050D01*
X0111700Y0118050D02*
X0116900Y0118050D01*
X0116900Y0108050D02*
X0111700Y0108050D01*
X0111700Y0098050D02*
X0116900Y0098050D01*
X0116900Y0088050D02*
X0111700Y0088050D01*
X0111700Y0078050D02*
X0116900Y0078050D01*
X0116900Y0068050D02*
X0111700Y0068050D01*
X0111700Y0058050D02*
X0116900Y0058050D01*
X0116900Y0048050D02*
X0111700Y0048050D01*
X0111700Y0038050D02*
X0116900Y0038050D01*
X0116900Y0028050D02*
X0111700Y0028050D01*
D19*
X0068050Y0066957D03*
X0068050Y0076800D03*
X0068050Y0086643D03*
X0069674Y0191800D03*
X0061800Y0191800D03*
X0053926Y0191800D03*
D20*
X0026800Y0169300D03*
X0046800Y0161800D03*
X0030550Y0145550D03*
X0105550Y0143050D03*
X0141800Y0143050D03*
X0166800Y0133050D03*
X0168050Y0123050D03*
D21*
X0184300Y0139300D01*
X0184300Y0146800D01*
X0188050Y0150550D01*
X0194300Y0150550D01*
X0190598Y0154909D02*
X0185118Y0154909D01*
X0186717Y0156507D02*
X0190282Y0156507D01*
X0191071Y0155718D02*
X0189468Y0157321D01*
X0189290Y0157750D01*
X0187960Y0157750D01*
X0178350Y0148140D01*
X0178350Y0141243D01*
X0177924Y0140214D01*
X0177136Y0139426D01*
X0177136Y0139426D01*
X0170384Y0132674D01*
X0170384Y0132337D01*
X0169839Y0131020D01*
X0168830Y0130011D01*
X0167513Y0129466D01*
X0166087Y0129466D01*
X0164770Y0130011D01*
X0163761Y0131020D01*
X0163216Y0132337D01*
X0163216Y0133763D01*
X0163761Y0135080D01*
X0164770Y0136089D01*
X0166087Y0136634D01*
X0166424Y0136634D01*
X0172750Y0142960D01*
X0172750Y0149857D01*
X0173176Y0150886D01*
X0184426Y0162136D01*
X0184426Y0162136D01*
X0185214Y0162924D01*
X0186243Y0163350D01*
X0189290Y0163350D01*
X0189468Y0163779D01*
X0191071Y0165382D01*
X0191764Y0165669D01*
X0191417Y0165846D01*
X0190717Y0166355D01*
X0190105Y0166967D01*
X0189596Y0167667D01*
X0189203Y0168439D01*
X0188935Y0169262D01*
X0188800Y0170117D01*
X0188800Y0170350D01*
X0194100Y0170350D01*
X0194100Y0170750D01*
X0188800Y0170750D01*
X0188800Y0170983D01*
X0188935Y0171838D01*
X0189203Y0172661D01*
X0189596Y0173433D01*
X0190105Y0174133D01*
X0190717Y0174745D01*
X0191417Y0175254D01*
X0191764Y0175431D01*
X0191071Y0175718D01*
X0189468Y0177321D01*
X0188600Y0179416D01*
X0188600Y0181684D01*
X0189468Y0183779D01*
X0189689Y0184000D01*
X0183369Y0184000D01*
X0181943Y0182573D01*
X0181943Y0169413D01*
X0183900Y0167455D01*
X0183900Y0163645D01*
X0181205Y0160950D01*
X0177395Y0160950D01*
X0174700Y0163645D01*
X0174700Y0167455D01*
X0176343Y0169098D01*
X0176343Y0182573D01*
X0174174Y0184742D01*
X0174174Y0188858D01*
X0177084Y0191768D01*
X0181201Y0191768D01*
X0183369Y0189600D01*
X0188600Y0189600D01*
X0188600Y0191684D01*
X0189468Y0193779D01*
X0191071Y0195382D01*
X0193166Y0196250D01*
X0195434Y0196250D01*
X0196650Y0195746D01*
X0196650Y0197900D01*
X0146922Y0197900D01*
X0147450Y0197373D01*
X0147450Y0195550D01*
X0143050Y0195550D01*
X0143050Y0195550D01*
X0147450Y0195550D01*
X0147450Y0193727D01*
X0144873Y0191150D01*
X0143050Y0191150D01*
X0143050Y0195550D01*
X0143050Y0195550D01*
X0143050Y0195550D01*
X0138650Y0195550D01*
X0138650Y0197373D01*
X0139178Y0197900D01*
X0123950Y0197900D01*
X0125500Y0196350D01*
X0125500Y0194300D01*
X0120550Y0194300D01*
X0120550Y0194300D01*
X0125500Y0194300D01*
X0125500Y0192250D01*
X0122600Y0189350D01*
X0121816Y0189350D01*
X0123467Y0188666D01*
X0124916Y0187217D01*
X0125700Y0185324D01*
X0125700Y0183276D01*
X0124916Y0181383D01*
X0123467Y0179934D01*
X0123350Y0179885D01*
X0123350Y0163743D01*
X0122924Y0162714D01*
X0122136Y0161926D01*
X0120819Y0160609D01*
X0121500Y0158965D01*
X0121500Y0157135D01*
X0120800Y0155444D01*
X0119506Y0154150D01*
X0117815Y0153450D01*
X0110785Y0153450D01*
X0109094Y0154150D01*
X0107800Y0155444D01*
X0107100Y0157135D01*
X0107100Y0158965D01*
X0107800Y0160656D01*
X0109094Y0161950D01*
X0110785Y0162650D01*
X0114940Y0162650D01*
X0117750Y0165460D01*
X0117750Y0179885D01*
X0117633Y0179934D01*
X0116184Y0181383D01*
X0115400Y0183276D01*
X0115400Y0185324D01*
X0116184Y0187217D01*
X0117633Y0188666D01*
X0119284Y0189350D01*
X0118500Y0189350D01*
X0115600Y0192250D01*
X0115600Y0194300D01*
X0120550Y0194300D01*
X0120550Y0194300D01*
X0115600Y0194300D01*
X0115600Y0196350D01*
X0117150Y0197900D01*
X0024535Y0197900D01*
X0025660Y0195184D01*
X0025660Y0192156D01*
X0024502Y0189359D01*
X0022361Y0187218D01*
X0019564Y0186060D01*
X0016536Y0186060D01*
X0013739Y0187218D01*
X0011598Y0189359D01*
X0010440Y0192156D01*
X0010440Y0195184D01*
X0011565Y0197900D01*
X0003800Y0197900D01*
X0003800Y0142977D01*
X0005666Y0143750D01*
X0007934Y0143750D01*
X0010029Y0142882D01*
X0011632Y0141279D01*
X0012500Y0139184D01*
X0012500Y0136916D01*
X0011632Y0134821D01*
X0010029Y0133218D01*
X0009624Y0133050D01*
X0010029Y0132882D01*
X0011632Y0131279D01*
X0012500Y0129184D01*
X0012500Y0126916D01*
X0011632Y0124821D01*
X0010029Y0123218D01*
X0009624Y0123050D01*
X0010029Y0122882D01*
X0011632Y0121279D01*
X0012500Y0119184D01*
X0012500Y0116916D01*
X0011632Y0114821D01*
X0010029Y0113218D01*
X0009624Y0113050D01*
X0010029Y0112882D01*
X0011632Y0111279D01*
X0012500Y0109184D01*
X0012500Y0106916D01*
X0011632Y0104821D01*
X0010029Y0103218D01*
X0009624Y0103050D01*
X0010029Y0102882D01*
X0011632Y0101279D01*
X0012500Y0099184D01*
X0012500Y0096916D01*
X0011632Y0094821D01*
X0010029Y0093218D01*
X0009624Y0093050D01*
X0010029Y0092882D01*
X0011632Y0091279D01*
X0012500Y0089184D01*
X0012500Y0086916D01*
X0011632Y0084821D01*
X0010029Y0083218D01*
X0009624Y0083050D01*
X0010029Y0082882D01*
X0011632Y0081279D01*
X0011810Y0080850D01*
X0015250Y0080850D01*
X0015250Y0133607D01*
X0015676Y0134636D01*
X0016464Y0135424D01*
X0026966Y0145926D01*
X0026966Y0146263D01*
X0027511Y0147580D01*
X0028520Y0148589D01*
X0029837Y0149134D01*
X0030519Y0149134D01*
X0030519Y0150052D01*
X0031095Y0151442D01*
X0032158Y0152505D01*
X0033548Y0153081D01*
X0035052Y0153081D01*
X0036442Y0152505D01*
X0037505Y0151442D01*
X0038081Y0150052D01*
X0038081Y0149479D01*
X0055886Y0131674D01*
X0056674Y0130886D01*
X0057100Y0129857D01*
X0057100Y0062960D01*
X0065886Y0054174D01*
X0066674Y0053386D01*
X0067100Y0052357D01*
X0067100Y0017100D01*
X0075640Y0017100D01*
X0081500Y0022960D01*
X0081500Y0023450D01*
X0080785Y0023450D01*
X0079094Y0024150D01*
X0077800Y0025444D01*
X0077100Y0027135D01*
X0077100Y0028965D01*
X0077800Y0030656D01*
X0079094Y0031950D01*
X0080785Y0032650D01*
X0087815Y0032650D01*
X0089506Y0031950D01*
X0090800Y0030656D01*
X0091500Y0028965D01*
X0091500Y0027135D01*
X0090800Y0025444D01*
X0089506Y0024150D01*
X0087815Y0023450D01*
X0087100Y0023450D01*
X0087100Y0021243D01*
X0086674Y0020214D01*
X0081410Y0014950D01*
X0083050Y0014950D01*
X0083050Y0010550D01*
X0083050Y0010550D01*
X0087450Y0010550D01*
X0087450Y0012373D01*
X0084873Y0014950D01*
X0083050Y0014950D01*
X0083050Y0010550D01*
X0083050Y0010550D01*
X0087450Y0010550D01*
X0087450Y0008727D01*
X0084873Y0006150D01*
X0083050Y0006150D01*
X0083050Y0010550D01*
X0083050Y0010550D01*
X0083050Y0010550D01*
X0078650Y0010550D01*
X0078650Y0012190D01*
X0078386Y0011926D01*
X0077357Y0011500D01*
X0064993Y0011500D01*
X0063964Y0011926D01*
X0063176Y0012714D01*
X0061926Y0013964D01*
X0061500Y0014993D01*
X0061500Y0050640D01*
X0051926Y0060214D01*
X0051500Y0061243D01*
X0051500Y0128140D01*
X0034134Y0145506D01*
X0034134Y0144837D01*
X0033589Y0143520D01*
X0032580Y0142511D01*
X0031263Y0141966D01*
X0030926Y0141966D01*
X0020850Y0131890D01*
X0020850Y0079210D01*
X0029210Y0070850D01*
X0029857Y0070850D01*
X0030886Y0070424D01*
X0031674Y0069636D01*
X0032100Y0068607D01*
X0032100Y0046243D01*
X0031674Y0045214D01*
X0025824Y0039365D01*
X0026191Y0039550D01*
X0026300Y0039558D01*
X0026401Y0039600D01*
X0026852Y0039600D01*
X0027302Y0039634D01*
X0027406Y0039600D01*
X0041890Y0039600D01*
X0047750Y0045460D01*
X0047750Y0049345D01*
X0045950Y0051145D01*
X0045950Y0054955D01*
X0048645Y0057650D01*
X0052455Y0057650D01*
X0055150Y0054955D01*
X0055150Y0051145D01*
X0053350Y0049345D01*
X0053350Y0043743D01*
X0052924Y0042714D01*
X0052136Y0041926D01*
X0052136Y0041926D01*
X0044636Y0034426D01*
X0043607Y0034000D01*
X0028243Y0034000D01*
X0024268Y0029377D01*
X0024268Y0025834D01*
X0021358Y0022924D01*
X0017242Y0022924D01*
X0014331Y0025834D01*
X0014331Y0027872D01*
X0014174Y0027714D01*
X0013386Y0026926D01*
X0013350Y0026911D01*
X0013350Y0024210D01*
X0021710Y0015850D01*
X0034027Y0015850D01*
X0033650Y0016227D01*
X0033650Y0018050D01*
X0038050Y0018050D01*
X0038050Y0018050D01*
X0038050Y0022450D01*
X0039873Y0022450D01*
X0042450Y0019873D01*
X0042450Y0018050D01*
X0038050Y0018050D01*
X0038050Y0018050D01*
X0038050Y0018050D01*
X0038050Y0022450D01*
X0036227Y0022450D01*
X0033650Y0019873D01*
X0033650Y0018050D01*
X0038050Y0018050D01*
X0042450Y0018050D01*
X0042450Y0016227D01*
X0042446Y0016223D01*
X0044134Y0014535D01*
X0044134Y0011565D01*
X0042035Y0009466D01*
X0039065Y0009466D01*
X0038281Y0010250D01*
X0024001Y0010250D01*
X0024068Y0010183D01*
X0024068Y0008392D01*
X0019484Y0008392D01*
X0019484Y0008023D01*
X0024068Y0008023D01*
X0024068Y0006232D01*
X0022886Y0005050D01*
X0196650Y0005050D01*
X0196650Y0063075D01*
X0196411Y0062953D01*
X0195588Y0062685D01*
X0194733Y0062550D01*
X0194500Y0062550D01*
X0194500Y0067850D01*
X0194100Y0067850D01*
X0194100Y0062550D01*
X0193867Y0062550D01*
X0193012Y0062685D01*
X0192189Y0062953D01*
X0191417Y0063346D01*
X0190717Y0063855D01*
X0190105Y0064467D01*
X0189596Y0065167D01*
X0189203Y0065939D01*
X0188935Y0066762D01*
X0188800Y0067617D01*
X0188800Y0067850D01*
X0194100Y0067850D01*
X0194100Y0068250D01*
X0188800Y0068250D01*
X0188800Y0068483D01*
X0188935Y0069338D01*
X0189203Y0070161D01*
X0189596Y0070933D01*
X0190105Y0071633D01*
X0190717Y0072245D01*
X0191417Y0072754D01*
X0191764Y0072931D01*
X0191071Y0073218D01*
X0189468Y0074821D01*
X0189290Y0075250D01*
X0184993Y0075250D01*
X0183964Y0075676D01*
X0183176Y0076464D01*
X0183176Y0076464D01*
X0168176Y0091464D01*
X0167750Y0092493D01*
X0167750Y0113140D01*
X0141424Y0139466D01*
X0141087Y0139466D01*
X0139770Y0140011D01*
X0138761Y0141020D01*
X0138216Y0142337D01*
X0138216Y0143763D01*
X0138761Y0145080D01*
X0139770Y0146089D01*
X0141087Y0146634D01*
X0142513Y0146634D01*
X0143830Y0146089D01*
X0144839Y0145080D01*
X0145384Y0143763D01*
X0145384Y0143426D01*
X0164636Y0124174D01*
X0165011Y0125080D01*
X0166020Y0126089D01*
X0167337Y0126634D01*
X0167674Y0126634D01*
X0181500Y0140460D01*
X0181500Y0147357D01*
X0181926Y0148386D01*
X0185676Y0152136D01*
X0186464Y0152924D01*
X0187493Y0153350D01*
X0189290Y0153350D01*
X0189468Y0153779D01*
X0191071Y0155382D01*
X0191476Y0155550D01*
X0191071Y0155718D01*
X0187397Y0153310D02*
X0183520Y0153310D01*
X0181921Y0151712D02*
X0185252Y0151712D01*
X0183653Y0150113D02*
X0180323Y0150113D01*
X0178724Y0148515D02*
X0182055Y0148515D01*
X0181500Y0146916D02*
X0178350Y0146916D01*
X0178350Y0145318D02*
X0181500Y0145318D01*
X0181500Y0143719D02*
X0178350Y0143719D01*
X0178350Y0142120D02*
X0181500Y0142120D01*
X0181500Y0140522D02*
X0178051Y0140522D01*
X0176633Y0138923D02*
X0179964Y0138923D01*
X0178365Y0137325D02*
X0175035Y0137325D01*
X0173436Y0135726D02*
X0176767Y0135726D01*
X0175168Y0134128D02*
X0171838Y0134128D01*
X0170384Y0132529D02*
X0173570Y0132529D01*
X0171971Y0130931D02*
X0169750Y0130931D01*
X0170373Y0129332D02*
X0159477Y0129332D01*
X0161076Y0127734D02*
X0168774Y0127734D01*
X0166133Y0126135D02*
X0162674Y0126135D01*
X0164273Y0124537D02*
X0164786Y0124537D01*
X0161149Y0119741D02*
X0139600Y0119741D01*
X0139600Y0118143D02*
X0162747Y0118143D01*
X0164346Y0116544D02*
X0139600Y0116544D01*
X0139600Y0114946D02*
X0165944Y0114946D01*
X0167543Y0113347D02*
X0139600Y0113347D01*
X0139600Y0111749D02*
X0167750Y0111749D01*
X0167750Y0110150D02*
X0139600Y0110150D01*
X0139600Y0108552D02*
X0167750Y0108552D01*
X0167750Y0106953D02*
X0139600Y0106953D01*
X0139600Y0105355D02*
X0167750Y0105355D01*
X0167750Y0103756D02*
X0139600Y0103756D01*
X0139600Y0102158D02*
X0167750Y0102158D01*
X0167750Y0100559D02*
X0139600Y0100559D01*
X0139600Y0098961D02*
X0167750Y0098961D01*
X0167750Y0097362D02*
X0139600Y0097362D01*
X0139600Y0096243D02*
X0139600Y0128607D01*
X0139174Y0129636D01*
X0138386Y0130424D01*
X0133386Y0135424D01*
X0132357Y0135850D01*
X0120968Y0135850D01*
X0121500Y0137135D01*
X0121500Y0138965D01*
X0120800Y0140656D01*
X0119506Y0141950D01*
X0117815Y0142650D01*
X0110785Y0142650D01*
X0109094Y0141950D01*
X0108889Y0141744D01*
X0109134Y0142337D01*
X0109134Y0143763D01*
X0108689Y0144839D01*
X0108834Y0144694D01*
X0109394Y0144287D01*
X0110011Y0143972D01*
X0110670Y0143758D01*
X0111354Y0143650D01*
X0114300Y0143650D01*
X0117246Y0143650D01*
X0117930Y0143758D01*
X0118589Y0143972D01*
X0119206Y0144287D01*
X0119766Y0144694D01*
X0120256Y0145184D01*
X0120663Y0145744D01*
X0120978Y0146361D01*
X0121192Y0147020D01*
X0121300Y0147704D01*
X0121300Y0148050D01*
X0121300Y0148396D01*
X0121192Y0149080D01*
X0120978Y0149739D01*
X0120663Y0150356D01*
X0120256Y0150916D01*
X0119766Y0151406D01*
X0119206Y0151813D01*
X0118589Y0152128D01*
X0117930Y0152342D01*
X0117246Y0152450D01*
X0114300Y0152450D01*
X0114300Y0148050D01*
X0114300Y0148050D01*
X0121300Y0148050D01*
X0114300Y0148050D01*
X0114300Y0148050D01*
X0114300Y0148050D01*
X0107300Y0148050D01*
X0107300Y0148396D01*
X0107408Y0149080D01*
X0107622Y0149739D01*
X0107937Y0150356D01*
X0108344Y0150916D01*
X0108834Y0151406D01*
X0109394Y0151813D01*
X0110011Y0152128D01*
X0110670Y0152342D01*
X0111354Y0152450D01*
X0114300Y0152450D01*
X0114300Y0148050D01*
X0114300Y0143650D01*
X0114300Y0148050D01*
X0114300Y0148050D01*
X0107300Y0148050D01*
X0107300Y0147704D01*
X0107408Y0147020D01*
X0107622Y0146361D01*
X0107937Y0145744D01*
X0107968Y0145701D01*
X0107580Y0146089D01*
X0106263Y0146634D01*
X0105926Y0146634D01*
X0098350Y0154210D01*
X0098350Y0181245D01*
X0098645Y0180950D01*
X0102455Y0180950D01*
X0105150Y0183645D01*
X0105150Y0187455D01*
X0102455Y0190150D01*
X0099155Y0190150D01*
X0100150Y0191145D01*
X0100150Y0194955D01*
X0097455Y0197650D01*
X0093645Y0197650D01*
X0090950Y0194955D01*
X0090950Y0191145D01*
X0092145Y0189950D01*
X0090550Y0189950D01*
X0090550Y0185550D01*
X0090550Y0185550D01*
X0090550Y0181150D01*
X0092373Y0181150D01*
X0092750Y0181527D01*
X0092750Y0152493D01*
X0093176Y0151464D01*
X0101966Y0142674D01*
X0101966Y0142337D01*
X0102511Y0141020D01*
X0103520Y0140011D01*
X0104837Y0139466D01*
X0106263Y0139466D01*
X0107524Y0139988D01*
X0107100Y0138965D01*
X0107100Y0137135D01*
X0107632Y0135850D01*
X0090968Y0135850D01*
X0091500Y0137135D01*
X0091500Y0138965D01*
X0090800Y0140656D01*
X0089506Y0141950D01*
X0087815Y0142650D01*
X0080785Y0142650D01*
X0079094Y0141950D01*
X0077800Y0140656D01*
X0077100Y0138965D01*
X0077100Y0137135D01*
X0077632Y0135850D01*
X0076710Y0135850D01*
X0050384Y0162176D01*
X0050384Y0162513D01*
X0049839Y0163830D01*
X0048830Y0164839D01*
X0047513Y0165384D01*
X0046087Y0165384D01*
X0044770Y0164839D01*
X0043761Y0163830D01*
X0043216Y0162513D01*
X0043216Y0161087D01*
X0043761Y0159770D01*
X0044770Y0158761D01*
X0046087Y0158216D01*
X0046424Y0158216D01*
X0073176Y0131464D01*
X0073964Y0130676D01*
X0074993Y0130250D01*
X0077632Y0130250D01*
X0077100Y0128965D01*
X0077100Y0127135D01*
X0077632Y0125850D01*
X0074210Y0125850D01*
X0030384Y0169676D01*
X0030384Y0170013D01*
X0029839Y0171330D01*
X0028830Y0172339D01*
X0027513Y0172884D01*
X0026087Y0172884D01*
X0024770Y0172339D01*
X0023761Y0171330D01*
X0023366Y0170376D01*
X0022361Y0171382D01*
X0019564Y0172540D01*
X0016536Y0172540D01*
X0013739Y0171382D01*
X0011598Y0169241D01*
X0010440Y0166444D01*
X0010440Y0163416D01*
X0011598Y0160619D01*
X0013739Y0158478D01*
X0016536Y0157320D01*
X0019564Y0157320D01*
X0022361Y0158478D01*
X0024502Y0160619D01*
X0025660Y0163416D01*
X0025660Y0165893D01*
X0026087Y0165716D01*
X0026424Y0165716D01*
X0070676Y0121464D01*
X0071464Y0120676D01*
X0072493Y0120250D01*
X0077632Y0120250D01*
X0077100Y0118965D01*
X0077100Y0117135D01*
X0077800Y0115444D01*
X0079094Y0114150D01*
X0080785Y0113450D01*
X0087815Y0113450D01*
X0089506Y0114150D01*
X0090800Y0115444D01*
X0091500Y0117135D01*
X0091500Y0118965D01*
X0090968Y0120250D01*
X0101890Y0120250D01*
X0102750Y0119390D01*
X0102750Y0104993D01*
X0103176Y0103964D01*
X0107415Y0099725D01*
X0107100Y0098965D01*
X0107100Y0097135D01*
X0107800Y0095444D01*
X0109094Y0094150D01*
X0110785Y0093450D01*
X0117815Y0093450D01*
X0119506Y0094150D01*
X0120800Y0095444D01*
X0121500Y0097135D01*
X0121500Y0098965D01*
X0120800Y0100656D01*
X0119506Y0101950D01*
X0117815Y0102650D01*
X0112410Y0102650D01*
X0111610Y0103450D01*
X0117815Y0103450D01*
X0119506Y0104150D01*
X0120800Y0105444D01*
X0121500Y0107135D01*
X0121500Y0108965D01*
X0120800Y0110656D01*
X0119506Y0111950D01*
X0117815Y0112650D01*
X0110785Y0112650D01*
X0109094Y0111950D01*
X0108350Y0111205D01*
X0108350Y0114895D01*
X0109094Y0114150D01*
X0110785Y0113450D01*
X0117815Y0113450D01*
X0119506Y0114150D01*
X0120800Y0115444D01*
X0121500Y0117135D01*
X0121500Y0118965D01*
X0120800Y0120656D01*
X0119506Y0121950D01*
X0117815Y0122650D01*
X0110785Y0122650D01*
X0109094Y0121950D01*
X0108321Y0121177D01*
X0107924Y0122136D01*
X0107136Y0122924D01*
X0104636Y0125424D01*
X0103607Y0125850D01*
X0090968Y0125850D01*
X0091500Y0127135D01*
X0091500Y0128965D01*
X0090968Y0130250D01*
X0107632Y0130250D01*
X0107100Y0128965D01*
X0107100Y0127135D01*
X0107800Y0125444D01*
X0109094Y0124150D01*
X0110785Y0123450D01*
X0117815Y0123450D01*
X0119506Y0124150D01*
X0120800Y0125444D01*
X0121500Y0127135D01*
X0121500Y0128965D01*
X0120968Y0130250D01*
X0130640Y0130250D01*
X0134000Y0126890D01*
X0134000Y0097960D01*
X0126890Y0090850D01*
X0120605Y0090850D01*
X0119506Y0091950D01*
X0117815Y0092650D01*
X0110785Y0092650D01*
X0109094Y0091950D01*
X0107800Y0090656D01*
X0107100Y0088965D01*
X0107100Y0087135D01*
X0107800Y0085444D01*
X0109094Y0084150D01*
X0110785Y0083450D01*
X0117815Y0083450D01*
X0119506Y0084150D01*
X0120605Y0085250D01*
X0128607Y0085250D01*
X0129636Y0085676D01*
X0130424Y0086464D01*
X0139174Y0095214D01*
X0139600Y0096243D01*
X0139401Y0095764D02*
X0167750Y0095764D01*
X0167750Y0094165D02*
X0138125Y0094165D01*
X0136526Y0092567D02*
X0167750Y0092567D01*
X0168672Y0090968D02*
X0134928Y0090968D01*
X0133329Y0089370D02*
X0170271Y0089370D01*
X0171869Y0087771D02*
X0131731Y0087771D01*
X0130132Y0086173D02*
X0173468Y0086173D01*
X0175066Y0084574D02*
X0119929Y0084574D01*
X0119506Y0081950D02*
X0117815Y0082650D01*
X0110785Y0082650D01*
X0109094Y0081950D01*
X0107800Y0080656D01*
X0107100Y0078965D01*
X0107100Y0077135D01*
X0107800Y0075444D01*
X0109094Y0074150D01*
X0110785Y0073450D01*
X0117815Y0073450D01*
X0119506Y0074150D01*
X0120800Y0075444D01*
X0121500Y0077135D01*
X0121500Y0078965D01*
X0120800Y0080656D01*
X0119506Y0081950D01*
X0120078Y0081377D02*
X0126594Y0081377D01*
X0126184Y0080967D02*
X0125400Y0079074D01*
X0125400Y0077026D01*
X0126184Y0075133D01*
X0127633Y0073684D01*
X0129526Y0072900D01*
X0131574Y0072900D01*
X0133467Y0073684D01*
X0134916Y0075133D01*
X0135600Y0076784D01*
X0135600Y0076000D01*
X0138500Y0073100D01*
X0140550Y0073100D01*
X0142600Y0073100D01*
X0145500Y0076000D01*
X0145500Y0078050D01*
X0145500Y0080100D01*
X0142600Y0083000D01*
X0140550Y0083000D01*
X0140550Y0078050D01*
X0145500Y0078050D01*
X0140550Y0078050D01*
X0140550Y0078050D01*
X0140550Y0078050D01*
X0140550Y0073100D01*
X0140550Y0078050D01*
X0140550Y0078050D01*
X0140550Y0083000D01*
X0138500Y0083000D01*
X0135600Y0080100D01*
X0135600Y0079316D01*
X0134916Y0080967D01*
X0133467Y0082416D01*
X0131574Y0083200D01*
X0129526Y0083200D01*
X0127633Y0082416D01*
X0126184Y0080967D01*
X0125692Y0079779D02*
X0121163Y0079779D01*
X0121500Y0078180D02*
X0125400Y0078180D01*
X0125584Y0076582D02*
X0121271Y0076582D01*
X0120338Y0074983D02*
X0126334Y0074983D01*
X0128356Y0073384D02*
X0070821Y0073384D01*
X0069862Y0072425D02*
X0072425Y0074988D01*
X0072425Y0076800D01*
X0072425Y0078465D01*
X0075214Y0075676D01*
X0076243Y0075250D01*
X0077995Y0075250D01*
X0079094Y0074150D01*
X0080785Y0073450D01*
X0087815Y0073450D01*
X0089506Y0074150D01*
X0090800Y0075444D01*
X0091500Y0077135D01*
X0091500Y0078965D01*
X0090800Y0080656D01*
X0089506Y0081950D01*
X0087815Y0082650D01*
X0080785Y0082650D01*
X0079094Y0081950D01*
X0077995Y0080850D01*
X0077960Y0080850D01*
X0072625Y0086185D01*
X0072625Y0088537D01*
X0069945Y0091217D01*
X0066155Y0091217D01*
X0063475Y0088537D01*
X0063475Y0084748D01*
X0066155Y0082068D01*
X0068822Y0082068D01*
X0069715Y0081175D01*
X0068050Y0081175D01*
X0066238Y0081175D01*
X0063675Y0078612D01*
X0063675Y0076800D01*
X0068050Y0076800D01*
X0068050Y0076800D01*
X0068050Y0081175D01*
X0068050Y0076800D01*
X0072425Y0076800D01*
X0068050Y0076800D01*
X0068050Y0076800D01*
X0068050Y0076800D01*
X0068050Y0072425D01*
X0069862Y0072425D01*
X0069945Y0071532D02*
X0071720Y0069757D01*
X0073298Y0069757D01*
X0073964Y0070424D01*
X0074993Y0070850D01*
X0077995Y0070850D01*
X0079094Y0071950D01*
X0080785Y0072650D01*
X0087815Y0072650D01*
X0089506Y0071950D01*
X0090800Y0070656D01*
X0091500Y0068965D01*
X0091500Y0067135D01*
X0090800Y0065444D01*
X0089506Y0064150D01*
X0087815Y0063450D01*
X0080785Y0063450D01*
X0079094Y0064150D01*
X0077995Y0065250D01*
X0076710Y0065250D01*
X0076044Y0064584D01*
X0075014Y0064157D01*
X0071720Y0064157D01*
X0069945Y0062383D01*
X0066155Y0062383D01*
X0063475Y0065063D01*
X0063475Y0068852D01*
X0066155Y0071532D01*
X0069945Y0071532D01*
X0071290Y0070187D02*
X0073728Y0070187D01*
X0075550Y0068050D02*
X0074457Y0066957D01*
X0068050Y0066957D01*
X0064810Y0070187D02*
X0057100Y0070187D01*
X0057100Y0068589D02*
X0063475Y0068589D01*
X0063475Y0066990D02*
X0057100Y0066990D01*
X0057100Y0065392D02*
X0063475Y0065392D01*
X0064744Y0063793D02*
X0057100Y0063793D01*
X0057865Y0062195D02*
X0079686Y0062195D01*
X0079094Y0061950D02*
X0077800Y0060656D01*
X0077100Y0058965D01*
X0077100Y0057135D01*
X0077800Y0055444D01*
X0079094Y0054150D01*
X0080785Y0053450D01*
X0087815Y0053450D01*
X0089506Y0054150D01*
X0090800Y0055444D01*
X0091500Y0057135D01*
X0091500Y0058965D01*
X0090800Y0060656D01*
X0089506Y0061950D01*
X0087815Y0062650D01*
X0080785Y0062650D01*
X0079094Y0061950D01*
X0077776Y0060596D02*
X0059463Y0060596D01*
X0061062Y0058998D02*
X0077114Y0058998D01*
X0077100Y0057399D02*
X0062660Y0057399D01*
X0064259Y0055801D02*
X0077653Y0055801D01*
X0079042Y0054202D02*
X0065857Y0054202D01*
X0066998Y0052604D02*
X0080674Y0052604D01*
X0080785Y0052650D02*
X0079094Y0051950D01*
X0077800Y0050656D01*
X0077100Y0048965D01*
X0077100Y0047135D01*
X0077800Y0045444D01*
X0079094Y0044150D01*
X0080785Y0043450D01*
X0087815Y0043450D01*
X0089506Y0044150D01*
X0090800Y0045444D01*
X0091500Y0047135D01*
X0091500Y0048965D01*
X0090800Y0050656D01*
X0089506Y0051950D01*
X0087815Y0052650D01*
X0080785Y0052650D01*
X0078150Y0051005D02*
X0067100Y0051005D01*
X0067100Y0049407D02*
X0077283Y0049407D01*
X0077100Y0047808D02*
X0067100Y0047808D01*
X0067100Y0046210D02*
X0077483Y0046210D01*
X0078633Y0044611D02*
X0067100Y0044611D01*
X0067100Y0043013D02*
X0196650Y0043013D01*
X0196650Y0044611D02*
X0119967Y0044611D01*
X0119506Y0044150D02*
X0120800Y0045444D01*
X0121500Y0047135D01*
X0121500Y0048965D01*
X0120800Y0050656D01*
X0119506Y0051950D01*
X0117815Y0052650D01*
X0110785Y0052650D01*
X0109094Y0051950D01*
X0107800Y0050656D01*
X0107100Y0048965D01*
X0107100Y0047135D01*
X0107800Y0045444D01*
X0109094Y0044150D01*
X0110785Y0043450D01*
X0117815Y0043450D01*
X0119506Y0044150D01*
X0119506Y0041950D02*
X0117815Y0042650D01*
X0110785Y0042650D01*
X0109094Y0041950D01*
X0107800Y0040656D01*
X0107100Y0038965D01*
X0107100Y0037135D01*
X0107800Y0035444D01*
X0109094Y0034150D01*
X0110785Y0033450D01*
X0117815Y0033450D01*
X0119506Y0034150D01*
X0120800Y0035444D01*
X0121500Y0037135D01*
X0121500Y0038965D01*
X0120800Y0040656D01*
X0119506Y0041950D01*
X0120041Y0041414D02*
X0196650Y0041414D01*
X0196650Y0039816D02*
X0121148Y0039816D01*
X0121500Y0038217D02*
X0196650Y0038217D01*
X0196650Y0036619D02*
X0121286Y0036619D01*
X0120376Y0035020D02*
X0196650Y0035020D01*
X0196650Y0033422D02*
X0067100Y0033422D01*
X0067100Y0035020D02*
X0068324Y0035020D01*
X0067200Y0036145D02*
X0069895Y0033450D01*
X0073705Y0033450D01*
X0076400Y0036145D01*
X0076400Y0039955D01*
X0073705Y0042650D01*
X0069895Y0042650D01*
X0067200Y0039955D01*
X0067200Y0036145D01*
X0067200Y0036619D02*
X0067100Y0036619D01*
X0067100Y0038217D02*
X0067200Y0038217D01*
X0067200Y0039816D02*
X0067100Y0039816D01*
X0067100Y0041414D02*
X0068659Y0041414D01*
X0074941Y0041414D02*
X0078559Y0041414D01*
X0079094Y0041950D02*
X0077800Y0040656D01*
X0077100Y0038965D01*
X0077100Y0037135D01*
X0077800Y0035444D01*
X0079094Y0034150D01*
X0080785Y0033450D01*
X0087815Y0033450D01*
X0089506Y0034150D01*
X0090800Y0035444D01*
X0091500Y0037135D01*
X0091500Y0038965D01*
X0090800Y0040656D01*
X0089506Y0041950D01*
X0087815Y0042650D01*
X0080785Y0042650D01*
X0079094Y0041950D01*
X0077452Y0039816D02*
X0076400Y0039816D01*
X0076400Y0038217D02*
X0077100Y0038217D01*
X0077314Y0036619D02*
X0076400Y0036619D01*
X0075276Y0035020D02*
X0078224Y0035020D01*
X0078968Y0031823D02*
X0074249Y0031823D01*
X0073623Y0032450D02*
X0071800Y0032450D01*
X0071800Y0028050D01*
X0071800Y0028050D01*
X0076200Y0028050D01*
X0076200Y0029873D01*
X0073623Y0032450D01*
X0071800Y0032450D02*
X0069977Y0032450D01*
X0067400Y0029873D01*
X0067400Y0028050D01*
X0071800Y0028050D01*
X0071800Y0028050D01*
X0071800Y0028050D01*
X0071800Y0032450D01*
X0071800Y0031823D02*
X0071800Y0031823D01*
X0071800Y0030225D02*
X0071800Y0030225D01*
X0071800Y0028626D02*
X0071800Y0028626D01*
X0071800Y0028050D02*
X0067400Y0028050D01*
X0067400Y0026227D01*
X0069977Y0023650D01*
X0071800Y0023650D01*
X0073623Y0023650D01*
X0076200Y0026227D01*
X0076200Y0028050D01*
X0071800Y0028050D01*
X0071800Y0023650D01*
X0071800Y0028050D01*
X0071800Y0028050D01*
X0071800Y0027028D02*
X0071800Y0027028D01*
X0071800Y0025429D02*
X0071800Y0025429D01*
X0071800Y0023831D02*
X0071800Y0023831D01*
X0073803Y0023831D02*
X0079866Y0023831D01*
X0080772Y0022232D02*
X0067100Y0022232D01*
X0067100Y0020634D02*
X0079174Y0020634D01*
X0077575Y0019035D02*
X0067100Y0019035D01*
X0067100Y0017437D02*
X0075977Y0017437D01*
X0076800Y0014300D02*
X0084300Y0021800D01*
X0084300Y0028050D01*
X0088734Y0023831D02*
X0109866Y0023831D01*
X0109094Y0024150D02*
X0110785Y0023450D01*
X0117815Y0023450D01*
X0119506Y0024150D01*
X0120800Y0025444D01*
X0121500Y0027135D01*
X0121500Y0028965D01*
X0120800Y0030656D01*
X0119506Y0031950D01*
X0117815Y0032650D01*
X0110785Y0032650D01*
X0109094Y0031950D01*
X0107800Y0030656D01*
X0107100Y0028965D01*
X0107100Y0027135D01*
X0107800Y0025444D01*
X0109094Y0024150D01*
X0107815Y0025429D02*
X0090785Y0025429D01*
X0091456Y0027028D02*
X0107144Y0027028D01*
X0107100Y0028626D02*
X0091500Y0028626D01*
X0090978Y0030225D02*
X0107622Y0030225D01*
X0108968Y0031823D02*
X0089632Y0031823D01*
X0090376Y0035020D02*
X0108224Y0035020D01*
X0107314Y0036619D02*
X0091286Y0036619D01*
X0091500Y0038217D02*
X0107100Y0038217D01*
X0107452Y0039816D02*
X0091148Y0039816D01*
X0090041Y0041414D02*
X0108559Y0041414D01*
X0108633Y0044611D02*
X0089967Y0044611D01*
X0091117Y0046210D02*
X0107483Y0046210D01*
X0107100Y0047808D02*
X0091500Y0047808D01*
X0091317Y0049407D02*
X0107283Y0049407D01*
X0108150Y0051005D02*
X0090450Y0051005D01*
X0087926Y0052604D02*
X0110674Y0052604D01*
X0110785Y0053450D02*
X0109094Y0054150D01*
X0107800Y0055444D01*
X0107100Y0057135D01*
X0107100Y0058965D01*
X0107800Y0060656D01*
X0109094Y0061950D01*
X0110785Y0062650D01*
X0117815Y0062650D01*
X0119506Y0061950D01*
X0120800Y0060656D01*
X0121500Y0058965D01*
X0121500Y0057135D01*
X0120800Y0055444D01*
X0119506Y0054150D01*
X0117815Y0053450D01*
X0110785Y0053450D01*
X0109042Y0054202D02*
X0089558Y0054202D01*
X0090947Y0055801D02*
X0107653Y0055801D01*
X0107100Y0057399D02*
X0091500Y0057399D01*
X0091486Y0058998D02*
X0107114Y0058998D01*
X0107776Y0060596D02*
X0090824Y0060596D01*
X0088914Y0062195D02*
X0109686Y0062195D01*
X0110011Y0063972D02*
X0110670Y0063758D01*
X0111354Y0063650D01*
X0114300Y0063650D01*
X0117246Y0063650D01*
X0117930Y0063758D01*
X0118589Y0063972D01*
X0119206Y0064287D01*
X0119766Y0064694D01*
X0120256Y0065184D01*
X0120663Y0065744D01*
X0120978Y0066361D01*
X0121192Y0067020D01*
X0121300Y0067704D01*
X0121300Y0068050D01*
X0121300Y0068396D01*
X0121192Y0069080D01*
X0120978Y0069739D01*
X0120663Y0070356D01*
X0120256Y0070916D01*
X0119766Y0071406D01*
X0119206Y0071813D01*
X0118589Y0072128D01*
X0117930Y0072342D01*
X0117246Y0072450D01*
X0114300Y0072450D01*
X0114300Y0068050D01*
X0114300Y0068050D01*
X0121300Y0068050D01*
X0114300Y0068050D01*
X0114300Y0068050D01*
X0114300Y0063650D01*
X0114300Y0068050D01*
X0114300Y0068050D01*
X0114300Y0068050D01*
X0107300Y0068050D01*
X0107300Y0068396D01*
X0107408Y0069080D01*
X0107622Y0069739D01*
X0107937Y0070356D01*
X0108344Y0070916D01*
X0108834Y0071406D01*
X0109394Y0071813D01*
X0110011Y0072128D01*
X0110670Y0072342D01*
X0111354Y0072450D01*
X0114300Y0072450D01*
X0114300Y0068050D01*
X0107300Y0068050D01*
X0107300Y0067704D01*
X0107408Y0067020D01*
X0107622Y0066361D01*
X0107937Y0065744D01*
X0108344Y0065184D01*
X0108834Y0064694D01*
X0109394Y0064287D01*
X0110011Y0063972D01*
X0110562Y0063793D02*
X0088644Y0063793D01*
X0090747Y0065392D02*
X0108192Y0065392D01*
X0107418Y0066990D02*
X0091440Y0066990D01*
X0091500Y0068589D02*
X0107331Y0068589D01*
X0107851Y0070187D02*
X0090994Y0070187D01*
X0089669Y0071786D02*
X0109356Y0071786D01*
X0108262Y0074983D02*
X0090338Y0074983D01*
X0091271Y0076582D02*
X0107329Y0076582D01*
X0107100Y0078180D02*
X0091500Y0078180D01*
X0091163Y0079779D02*
X0107437Y0079779D01*
X0108522Y0081377D02*
X0090078Y0081377D01*
X0088589Y0083972D02*
X0087930Y0083758D01*
X0087246Y0083650D01*
X0084300Y0083650D01*
X0084300Y0088050D01*
X0084300Y0088050D01*
X0084300Y0092450D01*
X0087246Y0092450D01*
X0087930Y0092342D01*
X0088589Y0092128D01*
X0089206Y0091813D01*
X0089766Y0091406D01*
X0090256Y0090916D01*
X0090663Y0090356D01*
X0090978Y0089739D01*
X0091192Y0089080D01*
X0091300Y0088396D01*
X0091300Y0088050D01*
X0084300Y0088050D01*
X0084300Y0088050D01*
X0084300Y0088050D01*
X0084300Y0088050D01*
X0077300Y0088050D01*
X0077300Y0088396D01*
X0077408Y0089080D01*
X0077622Y0089739D01*
X0077937Y0090356D01*
X0078344Y0090916D01*
X0078834Y0091406D01*
X0079394Y0091813D01*
X0080011Y0092128D01*
X0080670Y0092342D01*
X0081354Y0092450D01*
X0084300Y0092450D01*
X0084300Y0088050D01*
X0091300Y0088050D01*
X0091300Y0087704D01*
X0091192Y0087020D01*
X0090978Y0086361D01*
X0090663Y0085744D01*
X0090256Y0085184D01*
X0089766Y0084694D01*
X0089206Y0084287D01*
X0088589Y0083972D01*
X0089602Y0084574D02*
X0108671Y0084574D01*
X0107499Y0086173D02*
X0090882Y0086173D01*
X0091300Y0087771D02*
X0107100Y0087771D01*
X0107268Y0089370D02*
X0091098Y0089370D01*
X0090204Y0090968D02*
X0108113Y0090968D01*
X0110584Y0092567D02*
X0057100Y0092567D01*
X0057100Y0094165D02*
X0079079Y0094165D01*
X0079094Y0094150D02*
X0080785Y0093450D01*
X0087815Y0093450D01*
X0089506Y0094150D01*
X0090800Y0095444D01*
X0091500Y0097135D01*
X0091500Y0098965D01*
X0090800Y0100656D01*
X0089506Y0101950D01*
X0087815Y0102650D01*
X0080785Y0102650D01*
X0079094Y0101950D01*
X0077800Y0100656D01*
X0077100Y0098965D01*
X0077100Y0097135D01*
X0077800Y0095444D01*
X0079094Y0094150D01*
X0077668Y0095764D02*
X0057100Y0095764D01*
X0057100Y0097362D02*
X0077100Y0097362D01*
X0077100Y0098961D02*
X0057100Y0098961D01*
X0057100Y0100559D02*
X0077760Y0100559D01*
X0079597Y0102158D02*
X0057100Y0102158D01*
X0057100Y0103756D02*
X0080046Y0103756D01*
X0080785Y0103450D02*
X0079094Y0104150D01*
X0077800Y0105444D01*
X0077100Y0107135D01*
X0077100Y0108965D01*
X0077800Y0110656D01*
X0079094Y0111950D01*
X0080785Y0112650D01*
X0087815Y0112650D01*
X0089506Y0111950D01*
X0090800Y0110656D01*
X0091500Y0108965D01*
X0091500Y0107135D01*
X0090800Y0105444D01*
X0089506Y0104150D01*
X0087815Y0103450D01*
X0080785Y0103450D01*
X0077890Y0105355D02*
X0057100Y0105355D01*
X0057100Y0106953D02*
X0077175Y0106953D01*
X0077100Y0108552D02*
X0057100Y0108552D01*
X0057100Y0110150D02*
X0077591Y0110150D01*
X0078893Y0111749D02*
X0057100Y0111749D01*
X0057100Y0113347D02*
X0102750Y0113347D01*
X0102750Y0111749D02*
X0089707Y0111749D01*
X0091009Y0110150D02*
X0102750Y0110150D01*
X0102750Y0108552D02*
X0091500Y0108552D01*
X0091425Y0106953D02*
X0102750Y0106953D01*
X0102750Y0105355D02*
X0090710Y0105355D01*
X0088554Y0103756D02*
X0103384Y0103756D01*
X0104982Y0102158D02*
X0089003Y0102158D01*
X0090840Y0100559D02*
X0106581Y0100559D01*
X0107100Y0098961D02*
X0091500Y0098961D01*
X0091500Y0097362D02*
X0107100Y0097362D01*
X0107668Y0095764D02*
X0090932Y0095764D01*
X0089521Y0094165D02*
X0109079Y0094165D01*
X0113050Y0098050D02*
X0114300Y0098050D01*
X0113050Y0098050D02*
X0105550Y0105550D01*
X0105550Y0120550D01*
X0103050Y0123050D01*
X0073050Y0123050D01*
X0026800Y0169300D01*
X0030019Y0170894D02*
X0034292Y0170894D01*
X0034387Y0170708D02*
X0034792Y0170151D01*
X0035279Y0169664D01*
X0035836Y0169259D01*
X0036449Y0168946D01*
X0037104Y0168734D01*
X0037784Y0168626D01*
X0038129Y0168626D01*
X0038473Y0168626D01*
X0039153Y0168734D01*
X0039808Y0168946D01*
X0040422Y0169259D01*
X0040979Y0169664D01*
X0041466Y0170151D01*
X0041870Y0170708D01*
X0042183Y0171321D01*
X0042396Y0171976D01*
X0042504Y0172656D01*
X0042504Y0173001D01*
X0042504Y0173345D01*
X0042396Y0174025D01*
X0042183Y0174680D01*
X0041870Y0175294D01*
X0041466Y0175851D01*
X0041307Y0176009D01*
X0042007Y0176709D01*
X0042704Y0178390D01*
X0042704Y0180210D01*
X0042007Y0181891D01*
X0041449Y0182450D01*
X0041749Y0182750D01*
X0059857Y0182750D01*
X0060886Y0183176D01*
X0063386Y0185676D01*
X0064174Y0186464D01*
X0064600Y0187493D01*
X0064600Y0188130D01*
X0065737Y0189267D01*
X0067779Y0187225D01*
X0071569Y0187225D01*
X0073333Y0188989D01*
X0075490Y0186831D01*
X0079606Y0186831D01*
X0082517Y0189742D01*
X0082517Y0193858D01*
X0079606Y0196768D01*
X0075490Y0196768D01*
X0073333Y0194611D01*
X0071569Y0196375D01*
X0067779Y0196375D01*
X0065737Y0194333D01*
X0063695Y0196375D01*
X0059905Y0196375D01*
X0057863Y0194333D01*
X0055821Y0196375D01*
X0052031Y0196375D01*
X0050267Y0194611D01*
X0048110Y0196768D01*
X0043994Y0196768D01*
X0041083Y0193858D01*
X0041083Y0189742D01*
X0042475Y0188350D01*
X0041848Y0188350D01*
X0040720Y0189478D01*
X0039039Y0190174D01*
X0037219Y0190174D01*
X0035537Y0189478D01*
X0034250Y0188191D01*
X0033767Y0187024D01*
X0032494Y0187024D01*
X0030813Y0186328D01*
X0029526Y0185041D01*
X0028830Y0183360D01*
X0028830Y0181540D01*
X0029526Y0179858D01*
X0030084Y0179300D01*
X0029526Y0178742D01*
X0028830Y0177060D01*
X0028830Y0175240D01*
X0029526Y0173559D01*
X0030813Y0172272D01*
X0032494Y0171576D01*
X0033992Y0171576D01*
X0034074Y0171321D01*
X0034387Y0170708D01*
X0035786Y0169295D02*
X0030765Y0169295D01*
X0032363Y0167697D02*
X0049900Y0167697D01*
X0049900Y0168050D02*
X0049900Y0166227D01*
X0052477Y0163650D01*
X0054300Y0163650D01*
X0056123Y0163650D01*
X0058700Y0166227D01*
X0058700Y0168050D01*
X0058700Y0169873D01*
X0056123Y0172450D01*
X0054300Y0172450D01*
X0054300Y0168050D01*
X0054300Y0168050D01*
X0058700Y0168050D01*
X0054300Y0168050D01*
X0054300Y0168050D01*
X0054300Y0168050D01*
X0049900Y0168050D01*
X0049900Y0169873D01*
X0052477Y0172450D01*
X0054300Y0172450D01*
X0054300Y0168050D01*
X0054300Y0163650D01*
X0054300Y0168050D01*
X0054300Y0168050D01*
X0049900Y0168050D01*
X0049900Y0169295D02*
X0040471Y0169295D01*
X0041965Y0170894D02*
X0050921Y0170894D01*
X0052395Y0173450D02*
X0056205Y0173450D01*
X0058900Y0176145D01*
X0058900Y0179955D01*
X0056205Y0182650D01*
X0052395Y0182650D01*
X0049700Y0179955D01*
X0049700Y0176145D01*
X0052395Y0173450D01*
X0051754Y0174091D02*
X0042375Y0174091D01*
X0042504Y0173001D02*
X0038129Y0173001D01*
X0038129Y0173001D01*
X0042504Y0173001D01*
X0042478Y0172492D02*
X0092750Y0172492D01*
X0092750Y0170894D02*
X0057679Y0170894D01*
X0058700Y0169295D02*
X0092750Y0169295D01*
X0092750Y0167697D02*
X0058700Y0167697D01*
X0058571Y0166098D02*
X0092750Y0166098D01*
X0092750Y0164500D02*
X0056972Y0164500D01*
X0054300Y0164500D02*
X0054300Y0164500D01*
X0054300Y0166098D02*
X0054300Y0166098D01*
X0054300Y0167697D02*
X0054300Y0167697D01*
X0054300Y0169295D02*
X0054300Y0169295D01*
X0054300Y0170894D02*
X0054300Y0170894D01*
X0056846Y0174091D02*
X0092750Y0174091D01*
X0092750Y0175689D02*
X0058445Y0175689D01*
X0058900Y0177288D02*
X0092750Y0177288D01*
X0092750Y0178886D02*
X0058900Y0178886D01*
X0058371Y0180485D02*
X0092750Y0180485D01*
X0090550Y0181150D02*
X0090550Y0185550D01*
X0090550Y0185550D01*
X0090550Y0185550D01*
X0086150Y0185550D01*
X0086150Y0187373D01*
X0088727Y0189950D01*
X0090550Y0189950D01*
X0090550Y0185550D01*
X0086150Y0185550D01*
X0086150Y0183727D01*
X0088727Y0181150D01*
X0090550Y0181150D01*
X0090550Y0182083D02*
X0090550Y0182083D01*
X0090550Y0183682D02*
X0090550Y0183682D01*
X0090550Y0185280D02*
X0090550Y0185280D01*
X0090550Y0186879D02*
X0090550Y0186879D01*
X0090550Y0188477D02*
X0090550Y0188477D01*
X0092019Y0190076D02*
X0082517Y0190076D01*
X0082517Y0191674D02*
X0090950Y0191674D01*
X0090950Y0193273D02*
X0082517Y0193273D01*
X0081503Y0194871D02*
X0090950Y0194871D01*
X0092464Y0196470D02*
X0079905Y0196470D01*
X0075191Y0196470D02*
X0048409Y0196470D01*
X0050007Y0194871D02*
X0050528Y0194871D01*
X0057324Y0194871D02*
X0058402Y0194871D01*
X0061800Y0191800D02*
X0061800Y0188050D01*
X0059300Y0185550D01*
X0040678Y0185550D01*
X0038129Y0185599D01*
X0034537Y0188477D02*
X0023620Y0188477D01*
X0024798Y0190076D02*
X0036982Y0190076D01*
X0039276Y0190076D02*
X0041083Y0190076D01*
X0041083Y0191674D02*
X0025461Y0191674D01*
X0025660Y0193273D02*
X0041083Y0193273D01*
X0042097Y0194871D02*
X0025660Y0194871D01*
X0025128Y0196470D02*
X0043695Y0196470D01*
X0042348Y0188477D02*
X0041720Y0188477D01*
X0041815Y0182083D02*
X0051828Y0182083D01*
X0050229Y0180485D02*
X0042590Y0180485D01*
X0042704Y0178886D02*
X0049700Y0178886D01*
X0049700Y0177288D02*
X0042247Y0177288D01*
X0041583Y0175689D02*
X0050155Y0175689D01*
X0056772Y0182083D02*
X0087794Y0182083D01*
X0086196Y0183682D02*
X0061392Y0183682D01*
X0062990Y0185280D02*
X0086150Y0185280D01*
X0086150Y0186879D02*
X0079653Y0186879D01*
X0081252Y0188477D02*
X0087255Y0188477D01*
X0095550Y0193050D02*
X0095550Y0153050D01*
X0105550Y0143050D01*
X0103009Y0140522D02*
X0090855Y0140522D01*
X0091500Y0138923D02*
X0107100Y0138923D01*
X0107100Y0137325D02*
X0091500Y0137325D01*
X0089093Y0142120D02*
X0102055Y0142120D01*
X0100921Y0143719D02*
X0088464Y0143719D01*
X0087815Y0143450D02*
X0089506Y0144150D01*
X0090800Y0145444D01*
X0091500Y0147135D01*
X0091500Y0148965D01*
X0090800Y0150656D01*
X0089506Y0151950D01*
X0087815Y0152650D01*
X0080785Y0152650D01*
X0079094Y0151950D01*
X0077800Y0150656D01*
X0077100Y0148965D01*
X0077100Y0147135D01*
X0077800Y0145444D01*
X0079094Y0144150D01*
X0080785Y0143450D01*
X0087815Y0143450D01*
X0090673Y0145318D02*
X0099323Y0145318D01*
X0097724Y0146916D02*
X0091409Y0146916D01*
X0091500Y0148515D02*
X0096126Y0148515D01*
X0094527Y0150113D02*
X0091024Y0150113D01*
X0089744Y0151712D02*
X0093074Y0151712D01*
X0092750Y0153310D02*
X0059250Y0153310D01*
X0060848Y0151712D02*
X0078856Y0151712D01*
X0077576Y0150113D02*
X0062447Y0150113D01*
X0064045Y0148515D02*
X0077100Y0148515D01*
X0077191Y0146916D02*
X0065644Y0146916D01*
X0067242Y0145318D02*
X0077927Y0145318D01*
X0080136Y0143719D02*
X0068841Y0143719D01*
X0070439Y0142120D02*
X0079507Y0142120D01*
X0077745Y0140522D02*
X0072038Y0140522D01*
X0073636Y0138923D02*
X0077100Y0138923D01*
X0077100Y0137325D02*
X0075235Y0137325D01*
X0075550Y0133050D02*
X0131800Y0133050D01*
X0136800Y0128050D01*
X0136800Y0096800D01*
X0128050Y0088050D01*
X0114300Y0088050D01*
X0118016Y0092567D02*
X0128607Y0092567D01*
X0130205Y0094165D02*
X0119521Y0094165D01*
X0120932Y0095764D02*
X0131804Y0095764D01*
X0133402Y0097362D02*
X0121500Y0097362D01*
X0121500Y0098961D02*
X0134000Y0098961D01*
X0134000Y0100559D02*
X0120840Y0100559D01*
X0119003Y0102158D02*
X0134000Y0102158D01*
X0134000Y0103756D02*
X0118554Y0103756D01*
X0120710Y0105355D02*
X0134000Y0105355D01*
X0134000Y0106953D02*
X0121425Y0106953D01*
X0121500Y0108552D02*
X0134000Y0108552D01*
X0134000Y0110150D02*
X0121009Y0110150D01*
X0119707Y0111749D02*
X0134000Y0111749D01*
X0134000Y0113347D02*
X0108350Y0113347D01*
X0108350Y0111749D02*
X0108893Y0111749D01*
X0102750Y0114946D02*
X0090301Y0114946D01*
X0091255Y0116544D02*
X0102750Y0116544D01*
X0102750Y0118143D02*
X0091500Y0118143D01*
X0091178Y0119741D02*
X0102399Y0119741D01*
X0105523Y0124537D02*
X0108708Y0124537D01*
X0107514Y0126135D02*
X0091086Y0126135D01*
X0091500Y0127734D02*
X0107100Y0127734D01*
X0107252Y0129332D02*
X0091348Y0129332D01*
X0077252Y0129332D02*
X0070727Y0129332D01*
X0072326Y0127734D02*
X0077100Y0127734D01*
X0077514Y0126135D02*
X0073924Y0126135D01*
X0073709Y0130931D02*
X0069129Y0130931D01*
X0067530Y0132529D02*
X0072111Y0132529D01*
X0070512Y0134128D02*
X0065932Y0134128D01*
X0064333Y0135726D02*
X0068914Y0135726D01*
X0067315Y0137325D02*
X0062735Y0137325D01*
X0061136Y0138923D02*
X0065717Y0138923D01*
X0064118Y0140522D02*
X0059538Y0140522D01*
X0057939Y0142120D02*
X0062520Y0142120D01*
X0060921Y0143719D02*
X0056341Y0143719D01*
X0054742Y0145318D02*
X0059323Y0145318D01*
X0057724Y0146916D02*
X0053144Y0146916D01*
X0051545Y0148515D02*
X0056126Y0148515D01*
X0054527Y0150113D02*
X0049947Y0150113D01*
X0048348Y0151712D02*
X0052929Y0151712D01*
X0051330Y0153310D02*
X0046750Y0153310D01*
X0045151Y0154909D02*
X0049732Y0154909D01*
X0048133Y0156507D02*
X0043553Y0156507D01*
X0041954Y0158106D02*
X0046535Y0158106D01*
X0043827Y0159704D02*
X0040356Y0159704D01*
X0038757Y0161303D02*
X0043216Y0161303D01*
X0043377Y0162901D02*
X0037159Y0162901D01*
X0035560Y0164500D02*
X0044431Y0164500D01*
X0046800Y0161800D02*
X0075550Y0133050D01*
X0067603Y0124537D02*
X0057100Y0124537D01*
X0057100Y0126135D02*
X0066005Y0126135D01*
X0064406Y0127734D02*
X0057100Y0127734D01*
X0057100Y0129332D02*
X0062808Y0129332D01*
X0061209Y0130931D02*
X0056629Y0130931D01*
X0055030Y0132529D02*
X0059611Y0132529D01*
X0058012Y0134128D02*
X0053432Y0134128D01*
X0051833Y0135726D02*
X0056414Y0135726D01*
X0054815Y0137325D02*
X0050235Y0137325D01*
X0048636Y0138923D02*
X0053217Y0138923D01*
X0051618Y0140522D02*
X0047038Y0140522D01*
X0045439Y0142120D02*
X0050020Y0142120D01*
X0048421Y0143719D02*
X0043841Y0143719D01*
X0042242Y0145318D02*
X0046823Y0145318D01*
X0045224Y0146916D02*
X0040644Y0146916D01*
X0039045Y0148515D02*
X0043626Y0148515D01*
X0042027Y0150113D02*
X0038056Y0150113D01*
X0037236Y0151712D02*
X0040429Y0151712D01*
X0038830Y0153310D02*
X0003800Y0153310D01*
X0003800Y0151712D02*
X0031364Y0151712D01*
X0030544Y0150113D02*
X0003800Y0150113D01*
X0003800Y0148515D02*
X0028446Y0148515D01*
X0027236Y0146916D02*
X0003800Y0146916D01*
X0003800Y0145318D02*
X0026358Y0145318D01*
X0024759Y0143719D02*
X0008009Y0143719D01*
X0005591Y0143719D02*
X0003800Y0143719D01*
X0010791Y0142120D02*
X0023161Y0142120D01*
X0021562Y0140522D02*
X0011946Y0140522D01*
X0012500Y0138923D02*
X0019964Y0138923D01*
X0018365Y0137325D02*
X0012500Y0137325D01*
X0012007Y0135726D02*
X0016767Y0135726D01*
X0015466Y0134128D02*
X0010939Y0134128D01*
X0010382Y0132529D02*
X0015250Y0132529D01*
X0015250Y0130931D02*
X0011776Y0130931D01*
X0012438Y0129332D02*
X0015250Y0129332D01*
X0015250Y0127734D02*
X0012500Y0127734D01*
X0012177Y0126135D02*
X0015250Y0126135D01*
X0015250Y0124537D02*
X0011348Y0124537D01*
X0009893Y0122938D02*
X0015250Y0122938D01*
X0015250Y0121340D02*
X0011571Y0121340D01*
X0012269Y0119741D02*
X0015250Y0119741D01*
X0015250Y0118143D02*
X0012500Y0118143D01*
X0012346Y0116544D02*
X0015250Y0116544D01*
X0015250Y0114946D02*
X0011684Y0114946D01*
X0010158Y0113347D02*
X0015250Y0113347D01*
X0015250Y0111749D02*
X0011162Y0111749D01*
X0012100Y0110150D02*
X0015250Y0110150D01*
X0015250Y0108552D02*
X0012500Y0108552D01*
X0012500Y0106953D02*
X0015250Y0106953D01*
X0015250Y0105355D02*
X0011853Y0105355D01*
X0010567Y0103756D02*
X0015250Y0103756D01*
X0015250Y0102158D02*
X0010753Y0102158D01*
X0011930Y0100559D02*
X0015250Y0100559D01*
X0015250Y0098961D02*
X0012500Y0098961D01*
X0012500Y0097362D02*
X0015250Y0097362D01*
X0015250Y0095764D02*
X0012023Y0095764D01*
X0010976Y0094165D02*
X0015250Y0094165D01*
X0015250Y0092567D02*
X0010344Y0092567D01*
X0011761Y0090968D02*
X0015250Y0090968D01*
X0015250Y0089370D02*
X0012423Y0089370D01*
X0012500Y0087771D02*
X0015250Y0087771D01*
X0015250Y0086173D02*
X0012192Y0086173D01*
X0011385Y0084574D02*
X0015250Y0084574D01*
X0015250Y0082976D02*
X0009803Y0082976D01*
X0011534Y0081377D02*
X0015250Y0081377D01*
X0018050Y0078050D02*
X0018050Y0133050D01*
X0030550Y0145550D01*
X0034134Y0145318D02*
X0034323Y0145318D01*
X0033671Y0143719D02*
X0035921Y0143719D01*
X0037520Y0142120D02*
X0031637Y0142120D01*
X0029482Y0140522D02*
X0039118Y0140522D01*
X0040717Y0138923D02*
X0027883Y0138923D01*
X0026285Y0137325D02*
X0042315Y0137325D01*
X0043914Y0135726D02*
X0024686Y0135726D01*
X0023088Y0134128D02*
X0045512Y0134128D01*
X0047111Y0132529D02*
X0021489Y0132529D01*
X0020850Y0130931D02*
X0048709Y0130931D01*
X0050308Y0129332D02*
X0020850Y0129332D01*
X0020850Y0127734D02*
X0051500Y0127734D01*
X0051500Y0126135D02*
X0020850Y0126135D01*
X0020850Y0124537D02*
X0051500Y0124537D01*
X0051500Y0122938D02*
X0020850Y0122938D01*
X0020850Y0121340D02*
X0051500Y0121340D01*
X0051500Y0119741D02*
X0020850Y0119741D01*
X0020850Y0118143D02*
X0051500Y0118143D01*
X0051500Y0116544D02*
X0020850Y0116544D01*
X0020850Y0114946D02*
X0051500Y0114946D01*
X0051500Y0113347D02*
X0020850Y0113347D01*
X0020850Y0111749D02*
X0051500Y0111749D01*
X0051500Y0110150D02*
X0020850Y0110150D01*
X0020850Y0108552D02*
X0051500Y0108552D01*
X0051500Y0106953D02*
X0020850Y0106953D01*
X0020850Y0105355D02*
X0051500Y0105355D01*
X0051500Y0103756D02*
X0020850Y0103756D01*
X0020850Y0102158D02*
X0051500Y0102158D01*
X0051500Y0100559D02*
X0020850Y0100559D01*
X0020850Y0098961D02*
X0051500Y0098961D01*
X0051500Y0097362D02*
X0020850Y0097362D01*
X0020850Y0095764D02*
X0051500Y0095764D01*
X0051500Y0094165D02*
X0020850Y0094165D01*
X0020850Y0092567D02*
X0051500Y0092567D01*
X0051500Y0090968D02*
X0020850Y0090968D01*
X0020850Y0089370D02*
X0051500Y0089370D01*
X0051500Y0087771D02*
X0020850Y0087771D01*
X0020850Y0086173D02*
X0051500Y0086173D01*
X0051500Y0084574D02*
X0020850Y0084574D01*
X0020850Y0082976D02*
X0051500Y0082976D01*
X0051500Y0081377D02*
X0020850Y0081377D01*
X0020850Y0079779D02*
X0051500Y0079779D01*
X0051500Y0078180D02*
X0021880Y0078180D01*
X0023478Y0076582D02*
X0051500Y0076582D01*
X0051500Y0074983D02*
X0025077Y0074983D01*
X0026675Y0073384D02*
X0051500Y0073384D01*
X0051500Y0071786D02*
X0028274Y0071786D01*
X0031122Y0070187D02*
X0051500Y0070187D01*
X0051500Y0068589D02*
X0032100Y0068589D01*
X0032100Y0066990D02*
X0051500Y0066990D01*
X0051500Y0065392D02*
X0032100Y0065392D01*
X0032100Y0063793D02*
X0051500Y0063793D01*
X0051500Y0062195D02*
X0040410Y0062195D01*
X0039955Y0062650D02*
X0042650Y0059955D01*
X0042650Y0056145D01*
X0039955Y0053450D01*
X0036145Y0053450D01*
X0033450Y0056145D01*
X0033450Y0059955D01*
X0036145Y0062650D01*
X0039955Y0062650D01*
X0042009Y0060596D02*
X0051768Y0060596D01*
X0053142Y0058998D02*
X0042650Y0058998D01*
X0042650Y0057399D02*
X0048394Y0057399D01*
X0046795Y0055801D02*
X0042306Y0055801D01*
X0040708Y0054202D02*
X0045950Y0054202D01*
X0045950Y0052604D02*
X0032100Y0052604D01*
X0032100Y0054202D02*
X0035392Y0054202D01*
X0033794Y0055801D02*
X0032100Y0055801D01*
X0032100Y0057399D02*
X0033450Y0057399D01*
X0033450Y0058998D02*
X0032100Y0058998D01*
X0032100Y0060596D02*
X0034091Y0060596D01*
X0035690Y0062195D02*
X0032100Y0062195D01*
X0026500Y0062195D02*
X0003800Y0062195D01*
X0003917Y0063346D02*
X0004689Y0062953D01*
X0005512Y0062685D01*
X0006367Y0062550D01*
X0006600Y0062550D01*
X0006600Y0067850D01*
X0007000Y0067850D01*
X0007000Y0068250D01*
X0012300Y0068250D01*
X0012300Y0068483D01*
X0012165Y0069338D01*
X0011897Y0070161D01*
X0011504Y0070933D01*
X0010995Y0071633D01*
X0010383Y0072245D01*
X0009683Y0072754D01*
X0009336Y0072931D01*
X0010029Y0073218D01*
X0011632Y0074821D01*
X0011810Y0075250D01*
X0016890Y0075250D01*
X0025676Y0066464D01*
X0026464Y0065676D01*
X0026500Y0065661D01*
X0026500Y0059855D01*
X0024955Y0061400D01*
X0021145Y0061400D01*
X0018450Y0058705D01*
X0018450Y0054895D01*
X0021145Y0052200D01*
X0024955Y0052200D01*
X0026500Y0053745D01*
X0026500Y0047960D01*
X0010640Y0032100D01*
X0009993Y0032100D01*
X0008964Y0031674D01*
X0008176Y0030886D01*
X0007750Y0029857D01*
X0007750Y0022493D01*
X0008176Y0021464D01*
X0016995Y0012646D01*
X0014531Y0010183D01*
X0014531Y0008392D01*
X0019116Y0008392D01*
X0019116Y0008023D01*
X0014531Y0008023D01*
X0014531Y0006232D01*
X0015714Y0005050D01*
X0003800Y0005050D01*
X0003800Y0063431D01*
X0003917Y0063346D01*
X0003800Y0060596D02*
X0010341Y0060596D01*
X0011145Y0061400D02*
X0008450Y0058705D01*
X0008450Y0054895D01*
X0011145Y0052200D01*
X0014955Y0052200D01*
X0017650Y0054895D01*
X0017650Y0058705D01*
X0014955Y0061400D01*
X0011145Y0061400D01*
X0009683Y0063346D02*
X0010383Y0063855D01*
X0010995Y0064467D01*
X0011504Y0065167D01*
X0011897Y0065939D01*
X0012165Y0066762D01*
X0012300Y0067617D01*
X0012300Y0067850D01*
X0007000Y0067850D01*
X0007000Y0062550D01*
X0007233Y0062550D01*
X0008088Y0062685D01*
X0008911Y0062953D01*
X0009683Y0063346D01*
X0010298Y0063793D02*
X0026500Y0063793D01*
X0026500Y0065392D02*
X0011618Y0065392D01*
X0012201Y0066990D02*
X0025150Y0066990D01*
X0023551Y0068589D02*
X0012283Y0068589D01*
X0011884Y0070187D02*
X0021953Y0070187D01*
X0020354Y0071786D02*
X0010842Y0071786D01*
X0010196Y0073384D02*
X0018756Y0073384D01*
X0017157Y0074983D02*
X0011699Y0074983D01*
X0006800Y0078050D02*
X0018050Y0078050D01*
X0028050Y0068050D01*
X0029300Y0068050D01*
X0029300Y0046800D01*
X0011800Y0029300D01*
X0010550Y0029300D01*
X0010550Y0023050D01*
X0020550Y0013050D01*
X0040550Y0013050D01*
X0042831Y0015838D02*
X0046833Y0015838D01*
X0045950Y0014955D02*
X0048645Y0017650D01*
X0052455Y0017650D01*
X0055150Y0014955D01*
X0055150Y0011145D01*
X0052455Y0008450D01*
X0048645Y0008450D01*
X0045950Y0011145D01*
X0045950Y0014955D01*
X0045950Y0014240D02*
X0044134Y0014240D01*
X0044134Y0012641D02*
X0045950Y0012641D01*
X0046052Y0011043D02*
X0043611Y0011043D01*
X0047651Y0009444D02*
X0024068Y0009444D01*
X0024068Y0007846D02*
X0079532Y0007846D01*
X0078650Y0008727D02*
X0081227Y0006150D01*
X0083050Y0006150D01*
X0083050Y0010550D01*
X0078650Y0010550D01*
X0078650Y0008727D01*
X0078650Y0009444D02*
X0053449Y0009444D01*
X0055048Y0011043D02*
X0078650Y0011043D01*
X0076800Y0014300D02*
X0065550Y0014300D01*
X0064300Y0015550D01*
X0064300Y0051800D01*
X0054300Y0061800D01*
X0054300Y0129300D01*
X0034300Y0149300D01*
X0037232Y0154909D02*
X0003800Y0154909D01*
X0003800Y0156507D02*
X0035633Y0156507D01*
X0034035Y0158106D02*
X0021461Y0158106D01*
X0023587Y0159704D02*
X0032436Y0159704D01*
X0030838Y0161303D02*
X0024785Y0161303D01*
X0025447Y0162901D02*
X0029239Y0162901D01*
X0027641Y0164500D02*
X0025660Y0164500D01*
X0023581Y0170894D02*
X0022849Y0170894D01*
X0025141Y0172492D02*
X0019680Y0172492D01*
X0016420Y0172492D02*
X0003800Y0172492D01*
X0003800Y0170894D02*
X0013251Y0170894D01*
X0011653Y0169295D02*
X0003800Y0169295D01*
X0003800Y0167697D02*
X0010959Y0167697D01*
X0010440Y0166098D02*
X0003800Y0166098D01*
X0003800Y0164500D02*
X0010440Y0164500D01*
X0010653Y0162901D02*
X0003800Y0162901D01*
X0003800Y0161303D02*
X0011315Y0161303D01*
X0012513Y0159704D02*
X0003800Y0159704D01*
X0003800Y0158106D02*
X0014639Y0158106D01*
X0003800Y0174091D02*
X0029306Y0174091D01*
X0028830Y0175689D02*
X0003800Y0175689D01*
X0003800Y0177288D02*
X0028924Y0177288D01*
X0029670Y0178886D02*
X0003800Y0178886D01*
X0003800Y0180485D02*
X0029266Y0180485D01*
X0028830Y0182083D02*
X0003800Y0182083D01*
X0003800Y0183682D02*
X0028963Y0183682D01*
X0029765Y0185280D02*
X0003800Y0185280D01*
X0003800Y0186879D02*
X0014559Y0186879D01*
X0012480Y0188477D02*
X0003800Y0188477D01*
X0003800Y0190076D02*
X0011302Y0190076D01*
X0010639Y0191674D02*
X0003800Y0191674D01*
X0003800Y0193273D02*
X0010440Y0193273D01*
X0010440Y0194871D02*
X0003800Y0194871D01*
X0003800Y0196470D02*
X0010972Y0196470D01*
X0021541Y0186879D02*
X0032143Y0186879D01*
X0030593Y0172492D02*
X0028459Y0172492D01*
X0033962Y0166098D02*
X0050029Y0166098D01*
X0049169Y0164500D02*
X0051628Y0164500D01*
X0050223Y0162901D02*
X0092750Y0162901D01*
X0092750Y0161303D02*
X0090153Y0161303D01*
X0089506Y0161950D02*
X0087815Y0162650D01*
X0080785Y0162650D01*
X0079094Y0161950D01*
X0077800Y0160656D01*
X0077100Y0158965D01*
X0077100Y0157135D01*
X0077800Y0155444D01*
X0079094Y0154150D01*
X0080785Y0153450D01*
X0087815Y0153450D01*
X0089506Y0154150D01*
X0090800Y0155444D01*
X0091500Y0157135D01*
X0091500Y0158965D01*
X0090800Y0160656D01*
X0089506Y0161950D01*
X0091194Y0159704D02*
X0092750Y0159704D01*
X0092750Y0158106D02*
X0091500Y0158106D01*
X0091240Y0156507D02*
X0092750Y0156507D01*
X0092750Y0154909D02*
X0090264Y0154909D01*
X0098350Y0154909D02*
X0108336Y0154909D01*
X0107360Y0156507D02*
X0098350Y0156507D01*
X0098350Y0158106D02*
X0107100Y0158106D01*
X0107406Y0159704D02*
X0098350Y0159704D01*
X0098350Y0161303D02*
X0108447Y0161303D01*
X0114300Y0158050D02*
X0120550Y0164300D01*
X0120550Y0184300D01*
X0117082Y0180485D02*
X0098350Y0180485D01*
X0098350Y0178886D02*
X0117750Y0178886D01*
X0117750Y0177288D02*
X0098350Y0177288D01*
X0098350Y0175689D02*
X0117750Y0175689D01*
X0117750Y0174091D02*
X0098350Y0174091D01*
X0098350Y0172492D02*
X0117750Y0172492D01*
X0117750Y0170894D02*
X0098350Y0170894D01*
X0098350Y0169295D02*
X0117750Y0169295D01*
X0117750Y0167697D02*
X0098350Y0167697D01*
X0098350Y0166098D02*
X0117750Y0166098D01*
X0116790Y0164500D02*
X0098350Y0164500D01*
X0098350Y0162901D02*
X0115191Y0162901D01*
X0121512Y0161303D02*
X0126047Y0161303D01*
X0127395Y0162650D02*
X0124700Y0159955D01*
X0124700Y0156145D01*
X0127395Y0153450D01*
X0131205Y0153450D01*
X0133900Y0156145D01*
X0133900Y0159955D01*
X0131205Y0162650D01*
X0127395Y0162650D01*
X0124700Y0159704D02*
X0121194Y0159704D01*
X0121500Y0158106D02*
X0124700Y0158106D01*
X0124700Y0156507D02*
X0121240Y0156507D01*
X0120264Y0154909D02*
X0125936Y0154909D01*
X0127477Y0152450D02*
X0124900Y0149873D01*
X0124900Y0148050D01*
X0129300Y0148050D01*
X0129300Y0148050D01*
X0129300Y0152450D01*
X0131123Y0152450D01*
X0133700Y0149873D01*
X0133700Y0148050D01*
X0129300Y0148050D01*
X0129300Y0148050D01*
X0129300Y0148050D01*
X0129300Y0152450D01*
X0127477Y0152450D01*
X0126739Y0151712D02*
X0119346Y0151712D01*
X0120787Y0150113D02*
X0125141Y0150113D01*
X0124900Y0148515D02*
X0121281Y0148515D01*
X0121158Y0146916D02*
X0124900Y0146916D01*
X0124900Y0146227D02*
X0124900Y0148050D01*
X0129300Y0148050D01*
X0133700Y0148050D01*
X0133700Y0146227D01*
X0131123Y0143650D01*
X0129300Y0143650D01*
X0129300Y0148050D01*
X0129300Y0148050D01*
X0129300Y0143650D01*
X0127477Y0143650D01*
X0124900Y0146227D01*
X0125810Y0145318D02*
X0120353Y0145318D01*
X0117682Y0143719D02*
X0127408Y0143719D01*
X0129300Y0143719D02*
X0129300Y0143719D01*
X0129300Y0145318D02*
X0129300Y0145318D01*
X0129300Y0146916D02*
X0129300Y0146916D01*
X0129300Y0148515D02*
X0129300Y0148515D01*
X0129300Y0150113D02*
X0129300Y0150113D01*
X0129300Y0151712D02*
X0129300Y0151712D01*
X0131861Y0151712D02*
X0174002Y0151712D01*
X0172856Y0150113D02*
X0133459Y0150113D01*
X0133700Y0148515D02*
X0172750Y0148515D01*
X0172750Y0146916D02*
X0133700Y0146916D01*
X0132790Y0145318D02*
X0138999Y0145318D01*
X0138216Y0143719D02*
X0131192Y0143719D01*
X0138305Y0142120D02*
X0119093Y0142120D01*
X0120855Y0140522D02*
X0139259Y0140522D01*
X0141967Y0138923D02*
X0121500Y0138923D01*
X0121500Y0137325D02*
X0143565Y0137325D01*
X0145164Y0135726D02*
X0132655Y0135726D01*
X0134682Y0134128D02*
X0146762Y0134128D01*
X0148361Y0132529D02*
X0136280Y0132529D01*
X0137879Y0130931D02*
X0149959Y0130931D01*
X0151558Y0129332D02*
X0139300Y0129332D01*
X0139600Y0127734D02*
X0153156Y0127734D01*
X0154755Y0126135D02*
X0139600Y0126135D01*
X0139600Y0124537D02*
X0156353Y0124537D01*
X0157952Y0122938D02*
X0139600Y0122938D01*
X0139600Y0121340D02*
X0159550Y0121340D01*
X0157879Y0130931D02*
X0163850Y0130931D01*
X0163216Y0132529D02*
X0156280Y0132529D01*
X0154682Y0134128D02*
X0163367Y0134128D01*
X0164408Y0135726D02*
X0153083Y0135726D01*
X0151485Y0137325D02*
X0167115Y0137325D01*
X0168714Y0138923D02*
X0149886Y0138923D01*
X0148288Y0140522D02*
X0170312Y0140522D01*
X0171911Y0142120D02*
X0146689Y0142120D01*
X0145384Y0143719D02*
X0172750Y0143719D01*
X0172750Y0145318D02*
X0144601Y0145318D01*
X0141800Y0143050D02*
X0170550Y0114300D01*
X0170550Y0093050D01*
X0185550Y0078050D01*
X0194300Y0078050D01*
X0190904Y0073384D02*
X0142885Y0073384D01*
X0144483Y0074983D02*
X0189401Y0074983D01*
X0190258Y0071786D02*
X0119244Y0071786D01*
X0120749Y0070187D02*
X0189216Y0070187D01*
X0188817Y0068589D02*
X0121269Y0068589D01*
X0121182Y0066990D02*
X0188899Y0066990D01*
X0189482Y0065392D02*
X0120407Y0065392D01*
X0118038Y0063793D02*
X0190802Y0063793D01*
X0194100Y0063793D02*
X0194500Y0063793D01*
X0194500Y0065392D02*
X0194100Y0065392D01*
X0194100Y0066990D02*
X0194500Y0066990D01*
X0196650Y0062195D02*
X0118914Y0062195D01*
X0120824Y0060596D02*
X0196650Y0060596D01*
X0196650Y0058998D02*
X0121486Y0058998D01*
X0121500Y0057399D02*
X0196650Y0057399D01*
X0196650Y0055801D02*
X0120947Y0055801D01*
X0119558Y0054202D02*
X0196650Y0054202D01*
X0196650Y0052604D02*
X0117926Y0052604D01*
X0120450Y0051005D02*
X0196650Y0051005D01*
X0196650Y0049407D02*
X0121317Y0049407D01*
X0121500Y0047808D02*
X0196650Y0047808D01*
X0196650Y0046210D02*
X0121117Y0046210D01*
X0119632Y0031823D02*
X0196650Y0031823D01*
X0196650Y0030225D02*
X0120978Y0030225D01*
X0121500Y0028626D02*
X0196650Y0028626D01*
X0196650Y0027028D02*
X0121456Y0027028D01*
X0120785Y0025429D02*
X0196650Y0025429D01*
X0196650Y0023831D02*
X0118734Y0023831D01*
X0121145Y0015150D02*
X0118450Y0012455D01*
X0118450Y0008645D01*
X0121145Y0005950D01*
X0124955Y0005950D01*
X0126755Y0007750D01*
X0131107Y0007750D01*
X0132136Y0008176D01*
X0134210Y0010250D01*
X0170595Y0010250D01*
X0172395Y0008450D01*
X0176205Y0008450D01*
X0178900Y0011145D01*
X0178900Y0014955D01*
X0176205Y0017650D01*
X0172395Y0017650D01*
X0170595Y0015850D01*
X0132493Y0015850D01*
X0131464Y0015424D01*
X0130676Y0014636D01*
X0129390Y0013350D01*
X0126755Y0013350D01*
X0124955Y0015150D01*
X0121145Y0015150D01*
X0120234Y0014240D02*
X0085583Y0014240D01*
X0087181Y0012641D02*
X0118636Y0012641D01*
X0118450Y0011043D02*
X0087450Y0011043D01*
X0087450Y0009444D02*
X0118450Y0009444D01*
X0119249Y0007846D02*
X0086568Y0007846D01*
X0084970Y0006247D02*
X0120848Y0006247D01*
X0125252Y0006247D02*
X0196650Y0006247D01*
X0196650Y0007846D02*
X0131338Y0007846D01*
X0133404Y0009444D02*
X0171401Y0009444D01*
X0174300Y0013050D02*
X0133050Y0013050D01*
X0130550Y0010550D01*
X0123050Y0010550D01*
X0125866Y0014240D02*
X0130280Y0014240D01*
X0132464Y0015838D02*
X0082298Y0015838D01*
X0083050Y0014240D02*
X0083050Y0014240D01*
X0083050Y0012641D02*
X0083050Y0012641D01*
X0083050Y0011043D02*
X0083050Y0011043D01*
X0083050Y0009444D02*
X0083050Y0009444D01*
X0083050Y0007846D02*
X0083050Y0007846D01*
X0083050Y0006247D02*
X0083050Y0006247D01*
X0081130Y0006247D02*
X0024068Y0006247D01*
X0016990Y0012641D02*
X0003800Y0012641D01*
X0003800Y0011043D02*
X0015391Y0011043D01*
X0014531Y0009444D02*
X0003800Y0009444D01*
X0003800Y0007846D02*
X0014531Y0007846D01*
X0014531Y0006247D02*
X0003800Y0006247D01*
X0003800Y0014240D02*
X0015401Y0014240D01*
X0013802Y0015838D02*
X0003800Y0015838D01*
X0003800Y0017437D02*
X0012204Y0017437D01*
X0010605Y0019035D02*
X0003800Y0019035D01*
X0003800Y0020634D02*
X0009007Y0020634D01*
X0007858Y0022232D02*
X0003800Y0022232D01*
X0003800Y0023831D02*
X0007750Y0023831D01*
X0007750Y0025429D02*
X0003800Y0025429D01*
X0003800Y0027028D02*
X0007750Y0027028D01*
X0007750Y0028626D02*
X0003800Y0028626D01*
X0003800Y0030225D02*
X0007902Y0030225D01*
X0009325Y0031823D02*
X0003800Y0031823D01*
X0003800Y0033422D02*
X0011962Y0033422D01*
X0013560Y0035020D02*
X0003800Y0035020D01*
X0003800Y0036619D02*
X0015159Y0036619D01*
X0016757Y0038217D02*
X0003800Y0038217D01*
X0003800Y0039816D02*
X0018356Y0039816D01*
X0019954Y0041414D02*
X0003800Y0041414D01*
X0003800Y0043013D02*
X0021553Y0043013D01*
X0023152Y0044611D02*
X0003800Y0044611D01*
X0003800Y0046210D02*
X0024750Y0046210D01*
X0026349Y0047808D02*
X0003800Y0047808D01*
X0003800Y0049407D02*
X0026500Y0049407D01*
X0026500Y0051005D02*
X0003800Y0051005D01*
X0003800Y0052604D02*
X0010741Y0052604D01*
X0009142Y0054202D02*
X0003800Y0054202D01*
X0003800Y0055801D02*
X0008450Y0055801D01*
X0008450Y0057399D02*
X0003800Y0057399D01*
X0003800Y0058998D02*
X0008743Y0058998D01*
X0007000Y0063793D02*
X0006600Y0063793D01*
X0006600Y0065392D02*
X0007000Y0065392D01*
X0007000Y0066990D02*
X0006600Y0066990D01*
X0015759Y0060596D02*
X0020341Y0060596D01*
X0018743Y0058998D02*
X0017357Y0058998D01*
X0017650Y0057399D02*
X0018450Y0057399D01*
X0018450Y0055801D02*
X0017650Y0055801D01*
X0016958Y0054202D02*
X0019142Y0054202D01*
X0020741Y0052604D02*
X0015359Y0052604D01*
X0025359Y0052604D02*
X0026500Y0052604D01*
X0032100Y0051005D02*
X0046089Y0051005D01*
X0047688Y0049407D02*
X0032100Y0049407D01*
X0032100Y0047808D02*
X0047750Y0047808D01*
X0047750Y0046210D02*
X0032086Y0046210D01*
X0031071Y0044611D02*
X0046902Y0044611D01*
X0045303Y0043013D02*
X0029473Y0043013D01*
X0027874Y0041414D02*
X0043704Y0041414D01*
X0042106Y0039816D02*
X0026276Y0039816D01*
X0026957Y0036800D02*
X0043050Y0036800D01*
X0050550Y0044300D01*
X0050550Y0053050D01*
X0053412Y0049407D02*
X0061500Y0049407D01*
X0061500Y0047808D02*
X0053350Y0047808D01*
X0053350Y0046210D02*
X0061500Y0046210D01*
X0061500Y0044611D02*
X0053350Y0044611D01*
X0053048Y0043013D02*
X0061500Y0043013D01*
X0061500Y0041414D02*
X0051624Y0041414D01*
X0050026Y0039816D02*
X0061500Y0039816D01*
X0061500Y0038217D02*
X0048427Y0038217D01*
X0046829Y0036619D02*
X0061500Y0036619D01*
X0061500Y0035020D02*
X0045230Y0035020D01*
X0040090Y0022232D02*
X0061500Y0022232D01*
X0061500Y0020634D02*
X0041689Y0020634D01*
X0042450Y0019035D02*
X0061500Y0019035D01*
X0061500Y0017437D02*
X0052669Y0017437D01*
X0054267Y0015838D02*
X0061500Y0015838D01*
X0061812Y0014240D02*
X0055150Y0014240D01*
X0055150Y0012641D02*
X0063249Y0012641D01*
X0061500Y0023831D02*
X0022265Y0023831D01*
X0023863Y0025429D02*
X0061500Y0025429D01*
X0061500Y0027028D02*
X0024268Y0027028D01*
X0024268Y0028626D02*
X0061500Y0028626D01*
X0061500Y0030225D02*
X0024997Y0030225D01*
X0026371Y0031823D02*
X0061500Y0031823D01*
X0061500Y0033422D02*
X0027746Y0033422D01*
X0026957Y0036800D02*
X0019300Y0027893D01*
X0016335Y0023831D02*
X0013729Y0023831D01*
X0013350Y0025429D02*
X0014737Y0025429D01*
X0014331Y0027028D02*
X0013487Y0027028D01*
X0015328Y0022232D02*
X0036010Y0022232D01*
X0038050Y0022232D02*
X0038050Y0022232D01*
X0038050Y0020634D02*
X0038050Y0020634D01*
X0038050Y0019035D02*
X0038050Y0019035D01*
X0034411Y0020634D02*
X0016926Y0020634D01*
X0018525Y0019035D02*
X0033650Y0019035D01*
X0033650Y0017437D02*
X0020123Y0017437D01*
X0042450Y0017437D02*
X0048431Y0017437D01*
X0067100Y0023831D02*
X0069797Y0023831D01*
X0068198Y0025429D02*
X0067100Y0025429D01*
X0067100Y0027028D02*
X0067400Y0027028D01*
X0067400Y0028626D02*
X0067100Y0028626D01*
X0067100Y0030225D02*
X0067752Y0030225D01*
X0067100Y0031823D02*
X0069351Y0031823D01*
X0075848Y0030225D02*
X0077622Y0030225D01*
X0077100Y0028626D02*
X0076200Y0028626D01*
X0076200Y0027028D02*
X0077144Y0027028D01*
X0077815Y0025429D02*
X0075402Y0025429D01*
X0083896Y0017437D02*
X0172181Y0017437D01*
X0176419Y0017437D02*
X0182181Y0017437D01*
X0182395Y0017650D02*
X0179700Y0014955D01*
X0179700Y0011145D01*
X0182395Y0008450D01*
X0186205Y0008450D01*
X0188900Y0011145D01*
X0188900Y0014955D01*
X0186205Y0017650D01*
X0182395Y0017650D01*
X0180583Y0015838D02*
X0178017Y0015838D01*
X0178900Y0014240D02*
X0179700Y0014240D01*
X0179700Y0012641D02*
X0178900Y0012641D01*
X0178798Y0011043D02*
X0179802Y0011043D01*
X0181401Y0009444D02*
X0177199Y0009444D01*
X0186419Y0017437D02*
X0196650Y0017437D01*
X0196650Y0019035D02*
X0085495Y0019035D01*
X0086848Y0020634D02*
X0196650Y0020634D01*
X0196650Y0022232D02*
X0087100Y0022232D01*
X0061135Y0051005D02*
X0055011Y0051005D01*
X0055150Y0052604D02*
X0059536Y0052604D01*
X0057938Y0054202D02*
X0055150Y0054202D01*
X0054304Y0055801D02*
X0056339Y0055801D01*
X0054741Y0057399D02*
X0052706Y0057399D01*
X0057100Y0071786D02*
X0078931Y0071786D01*
X0078262Y0074983D02*
X0072420Y0074983D01*
X0072425Y0076582D02*
X0074309Y0076582D01*
X0072710Y0078180D02*
X0072425Y0078180D01*
X0069513Y0081377D02*
X0057100Y0081377D01*
X0057100Y0079779D02*
X0064842Y0079779D01*
X0063675Y0078180D02*
X0057100Y0078180D01*
X0057100Y0076582D02*
X0063675Y0076582D01*
X0063675Y0076800D02*
X0063675Y0074988D01*
X0066238Y0072425D01*
X0068050Y0072425D01*
X0068050Y0076800D01*
X0068050Y0076800D01*
X0063675Y0076800D01*
X0063680Y0074983D02*
X0057100Y0074983D01*
X0057100Y0073384D02*
X0065279Y0073384D01*
X0068050Y0073384D02*
X0068050Y0073384D01*
X0068050Y0074983D02*
X0068050Y0074983D01*
X0068050Y0076582D02*
X0068050Y0076582D01*
X0068050Y0078180D02*
X0068050Y0078180D01*
X0068050Y0079779D02*
X0068050Y0079779D01*
X0065247Y0082976D02*
X0057100Y0082976D01*
X0057100Y0084574D02*
X0063649Y0084574D01*
X0063475Y0086173D02*
X0057100Y0086173D01*
X0057100Y0087771D02*
X0063475Y0087771D01*
X0064307Y0089370D02*
X0057100Y0089370D01*
X0057100Y0090968D02*
X0065906Y0090968D01*
X0070194Y0090968D02*
X0078396Y0090968D01*
X0077502Y0089370D02*
X0071793Y0089370D01*
X0072625Y0087771D02*
X0077300Y0087771D01*
X0077300Y0087704D02*
X0077408Y0087020D01*
X0077622Y0086361D01*
X0077937Y0085744D01*
X0078344Y0085184D01*
X0078834Y0084694D01*
X0079394Y0084287D01*
X0080011Y0083972D01*
X0080670Y0083758D01*
X0081354Y0083650D01*
X0084300Y0083650D01*
X0084300Y0088050D01*
X0077300Y0088050D01*
X0077300Y0087704D01*
X0077718Y0086173D02*
X0072637Y0086173D01*
X0074236Y0084574D02*
X0078998Y0084574D01*
X0078522Y0081377D02*
X0077433Y0081377D01*
X0075834Y0082976D02*
X0128984Y0082976D01*
X0132116Y0082976D02*
X0138475Y0082976D01*
X0140550Y0082976D02*
X0140550Y0082976D01*
X0140550Y0081377D02*
X0140550Y0081377D01*
X0140550Y0079779D02*
X0140550Y0079779D01*
X0140550Y0078180D02*
X0140550Y0078180D01*
X0140550Y0076582D02*
X0140550Y0076582D01*
X0140550Y0074983D02*
X0140550Y0074983D01*
X0140550Y0073384D02*
X0140550Y0073384D01*
X0138215Y0073384D02*
X0132744Y0073384D01*
X0134766Y0074983D02*
X0136617Y0074983D01*
X0135600Y0076582D02*
X0135516Y0076582D01*
X0135408Y0079779D02*
X0135600Y0079779D01*
X0134506Y0081377D02*
X0136877Y0081377D01*
X0142625Y0082976D02*
X0176665Y0082976D01*
X0178263Y0081377D02*
X0144223Y0081377D01*
X0145500Y0079779D02*
X0179862Y0079779D01*
X0181460Y0078180D02*
X0145500Y0078180D01*
X0145500Y0076582D02*
X0183059Y0076582D01*
X0134000Y0114946D02*
X0120301Y0114946D01*
X0121255Y0116544D02*
X0134000Y0116544D01*
X0134000Y0118143D02*
X0121500Y0118143D01*
X0121178Y0119741D02*
X0134000Y0119741D01*
X0134000Y0121340D02*
X0120116Y0121340D01*
X0119892Y0124537D02*
X0134000Y0124537D01*
X0134000Y0126135D02*
X0121086Y0126135D01*
X0121500Y0127734D02*
X0133156Y0127734D01*
X0131558Y0129332D02*
X0121348Y0129332D01*
X0134000Y0122938D02*
X0107121Y0122938D01*
X0108254Y0121340D02*
X0108484Y0121340D01*
X0109045Y0142120D02*
X0109507Y0142120D01*
X0109134Y0143719D02*
X0110918Y0143719D01*
X0114300Y0143719D02*
X0114300Y0143719D01*
X0114300Y0145318D02*
X0114300Y0145318D01*
X0114300Y0146916D02*
X0114300Y0146916D01*
X0114300Y0148515D02*
X0114300Y0148515D01*
X0114300Y0150113D02*
X0114300Y0150113D01*
X0114300Y0151712D02*
X0114300Y0151712D01*
X0109254Y0151712D02*
X0100848Y0151712D01*
X0099250Y0153310D02*
X0175600Y0153310D01*
X0177199Y0154909D02*
X0132664Y0154909D01*
X0133900Y0156507D02*
X0178797Y0156507D01*
X0180396Y0158106D02*
X0133900Y0158106D01*
X0133900Y0159704D02*
X0181994Y0159704D01*
X0181558Y0161303D02*
X0183593Y0161303D01*
X0183157Y0162901D02*
X0185191Y0162901D01*
X0183900Y0164500D02*
X0190189Y0164500D01*
X0191070Y0166098D02*
X0183900Y0166098D01*
X0183659Y0167697D02*
X0189581Y0167697D01*
X0188930Y0169295D02*
X0182060Y0169295D01*
X0181943Y0170894D02*
X0188800Y0170894D01*
X0189148Y0172492D02*
X0181943Y0172492D01*
X0181943Y0174091D02*
X0190074Y0174091D01*
X0191140Y0175689D02*
X0181943Y0175689D01*
X0181943Y0177288D02*
X0189501Y0177288D01*
X0188820Y0178886D02*
X0181943Y0178886D01*
X0181943Y0180485D02*
X0188600Y0180485D01*
X0188765Y0182083D02*
X0181943Y0182083D01*
X0183051Y0183682D02*
X0189428Y0183682D01*
X0190550Y0186800D02*
X0179143Y0186800D01*
X0179143Y0165550D01*
X0179300Y0165550D01*
X0175443Y0162901D02*
X0143157Y0162901D01*
X0143900Y0163645D02*
X0141205Y0160950D01*
X0137395Y0160950D01*
X0134700Y0163645D01*
X0134700Y0167455D01*
X0137395Y0170150D01*
X0139940Y0170150D01*
X0140250Y0170460D01*
X0140250Y0181845D01*
X0138450Y0183645D01*
X0138450Y0187455D01*
X0141145Y0190150D01*
X0144955Y0190150D01*
X0147650Y0187455D01*
X0147650Y0184910D01*
X0151710Y0180850D01*
X0167357Y0180850D01*
X0168386Y0180424D01*
X0171979Y0176831D01*
X0172552Y0176831D01*
X0173942Y0176255D01*
X0175005Y0175192D01*
X0175581Y0173802D01*
X0175581Y0172298D01*
X0175005Y0170908D01*
X0173942Y0169845D01*
X0172552Y0169269D01*
X0171048Y0169269D01*
X0169658Y0169845D01*
X0168595Y0170908D01*
X0168019Y0172298D01*
X0168019Y0172871D01*
X0165640Y0175250D01*
X0149993Y0175250D01*
X0148964Y0175676D01*
X0148176Y0176464D01*
X0145850Y0178790D01*
X0145850Y0168743D01*
X0145424Y0167714D01*
X0144636Y0166926D01*
X0143900Y0166190D01*
X0143900Y0163645D01*
X0143900Y0164500D02*
X0174700Y0164500D01*
X0174700Y0166098D02*
X0143900Y0166098D01*
X0145406Y0167697D02*
X0174941Y0167697D01*
X0176343Y0169295D02*
X0172616Y0169295D01*
X0170984Y0169295D02*
X0145850Y0169295D01*
X0145850Y0170894D02*
X0168609Y0170894D01*
X0168019Y0172492D02*
X0145850Y0172492D01*
X0145850Y0174091D02*
X0166799Y0174091D01*
X0166800Y0178050D02*
X0171800Y0173050D01*
X0174508Y0175689D02*
X0176343Y0175689D01*
X0176343Y0174091D02*
X0175462Y0174091D01*
X0175581Y0172492D02*
X0176343Y0172492D01*
X0176343Y0170894D02*
X0174991Y0170894D01*
X0176343Y0177288D02*
X0171522Y0177288D01*
X0169924Y0178886D02*
X0176343Y0178886D01*
X0176343Y0180485D02*
X0168239Y0180485D01*
X0166800Y0178050D02*
X0150550Y0178050D01*
X0143050Y0185550D01*
X0143050Y0169300D01*
X0139300Y0165550D01*
X0136540Y0169295D02*
X0123350Y0169295D01*
X0123350Y0167697D02*
X0134941Y0167697D01*
X0134700Y0166098D02*
X0123350Y0166098D01*
X0123350Y0164500D02*
X0134700Y0164500D01*
X0135443Y0162901D02*
X0123001Y0162901D01*
X0123350Y0170894D02*
X0140250Y0170894D01*
X0140250Y0172492D02*
X0123350Y0172492D01*
X0123350Y0174091D02*
X0140250Y0174091D01*
X0140250Y0175689D02*
X0123350Y0175689D01*
X0123350Y0177288D02*
X0140250Y0177288D01*
X0140250Y0178886D02*
X0123350Y0178886D01*
X0124018Y0180485D02*
X0140250Y0180485D01*
X0140011Y0182083D02*
X0125206Y0182083D01*
X0125700Y0183682D02*
X0138450Y0183682D01*
X0138450Y0185280D02*
X0125700Y0185280D01*
X0125056Y0186879D02*
X0138450Y0186879D01*
X0139472Y0188477D02*
X0123656Y0188477D01*
X0123326Y0190076D02*
X0141070Y0190076D01*
X0141227Y0191150D02*
X0143050Y0191150D01*
X0143050Y0195550D01*
X0138650Y0195550D01*
X0138650Y0193727D01*
X0141227Y0191150D01*
X0140703Y0191674D02*
X0124925Y0191674D01*
X0125500Y0193273D02*
X0139105Y0193273D01*
X0138650Y0194871D02*
X0125500Y0194871D01*
X0125380Y0196470D02*
X0138650Y0196470D01*
X0143050Y0194871D02*
X0143050Y0194871D01*
X0143050Y0193273D02*
X0143050Y0193273D01*
X0143050Y0191674D02*
X0143050Y0191674D01*
X0145397Y0191674D02*
X0176990Y0191674D01*
X0175392Y0190076D02*
X0162925Y0190076D01*
X0164226Y0188775D02*
X0161433Y0191568D01*
X0159642Y0191568D01*
X0159642Y0186984D01*
X0164226Y0186984D01*
X0164226Y0188775D01*
X0164226Y0188477D02*
X0174174Y0188477D01*
X0174174Y0186879D02*
X0159642Y0186879D01*
X0159642Y0186984D02*
X0159642Y0186616D01*
X0164226Y0186616D01*
X0164226Y0184825D01*
X0161433Y0182031D01*
X0159642Y0182031D01*
X0159642Y0186616D01*
X0159273Y0186616D01*
X0154689Y0186616D01*
X0154689Y0184825D01*
X0157482Y0182031D01*
X0159273Y0182031D01*
X0159273Y0186616D01*
X0159273Y0186984D01*
X0154689Y0186984D01*
X0154689Y0188775D01*
X0157482Y0191568D01*
X0159273Y0191568D01*
X0159273Y0186984D01*
X0159642Y0186984D01*
X0159273Y0186879D02*
X0147650Y0186879D01*
X0147650Y0185280D02*
X0154689Y0185280D01*
X0155832Y0183682D02*
X0148878Y0183682D01*
X0150477Y0182083D02*
X0157431Y0182083D01*
X0159273Y0182083D02*
X0159642Y0182083D01*
X0159642Y0183682D02*
X0159273Y0183682D01*
X0159273Y0185280D02*
X0159642Y0185280D01*
X0159642Y0188477D02*
X0159273Y0188477D01*
X0159273Y0190076D02*
X0159642Y0190076D01*
X0155990Y0190076D02*
X0145030Y0190076D01*
X0146628Y0188477D02*
X0154689Y0188477D01*
X0146995Y0193273D02*
X0189258Y0193273D01*
X0188600Y0191674D02*
X0181295Y0191674D01*
X0182893Y0190076D02*
X0188600Y0190076D01*
X0190550Y0186800D02*
X0194300Y0190550D01*
X0190560Y0194871D02*
X0147450Y0194871D01*
X0147450Y0196470D02*
X0196650Y0196470D01*
X0179300Y0186643D02*
X0179143Y0186800D01*
X0175234Y0183682D02*
X0163083Y0183682D01*
X0164226Y0185280D02*
X0174174Y0185280D01*
X0176343Y0182083D02*
X0161484Y0182083D01*
X0148951Y0175689D02*
X0145850Y0175689D01*
X0145850Y0177288D02*
X0147352Y0177288D01*
X0141558Y0161303D02*
X0177042Y0161303D01*
X0186800Y0160550D02*
X0194300Y0160550D01*
X0186800Y0160550D02*
X0175550Y0149300D01*
X0175550Y0141800D01*
X0166800Y0133050D01*
X0137042Y0161303D02*
X0132553Y0161303D01*
X0115894Y0182083D02*
X0103589Y0182083D01*
X0105150Y0183682D02*
X0115400Y0183682D01*
X0115400Y0185280D02*
X0105150Y0185280D01*
X0105150Y0186879D02*
X0116044Y0186879D01*
X0117444Y0188477D02*
X0104128Y0188477D01*
X0102530Y0190076D02*
X0117774Y0190076D01*
X0116175Y0191674D02*
X0100150Y0191674D01*
X0100150Y0193273D02*
X0115600Y0193273D01*
X0115600Y0194871D02*
X0100150Y0194871D01*
X0098635Y0196470D02*
X0115720Y0196470D01*
X0078447Y0161303D02*
X0051257Y0161303D01*
X0052856Y0159704D02*
X0077406Y0159704D01*
X0077100Y0158106D02*
X0054454Y0158106D01*
X0056053Y0156507D02*
X0077360Y0156507D01*
X0078336Y0154909D02*
X0057651Y0154909D01*
X0038129Y0168626D02*
X0038129Y0173001D01*
X0038129Y0173001D01*
X0038129Y0168626D01*
X0038129Y0169295D02*
X0038129Y0169295D01*
X0038129Y0170894D02*
X0038129Y0170894D01*
X0038129Y0172492D02*
X0038129Y0172492D01*
X0064346Y0186879D02*
X0075443Y0186879D01*
X0073844Y0188477D02*
X0072821Y0188477D01*
X0066527Y0188477D02*
X0064947Y0188477D01*
X0065198Y0194871D02*
X0066276Y0194871D01*
X0073072Y0194871D02*
X0073593Y0194871D01*
X0102447Y0150113D02*
X0107813Y0150113D01*
X0107319Y0148515D02*
X0104045Y0148515D01*
X0105644Y0146916D02*
X0107442Y0146916D01*
X0077422Y0119741D02*
X0057100Y0119741D01*
X0057100Y0118143D02*
X0077100Y0118143D01*
X0077345Y0116544D02*
X0057100Y0116544D01*
X0057100Y0114946D02*
X0078299Y0114946D01*
X0070800Y0121340D02*
X0057100Y0121340D01*
X0057100Y0122938D02*
X0069202Y0122938D01*
X0084300Y0090968D02*
X0084300Y0090968D01*
X0084300Y0089370D02*
X0084300Y0089370D01*
X0084300Y0087771D02*
X0084300Y0087771D01*
X0084300Y0086173D02*
X0084300Y0086173D01*
X0084300Y0084574D02*
X0084300Y0084574D01*
X0084300Y0078050D02*
X0076800Y0078050D01*
X0068207Y0086643D01*
X0068050Y0086643D01*
X0075550Y0068050D02*
X0084300Y0068050D01*
X0079956Y0063793D02*
X0071356Y0063793D01*
X0114300Y0063793D02*
X0114300Y0063793D01*
X0114300Y0065392D02*
X0114300Y0065392D01*
X0114300Y0066990D02*
X0114300Y0066990D01*
X0114300Y0068589D02*
X0114300Y0068589D01*
X0114300Y0070187D02*
X0114300Y0070187D01*
X0114300Y0071786D02*
X0114300Y0071786D01*
X0120487Y0090968D02*
X0127008Y0090968D01*
X0188017Y0015838D02*
X0196650Y0015838D01*
X0196650Y0014240D02*
X0188900Y0014240D01*
X0188900Y0012641D02*
X0196650Y0012641D01*
X0196650Y0011043D02*
X0188798Y0011043D01*
X0187199Y0009444D02*
X0196650Y0009444D01*
X0026500Y0060596D02*
X0025759Y0060596D01*
D22*
X0040550Y0013050D03*
D23*
X0034300Y0149300D03*
X0171800Y0173050D03*
M02*
