G75*
%MOIN*%
%OFA0B0*%
%FSLAX25Y25*%
%IPPOS*%
%LPD*%
%AMOC8*
5,1,8,0,0,1.08239X$1,22.5*
%
%ADD10C,0.00000*%
%ADD11C,0.00300*%
%ADD12C,0.00400*%
%ADD13C,0.00600*%
%ADD14C,0.01200*%
%ADD15C,0.00800*%
%ADD16C,0.01000*%
%ADD17R,0.03400X0.02400*%
%ADD18R,0.02400X0.03400*%
%ADD19C,0.00500*%
D10*
X0001800Y0003050D02*
X0001800Y0199900D01*
X0198650Y0199900D01*
X0198650Y0003050D01*
X0001800Y0003050D01*
D11*
X0008684Y0033200D02*
X0009651Y0033200D01*
X0010135Y0033684D01*
X0010135Y0036102D01*
X0011147Y0035619D02*
X0011147Y0035135D01*
X0011630Y0034651D01*
X0012598Y0034651D01*
X0013081Y0034167D01*
X0013081Y0033684D01*
X0012598Y0033200D01*
X0011630Y0033200D01*
X0011147Y0033684D01*
X0011147Y0035619D02*
X0011630Y0036102D01*
X0012598Y0036102D01*
X0013081Y0035619D01*
X0014093Y0036102D02*
X0014093Y0033200D01*
X0016028Y0033200D01*
X0017040Y0033200D02*
X0017040Y0036102D01*
X0018491Y0036102D01*
X0018975Y0035619D01*
X0018975Y0034651D01*
X0018491Y0034167D01*
X0017040Y0034167D01*
X0018007Y0034167D02*
X0018975Y0033200D01*
X0016028Y0036102D02*
X0014093Y0036102D01*
X0014093Y0034651D02*
X0015061Y0034651D01*
X0008684Y0033200D02*
X0008200Y0033684D01*
X0008200Y0036102D01*
X0012434Y0044200D02*
X0013401Y0044200D01*
X0013885Y0044684D01*
X0013885Y0045651D01*
X0012917Y0045651D01*
X0011950Y0044684D02*
X0012434Y0044200D01*
X0011950Y0044684D02*
X0011950Y0046619D01*
X0012434Y0047102D01*
X0013401Y0047102D01*
X0013885Y0046619D01*
X0014897Y0046135D02*
X0014897Y0044200D01*
X0014897Y0045167D02*
X0015864Y0046135D01*
X0016348Y0046135D01*
X0017352Y0045651D02*
X0017836Y0046135D01*
X0018803Y0046135D01*
X0019287Y0045651D01*
X0019287Y0045167D01*
X0017352Y0045167D01*
X0017352Y0044684D02*
X0017352Y0045651D01*
X0017352Y0044684D02*
X0017836Y0044200D01*
X0018803Y0044200D01*
X0020298Y0044684D02*
X0020298Y0045651D01*
X0020782Y0046135D01*
X0021750Y0046135D01*
X0022233Y0045651D01*
X0022233Y0045167D01*
X0020298Y0045167D01*
X0020298Y0044684D02*
X0020782Y0044200D01*
X0021750Y0044200D01*
X0023245Y0044200D02*
X0023245Y0046135D01*
X0024696Y0046135D01*
X0025180Y0045651D01*
X0025180Y0044200D01*
X0028231Y0041081D02*
X0027748Y0040598D01*
X0027748Y0039630D01*
X0028231Y0039147D01*
X0028231Y0038135D02*
X0027748Y0037651D01*
X0027748Y0036200D01*
X0030650Y0036200D01*
X0029683Y0036200D02*
X0029683Y0037651D01*
X0029199Y0038135D01*
X0028231Y0038135D01*
X0029683Y0037167D02*
X0030650Y0038135D01*
X0030650Y0039147D02*
X0028715Y0041081D01*
X0028231Y0041081D01*
X0030650Y0041081D02*
X0030650Y0039147D01*
X0037498Y0036644D02*
X0037498Y0035677D01*
X0037981Y0035193D01*
X0039916Y0035193D01*
X0037981Y0037128D01*
X0039916Y0037128D01*
X0040400Y0036644D01*
X0040400Y0035677D01*
X0039916Y0035193D01*
X0039916Y0034181D02*
X0040400Y0033698D01*
X0040400Y0032730D01*
X0039916Y0032247D01*
X0039916Y0031235D02*
X0040400Y0030751D01*
X0040400Y0029784D01*
X0039916Y0029300D01*
X0038949Y0030267D02*
X0038949Y0030751D01*
X0039433Y0031235D01*
X0039916Y0031235D01*
X0038949Y0030751D02*
X0038465Y0031235D01*
X0037981Y0031235D01*
X0037498Y0030751D01*
X0037498Y0029784D01*
X0037981Y0029300D01*
X0037981Y0032247D02*
X0037498Y0032730D01*
X0037498Y0033698D01*
X0037981Y0034181D01*
X0038465Y0034181D01*
X0038949Y0033698D01*
X0039433Y0034181D01*
X0039916Y0034181D01*
X0038949Y0033698D02*
X0038949Y0033214D01*
X0037498Y0036644D02*
X0037981Y0037128D01*
X0048198Y0037182D02*
X0048198Y0038149D01*
X0048681Y0038633D01*
X0050616Y0036698D01*
X0051100Y0037182D01*
X0051100Y0038149D01*
X0050616Y0038633D01*
X0048681Y0038633D01*
X0048198Y0039645D02*
X0051100Y0039645D01*
X0050133Y0039645D02*
X0049165Y0041096D01*
X0050133Y0039645D02*
X0051100Y0041096D01*
X0050616Y0036698D02*
X0048681Y0036698D01*
X0048198Y0037182D01*
X0048198Y0034719D02*
X0051100Y0034719D01*
X0051100Y0033752D02*
X0051100Y0035687D01*
X0049165Y0033752D02*
X0048198Y0034719D01*
X0056698Y0034955D02*
X0056698Y0033987D01*
X0057181Y0033503D01*
X0057181Y0032492D02*
X0058149Y0032492D01*
X0058633Y0032008D01*
X0058633Y0030557D01*
X0059600Y0030557D02*
X0056698Y0030557D01*
X0056698Y0032008D01*
X0057181Y0032492D01*
X0058633Y0031524D02*
X0059600Y0032492D01*
X0059116Y0033503D02*
X0059600Y0033987D01*
X0059600Y0034955D01*
X0059116Y0035438D01*
X0058633Y0035438D01*
X0058149Y0034955D01*
X0058149Y0034471D01*
X0058149Y0034955D02*
X0057665Y0035438D01*
X0057181Y0035438D01*
X0056698Y0034955D01*
X0067450Y0043184D02*
X0067450Y0045119D01*
X0067934Y0045602D01*
X0068901Y0045602D01*
X0069385Y0045119D01*
X0067450Y0043184D01*
X0067934Y0042700D01*
X0068901Y0042700D01*
X0069385Y0043184D01*
X0069385Y0045119D01*
X0070397Y0043184D02*
X0070880Y0043184D01*
X0070880Y0042700D01*
X0070397Y0042700D01*
X0070397Y0043184D01*
X0071870Y0042700D02*
X0073805Y0042700D01*
X0072837Y0042700D02*
X0072837Y0045602D01*
X0071870Y0044635D01*
X0074816Y0044635D02*
X0074816Y0043184D01*
X0075300Y0042700D01*
X0076751Y0042700D01*
X0076751Y0044635D01*
X0077763Y0044151D02*
X0078730Y0044151D01*
X0077763Y0042700D02*
X0077763Y0045602D01*
X0079698Y0045602D01*
X0074348Y0023102D02*
X0072897Y0021651D01*
X0074831Y0021651D01*
X0074348Y0020200D02*
X0074348Y0023102D01*
X0071885Y0022619D02*
X0071401Y0023102D01*
X0070434Y0023102D01*
X0069950Y0022619D01*
X0069950Y0020684D01*
X0070434Y0020200D01*
X0071401Y0020200D01*
X0071885Y0020684D01*
X0094300Y0010619D02*
X0094784Y0011102D01*
X0095751Y0011102D01*
X0096235Y0010619D01*
X0096235Y0010135D01*
X0095751Y0009651D01*
X0096235Y0009167D01*
X0096235Y0008684D01*
X0095751Y0008200D01*
X0094784Y0008200D01*
X0094300Y0008684D01*
X0095267Y0009651D02*
X0095751Y0009651D01*
X0097247Y0008684D02*
X0097730Y0008200D01*
X0098698Y0008200D01*
X0099181Y0008684D01*
X0099181Y0009167D01*
X0098698Y0009651D01*
X0098214Y0009651D01*
X0098698Y0009651D02*
X0099181Y0010135D01*
X0099181Y0010619D01*
X0098698Y0011102D01*
X0097730Y0011102D01*
X0097247Y0010619D01*
X0100193Y0010619D02*
X0100677Y0011102D01*
X0101644Y0011102D01*
X0102128Y0010619D01*
X0100193Y0008684D01*
X0100677Y0008200D01*
X0101644Y0008200D01*
X0102128Y0008684D01*
X0102128Y0010619D01*
X0100193Y0010619D02*
X0100193Y0008684D01*
X0099950Y0016700D02*
X0099950Y0019602D01*
X0101401Y0019602D01*
X0101885Y0019119D01*
X0101885Y0018151D01*
X0101401Y0017667D01*
X0099950Y0017667D01*
X0100917Y0017667D02*
X0101885Y0016700D01*
X0102897Y0016700D02*
X0104831Y0016700D01*
X0103864Y0016700D02*
X0103864Y0019602D01*
X0102897Y0018635D01*
X0135200Y0064200D02*
X0137135Y0064200D01*
X0136167Y0064200D02*
X0136167Y0067102D01*
X0135200Y0066135D01*
X0138147Y0066619D02*
X0138147Y0064684D01*
X0140081Y0066619D01*
X0140081Y0064684D01*
X0139598Y0064200D01*
X0138630Y0064200D01*
X0138147Y0064684D01*
X0138147Y0066619D02*
X0138630Y0067102D01*
X0139598Y0067102D01*
X0140081Y0066619D01*
X0141093Y0066135D02*
X0141093Y0064684D01*
X0141577Y0064200D01*
X0143028Y0064200D01*
X0143028Y0066135D01*
X0144040Y0065651D02*
X0145007Y0065651D01*
X0144040Y0064200D02*
X0144040Y0067102D01*
X0145975Y0067102D01*
X0138647Y0089450D02*
X0138647Y0089934D01*
X0140581Y0091869D01*
X0140581Y0092352D01*
X0138647Y0092352D01*
X0137635Y0091869D02*
X0137151Y0092352D01*
X0136184Y0092352D01*
X0135700Y0091869D01*
X0135700Y0089934D01*
X0136184Y0089450D01*
X0137151Y0089450D01*
X0137635Y0089934D01*
X0180700Y0089852D02*
X0180700Y0086950D01*
X0182151Y0086950D01*
X0182635Y0087434D01*
X0182635Y0087917D01*
X0182151Y0088401D01*
X0180700Y0088401D01*
X0182151Y0088401D02*
X0182635Y0088885D01*
X0182635Y0089369D01*
X0182151Y0089852D01*
X0180700Y0089852D01*
X0183647Y0089852D02*
X0185581Y0089852D01*
X0185581Y0089369D01*
X0183647Y0087434D01*
X0183647Y0086950D01*
X0183647Y0079852D02*
X0183647Y0077917D01*
X0184614Y0076950D01*
X0185581Y0077917D01*
X0185581Y0079852D01*
X0182635Y0079852D02*
X0180700Y0079852D01*
X0180700Y0078401D01*
X0181667Y0078885D01*
X0182151Y0078885D01*
X0182635Y0078401D01*
X0182635Y0077434D01*
X0182151Y0076950D01*
X0181184Y0076950D01*
X0180700Y0077434D01*
X0180901Y0068602D02*
X0179934Y0068602D01*
X0179450Y0068119D01*
X0179450Y0066184D01*
X0179934Y0065700D01*
X0180901Y0065700D01*
X0181385Y0066184D01*
X0181385Y0067151D01*
X0180417Y0067151D01*
X0181385Y0068119D02*
X0180901Y0068602D01*
X0182397Y0068602D02*
X0184331Y0065700D01*
X0184331Y0068602D01*
X0185343Y0068602D02*
X0186794Y0068602D01*
X0187278Y0068119D01*
X0187278Y0066184D01*
X0186794Y0065700D01*
X0185343Y0065700D01*
X0185343Y0068602D01*
X0182397Y0068602D02*
X0182397Y0065700D01*
X0183574Y0061352D02*
X0184542Y0061352D01*
X0184058Y0061352D02*
X0184058Y0058934D01*
X0183574Y0058450D01*
X0183091Y0058450D01*
X0182607Y0058934D01*
X0185553Y0059901D02*
X0187488Y0059901D01*
X0187005Y0058450D02*
X0187005Y0061352D01*
X0185553Y0059901D01*
X0185098Y0096950D02*
X0184130Y0096950D01*
X0183647Y0097434D01*
X0183647Y0097917D01*
X0184130Y0098401D01*
X0185098Y0098401D01*
X0185581Y0097917D01*
X0185581Y0097434D01*
X0185098Y0096950D01*
X0185098Y0098401D02*
X0185581Y0098885D01*
X0185581Y0099369D01*
X0185098Y0099852D01*
X0184130Y0099852D01*
X0183647Y0099369D01*
X0183647Y0098885D01*
X0184130Y0098401D01*
X0182635Y0097917D02*
X0182635Y0097434D01*
X0182151Y0096950D01*
X0180700Y0096950D01*
X0180700Y0099852D01*
X0182151Y0099852D01*
X0182635Y0099369D01*
X0182635Y0098885D01*
X0182151Y0098401D01*
X0180700Y0098401D01*
X0182151Y0098401D02*
X0182635Y0097917D01*
X0182151Y0106950D02*
X0180700Y0106950D01*
X0180700Y0109852D01*
X0182151Y0109852D01*
X0182635Y0109369D01*
X0182635Y0108885D01*
X0182151Y0108401D01*
X0180700Y0108401D01*
X0182151Y0108401D02*
X0182635Y0107917D01*
X0182635Y0107434D01*
X0182151Y0106950D01*
X0183647Y0107434D02*
X0184130Y0106950D01*
X0185098Y0106950D01*
X0185581Y0107434D01*
X0185581Y0109369D01*
X0185098Y0109852D01*
X0184130Y0109852D01*
X0183647Y0109369D01*
X0183647Y0108885D01*
X0184130Y0108401D01*
X0185581Y0108401D01*
X0185581Y0116950D02*
X0183647Y0116950D01*
X0184614Y0116950D02*
X0184614Y0119852D01*
X0183647Y0118885D01*
X0182635Y0118885D02*
X0182635Y0119369D01*
X0182151Y0119852D01*
X0180700Y0119852D01*
X0180700Y0116950D01*
X0182151Y0116950D01*
X0182635Y0117434D01*
X0182635Y0117917D01*
X0182151Y0118401D01*
X0180700Y0118401D01*
X0182151Y0118401D02*
X0182635Y0118885D01*
X0186593Y0119369D02*
X0187077Y0119852D01*
X0188044Y0119852D01*
X0188528Y0119369D01*
X0188528Y0118885D01*
X0188044Y0118401D01*
X0188528Y0117917D01*
X0188528Y0117434D01*
X0188044Y0116950D01*
X0187077Y0116950D01*
X0186593Y0117434D01*
X0187561Y0118401D02*
X0188044Y0118401D01*
X0188044Y0126950D02*
X0188044Y0129852D01*
X0186593Y0128401D01*
X0188528Y0128401D01*
X0185581Y0126950D02*
X0183647Y0126950D01*
X0184614Y0126950D02*
X0184614Y0129852D01*
X0183647Y0128885D01*
X0182635Y0128885D02*
X0182151Y0128401D01*
X0180700Y0128401D01*
X0180700Y0126950D02*
X0182151Y0126950D01*
X0182635Y0127434D01*
X0182635Y0127917D01*
X0182151Y0128401D01*
X0182635Y0128885D02*
X0182635Y0129369D01*
X0182151Y0129852D01*
X0180700Y0129852D01*
X0180700Y0126950D01*
X0180700Y0136950D02*
X0182151Y0136950D01*
X0182635Y0137434D01*
X0182635Y0137917D01*
X0182151Y0138401D01*
X0180700Y0138401D01*
X0180700Y0136950D02*
X0180700Y0139852D01*
X0182151Y0139852D01*
X0182635Y0139369D01*
X0182635Y0138885D01*
X0182151Y0138401D01*
X0183647Y0138885D02*
X0184614Y0139852D01*
X0184614Y0136950D01*
X0183647Y0136950D02*
X0185581Y0136950D01*
X0186593Y0137434D02*
X0187077Y0136950D01*
X0188044Y0136950D01*
X0188528Y0137434D01*
X0188528Y0138401D01*
X0188044Y0138885D01*
X0187561Y0138885D01*
X0186593Y0138401D01*
X0186593Y0139852D01*
X0188528Y0139852D01*
X0167346Y0165000D02*
X0165895Y0165967D01*
X0167346Y0166935D01*
X0165895Y0167902D02*
X0165895Y0165000D01*
X0164883Y0165484D02*
X0164883Y0167419D01*
X0162948Y0165484D01*
X0163432Y0165000D01*
X0164399Y0165000D01*
X0164883Y0165484D01*
X0164883Y0167419D02*
X0164399Y0167902D01*
X0163432Y0167902D01*
X0162948Y0167419D01*
X0162948Y0165484D01*
X0161937Y0165000D02*
X0160002Y0165000D01*
X0160969Y0165000D02*
X0160969Y0167902D01*
X0160002Y0166935D01*
X0161205Y0158152D02*
X0159753Y0156701D01*
X0161688Y0156701D01*
X0161205Y0155250D02*
X0161205Y0158152D01*
X0158742Y0157669D02*
X0158742Y0156701D01*
X0158258Y0156217D01*
X0156807Y0156217D01*
X0156807Y0155250D02*
X0156807Y0158152D01*
X0158258Y0158152D01*
X0158742Y0157669D01*
X0157774Y0156217D02*
X0158742Y0155250D01*
X0137850Y0154791D02*
X0137850Y0155758D01*
X0137366Y0156242D01*
X0137850Y0157253D02*
X0135915Y0159188D01*
X0135431Y0159188D01*
X0134948Y0158705D01*
X0134948Y0157737D01*
X0135431Y0157253D01*
X0135431Y0156242D02*
X0134948Y0155758D01*
X0134948Y0154791D01*
X0135431Y0154307D01*
X0137366Y0154307D01*
X0137850Y0154791D01*
X0137850Y0157253D02*
X0137850Y0159188D01*
X0124350Y0156003D02*
X0121448Y0156003D01*
X0121448Y0157938D01*
X0122899Y0156971D02*
X0122899Y0156003D01*
X0122415Y0154992D02*
X0124350Y0154992D01*
X0124350Y0153541D01*
X0123866Y0153057D01*
X0122415Y0153057D01*
X0124350Y0152045D02*
X0124350Y0150110D01*
X0124350Y0151078D02*
X0121448Y0151078D01*
X0122415Y0150110D01*
X0123866Y0149121D02*
X0123866Y0148637D01*
X0124350Y0148637D01*
X0124350Y0149121D01*
X0123866Y0149121D01*
X0123866Y0147626D02*
X0121931Y0147626D01*
X0123866Y0145691D01*
X0124350Y0146174D01*
X0124350Y0147142D01*
X0123866Y0147626D01*
X0121931Y0147626D02*
X0121448Y0147142D01*
X0121448Y0146174D01*
X0121931Y0145691D01*
X0123866Y0145691D01*
X0106564Y0174450D02*
X0104629Y0174450D01*
X0106564Y0176385D01*
X0106564Y0176869D01*
X0106080Y0177352D01*
X0105113Y0177352D01*
X0104629Y0176869D01*
X0103618Y0176869D02*
X0103618Y0174934D01*
X0103134Y0174450D01*
X0102166Y0174450D01*
X0101683Y0174934D01*
X0103618Y0176869D01*
X0103134Y0177352D01*
X0102166Y0177352D01*
X0101683Y0176869D01*
X0101683Y0174934D01*
X0100671Y0176869D02*
X0098736Y0174934D01*
X0098736Y0174450D01*
X0097725Y0174450D02*
X0095790Y0174450D01*
X0096757Y0174450D02*
X0096757Y0177352D01*
X0095790Y0176385D01*
X0094778Y0176869D02*
X0094778Y0175901D01*
X0094294Y0175417D01*
X0092843Y0175417D01*
X0092843Y0174450D02*
X0092843Y0177352D01*
X0094294Y0177352D01*
X0094778Y0176869D01*
X0091831Y0176869D02*
X0091348Y0177352D01*
X0090380Y0177352D01*
X0089897Y0176869D01*
X0089897Y0174934D01*
X0090380Y0174450D01*
X0091348Y0174450D01*
X0091831Y0174934D01*
X0088885Y0174450D02*
X0088885Y0177352D01*
X0087917Y0176385D01*
X0086950Y0177352D01*
X0086950Y0174450D01*
X0083081Y0178200D02*
X0082114Y0179167D01*
X0082598Y0179167D02*
X0081147Y0179167D01*
X0081147Y0178200D02*
X0081147Y0181102D01*
X0082598Y0181102D01*
X0083081Y0180619D01*
X0083081Y0179651D01*
X0082598Y0179167D01*
X0080135Y0179167D02*
X0079167Y0178200D01*
X0078200Y0179167D01*
X0078200Y0181102D01*
X0080135Y0181102D02*
X0080135Y0179167D01*
X0064350Y0176003D02*
X0061448Y0176003D01*
X0061448Y0177938D01*
X0062899Y0176971D02*
X0062899Y0176003D01*
X0062415Y0174992D02*
X0064350Y0174992D01*
X0064350Y0173541D01*
X0063866Y0173057D01*
X0062415Y0173057D01*
X0064350Y0172045D02*
X0064350Y0170110D01*
X0064350Y0171078D02*
X0061448Y0171078D01*
X0062415Y0170110D01*
X0063866Y0169121D02*
X0064350Y0169121D01*
X0064350Y0168637D01*
X0063866Y0168637D01*
X0063866Y0169121D01*
X0063866Y0167626D02*
X0061931Y0167626D01*
X0063866Y0165691D01*
X0064350Y0166174D01*
X0064350Y0167142D01*
X0063866Y0167626D01*
X0061931Y0167626D02*
X0061448Y0167142D01*
X0061448Y0166174D01*
X0061931Y0165691D01*
X0063866Y0165691D01*
X0049100Y0169791D02*
X0049100Y0170758D01*
X0048616Y0171242D01*
X0049100Y0172253D02*
X0049100Y0174188D01*
X0049100Y0173221D02*
X0046198Y0173221D01*
X0047165Y0172253D01*
X0046681Y0171242D02*
X0046198Y0170758D01*
X0046198Y0169791D01*
X0046681Y0169307D01*
X0048616Y0169307D01*
X0049100Y0169791D01*
X0020098Y0141102D02*
X0020581Y0140619D01*
X0018647Y0138684D01*
X0019130Y0138200D01*
X0020098Y0138200D01*
X0020581Y0138684D01*
X0020581Y0140619D01*
X0020098Y0141102D02*
X0019130Y0141102D01*
X0018647Y0140619D01*
X0018647Y0138684D01*
X0017635Y0138200D02*
X0017635Y0140135D01*
X0016667Y0141102D01*
X0015700Y0140135D01*
X0015700Y0138200D01*
X0015700Y0139651D02*
X0017635Y0139651D01*
X0011238Y0146434D02*
X0010755Y0145950D01*
X0009787Y0145950D01*
X0009303Y0146434D01*
X0010271Y0147401D02*
X0010755Y0147401D01*
X0011238Y0146917D01*
X0011238Y0146434D01*
X0010755Y0147401D02*
X0011238Y0147885D01*
X0011238Y0148369D01*
X0010755Y0148852D01*
X0009787Y0148852D01*
X0009303Y0148369D01*
X0008292Y0148852D02*
X0007324Y0148852D01*
X0007808Y0148852D02*
X0007808Y0146434D01*
X0007324Y0145950D01*
X0006841Y0145950D01*
X0006357Y0146434D01*
X0016667Y0129852D02*
X0017635Y0128885D01*
X0017635Y0126950D01*
X0018647Y0126950D02*
X0020581Y0126950D01*
X0019614Y0126950D02*
X0019614Y0129852D01*
X0018647Y0128885D01*
X0017635Y0128401D02*
X0015700Y0128401D01*
X0015700Y0128885D02*
X0016667Y0129852D01*
X0015700Y0128885D02*
X0015700Y0126950D01*
X0015700Y0119852D02*
X0017151Y0119852D01*
X0017635Y0119369D01*
X0017635Y0118885D01*
X0017151Y0118401D01*
X0015700Y0118401D01*
X0015700Y0116950D02*
X0017151Y0116950D01*
X0017635Y0117434D01*
X0017635Y0117917D01*
X0017151Y0118401D01*
X0018647Y0119369D02*
X0019130Y0119852D01*
X0020098Y0119852D01*
X0020581Y0119369D01*
X0020581Y0118885D01*
X0018647Y0116950D01*
X0020581Y0116950D01*
X0015700Y0116950D02*
X0015700Y0119852D01*
X0015700Y0109852D02*
X0017151Y0109852D01*
X0017635Y0109369D01*
X0017635Y0108885D01*
X0017151Y0108401D01*
X0015700Y0108401D01*
X0015700Y0106950D02*
X0017151Y0106950D01*
X0017635Y0107434D01*
X0017635Y0107917D01*
X0017151Y0108401D01*
X0018647Y0107434D02*
X0019130Y0106950D01*
X0020098Y0106950D01*
X0020581Y0107434D01*
X0020581Y0107917D01*
X0020098Y0108401D01*
X0019614Y0108401D01*
X0020098Y0108401D02*
X0020581Y0108885D01*
X0020581Y0109369D01*
X0020098Y0109852D01*
X0019130Y0109852D01*
X0018647Y0109369D01*
X0015700Y0109852D02*
X0015700Y0106950D01*
X0015700Y0098602D02*
X0017151Y0098602D01*
X0017635Y0098119D01*
X0017635Y0097635D01*
X0017151Y0097151D01*
X0015700Y0097151D01*
X0015700Y0095700D02*
X0017151Y0095700D01*
X0017635Y0096184D01*
X0017635Y0096667D01*
X0017151Y0097151D01*
X0018647Y0097151D02*
X0020098Y0098602D01*
X0020098Y0095700D01*
X0020581Y0097151D02*
X0018647Y0097151D01*
X0015700Y0095700D02*
X0015700Y0098602D01*
X0016667Y0088602D02*
X0015700Y0087635D01*
X0015700Y0085700D01*
X0015700Y0087151D02*
X0017635Y0087151D01*
X0017635Y0087635D02*
X0017635Y0085700D01*
X0018647Y0087151D02*
X0020098Y0088602D01*
X0020098Y0085700D01*
X0020581Y0087151D02*
X0018647Y0087151D01*
X0017635Y0087635D02*
X0016667Y0088602D01*
X0016184Y0078602D02*
X0015700Y0078119D01*
X0016184Y0078602D02*
X0017151Y0078602D01*
X0017635Y0078119D01*
X0017635Y0077635D01*
X0017151Y0077151D01*
X0017635Y0076667D01*
X0017635Y0076184D01*
X0017151Y0075700D01*
X0016184Y0075700D01*
X0015700Y0076184D01*
X0016667Y0077151D02*
X0017151Y0077151D01*
X0018647Y0076184D02*
X0019130Y0076184D01*
X0019130Y0075700D01*
X0018647Y0075700D01*
X0018647Y0076184D01*
X0020120Y0076184D02*
X0020604Y0075700D01*
X0021571Y0075700D01*
X0022055Y0076184D01*
X0022055Y0076667D01*
X0021571Y0077151D01*
X0021087Y0077151D01*
X0021571Y0077151D02*
X0022055Y0077635D01*
X0022055Y0078119D01*
X0021571Y0078602D01*
X0020604Y0078602D01*
X0020120Y0078119D01*
X0023066Y0078602D02*
X0023066Y0076667D01*
X0024034Y0075700D01*
X0025001Y0076667D01*
X0025001Y0078602D01*
X0021794Y0069852D02*
X0020343Y0069852D01*
X0020343Y0066950D01*
X0021794Y0066950D01*
X0022278Y0067434D01*
X0022278Y0069369D01*
X0021794Y0069852D01*
X0019331Y0069852D02*
X0019331Y0066950D01*
X0017397Y0069852D01*
X0017397Y0066950D01*
X0016385Y0067434D02*
X0016385Y0068401D01*
X0015417Y0068401D01*
X0014450Y0067434D02*
X0014450Y0069369D01*
X0014934Y0069852D01*
X0015901Y0069852D01*
X0016385Y0069369D01*
X0016385Y0067434D02*
X0015901Y0066950D01*
X0014934Y0066950D01*
X0014450Y0067434D01*
X0013200Y0063852D02*
X0013200Y0060950D01*
X0015135Y0060950D01*
X0016147Y0060950D02*
X0018081Y0060950D01*
X0019093Y0060950D02*
X0020544Y0060950D01*
X0021028Y0061434D01*
X0021028Y0063369D01*
X0020544Y0063852D01*
X0019093Y0063852D01*
X0019093Y0060950D01*
X0017114Y0062401D02*
X0016147Y0062401D01*
X0016147Y0063852D02*
X0016147Y0060950D01*
X0016147Y0063852D02*
X0018081Y0063852D01*
X0022040Y0063369D02*
X0022523Y0063852D01*
X0023491Y0063852D01*
X0023975Y0063369D01*
X0023975Y0062885D01*
X0022040Y0060950D01*
X0023975Y0060950D01*
X0098736Y0177352D02*
X0100671Y0177352D01*
X0100671Y0176869D01*
X0106731Y0189450D02*
X0106248Y0189934D01*
X0106248Y0190901D01*
X0106731Y0191385D01*
X0106731Y0192397D02*
X0106248Y0192880D01*
X0106248Y0193848D01*
X0106731Y0194331D01*
X0107215Y0194331D01*
X0107699Y0193848D01*
X0107699Y0192880D01*
X0107215Y0192397D01*
X0106731Y0192397D01*
X0107699Y0192880D02*
X0108183Y0192397D01*
X0108666Y0192397D01*
X0109150Y0192880D01*
X0109150Y0193848D01*
X0108666Y0194331D01*
X0108183Y0194331D01*
X0107699Y0193848D01*
X0108666Y0191385D02*
X0109150Y0190901D01*
X0109150Y0189934D01*
X0108666Y0189450D01*
X0106731Y0189450D01*
X0131498Y0189598D02*
X0131498Y0188630D01*
X0131981Y0188147D01*
X0133916Y0188147D01*
X0131981Y0190081D01*
X0133916Y0190081D01*
X0134400Y0189598D01*
X0134400Y0188630D01*
X0133916Y0188147D01*
X0134400Y0187135D02*
X0134400Y0185200D01*
X0134400Y0186167D02*
X0131498Y0186167D01*
X0132465Y0185200D01*
X0135748Y0182331D02*
X0135748Y0180397D01*
X0137199Y0180397D01*
X0136715Y0181364D01*
X0136715Y0181848D01*
X0137199Y0182331D01*
X0138166Y0182331D01*
X0138650Y0181848D01*
X0138650Y0180880D01*
X0138166Y0180397D01*
X0138166Y0179385D02*
X0138650Y0178901D01*
X0138650Y0177934D01*
X0138166Y0177450D01*
X0136231Y0177450D01*
X0135748Y0177934D01*
X0135748Y0178901D01*
X0136231Y0179385D01*
X0131498Y0189598D02*
X0131981Y0190081D01*
X0132465Y0191093D02*
X0133916Y0191093D01*
X0134400Y0191577D01*
X0134400Y0193028D01*
X0132465Y0193028D01*
X0132949Y0194040D02*
X0132949Y0195007D01*
X0134400Y0194040D02*
X0131498Y0194040D01*
X0131498Y0195975D01*
X0149248Y0195263D02*
X0149248Y0197198D01*
X0150699Y0196230D02*
X0150699Y0195263D01*
X0150215Y0194251D02*
X0152150Y0194251D01*
X0152150Y0192800D01*
X0151666Y0192316D01*
X0150215Y0192316D01*
X0152150Y0191305D02*
X0152150Y0189370D01*
X0152150Y0190337D02*
X0149248Y0190337D01*
X0150215Y0189370D01*
X0151666Y0188380D02*
X0152150Y0188380D01*
X0152150Y0187897D01*
X0151666Y0187897D01*
X0151666Y0188380D01*
X0151666Y0186885D02*
X0149731Y0186885D01*
X0151666Y0184950D01*
X0152150Y0185434D01*
X0152150Y0186401D01*
X0151666Y0186885D01*
X0149731Y0186885D02*
X0149248Y0186401D01*
X0149248Y0185434D01*
X0149731Y0184950D01*
X0151666Y0184950D01*
X0152150Y0195263D02*
X0149248Y0195263D01*
X0163200Y0192352D02*
X0163200Y0189450D01*
X0163200Y0190417D02*
X0164651Y0190417D01*
X0165135Y0190901D01*
X0165135Y0191869D01*
X0164651Y0192352D01*
X0163200Y0192352D01*
X0164167Y0190417D02*
X0165135Y0189450D01*
X0166147Y0189450D02*
X0168081Y0189450D01*
X0169093Y0189934D02*
X0169577Y0189450D01*
X0170544Y0189450D01*
X0171028Y0189934D01*
X0171028Y0190417D01*
X0170544Y0190901D01*
X0169577Y0190901D01*
X0169093Y0191385D01*
X0169093Y0191869D01*
X0169577Y0192352D01*
X0170544Y0192352D01*
X0171028Y0191869D01*
X0172040Y0192352D02*
X0172040Y0189450D01*
X0173975Y0189450D01*
X0173007Y0190901D02*
X0172040Y0190901D01*
X0172040Y0192352D02*
X0173975Y0192352D01*
X0174986Y0192352D02*
X0176921Y0192352D01*
X0175954Y0192352D02*
X0175954Y0189450D01*
X0184148Y0189542D02*
X0184148Y0188574D01*
X0184148Y0189058D02*
X0186566Y0189058D01*
X0187050Y0188574D01*
X0187050Y0188091D01*
X0186566Y0187607D01*
X0187050Y0190553D02*
X0187050Y0192488D01*
X0187050Y0191521D02*
X0184148Y0191521D01*
X0185115Y0190553D01*
X0168081Y0192352D02*
X0166147Y0192352D01*
X0166147Y0189450D01*
X0166147Y0190901D02*
X0167114Y0190901D01*
X0167188Y0019402D02*
X0167188Y0016500D01*
X0165737Y0016500D01*
X0165253Y0016984D01*
X0165253Y0017951D01*
X0165737Y0018435D01*
X0167188Y0018435D01*
X0164242Y0017951D02*
X0164242Y0017467D01*
X0162307Y0017467D01*
X0162307Y0016984D02*
X0162307Y0017951D01*
X0162791Y0018435D01*
X0163758Y0018435D01*
X0164242Y0017951D01*
X0163758Y0016500D02*
X0162791Y0016500D01*
X0162307Y0016984D01*
X0161295Y0016500D02*
X0160328Y0017467D01*
X0160812Y0017467D02*
X0159360Y0017467D01*
X0159360Y0016500D02*
X0159360Y0019402D01*
X0160812Y0019402D01*
X0161295Y0018919D01*
X0161295Y0017951D01*
X0160812Y0017467D01*
X0161860Y0010152D02*
X0161860Y0007250D01*
X0163795Y0007250D01*
X0164807Y0007250D02*
X0166258Y0007250D01*
X0166742Y0007734D01*
X0166742Y0009669D01*
X0166258Y0010152D01*
X0164807Y0010152D01*
X0164807Y0007250D01*
X0162828Y0008701D02*
X0161860Y0008701D01*
X0161860Y0010152D02*
X0163795Y0010152D01*
X0167753Y0009185D02*
X0168721Y0010152D01*
X0168721Y0007250D01*
X0169688Y0007250D02*
X0167753Y0007250D01*
X0160849Y0007250D02*
X0158914Y0007250D01*
X0158914Y0010152D01*
D12*
X0190746Y0009302D02*
X0190746Y0007000D01*
X0195350Y0007000D01*
X0195350Y0009302D01*
X0194583Y0010069D01*
X0191513Y0010069D01*
X0190746Y0009302D01*
X0190746Y0011604D02*
X0195350Y0011604D01*
X0195350Y0014673D01*
X0195350Y0016208D02*
X0195350Y0019277D01*
X0195350Y0020812D02*
X0190746Y0020812D01*
X0190746Y0023114D01*
X0191513Y0023881D01*
X0193048Y0023881D01*
X0193815Y0023114D01*
X0193815Y0020812D01*
X0193048Y0017742D02*
X0193048Y0016208D01*
X0190746Y0016208D02*
X0195350Y0016208D01*
X0193048Y0013139D02*
X0193048Y0011604D01*
X0190746Y0011604D02*
X0190746Y0014673D01*
X0190746Y0016208D02*
X0190746Y0019277D01*
X0192281Y0025416D02*
X0190746Y0026950D01*
X0192281Y0028485D01*
X0195350Y0028485D01*
X0195350Y0030020D02*
X0190746Y0030020D01*
X0193048Y0030787D02*
X0195350Y0033089D01*
X0196117Y0034624D02*
X0196117Y0037693D01*
X0195350Y0039227D02*
X0190746Y0039227D01*
X0192281Y0040762D01*
X0190746Y0042297D01*
X0195350Y0042297D01*
X0195350Y0043831D02*
X0195350Y0046901D01*
X0195350Y0050737D02*
X0190746Y0050737D01*
X0193048Y0048435D01*
X0193048Y0051505D01*
X0191513Y0053039D02*
X0190746Y0053807D01*
X0190746Y0055341D01*
X0191513Y0056109D01*
X0192281Y0056109D01*
X0193048Y0055341D01*
X0193815Y0056109D01*
X0194583Y0056109D01*
X0195350Y0055341D01*
X0195350Y0053807D01*
X0194583Y0053039D01*
X0193048Y0054574D02*
X0193048Y0055341D01*
X0191513Y0057643D02*
X0190746Y0058410D01*
X0190746Y0059945D01*
X0191513Y0060712D01*
X0192281Y0060712D01*
X0193048Y0059945D01*
X0193815Y0060712D01*
X0194583Y0060712D01*
X0195350Y0059945D01*
X0195350Y0058410D01*
X0194583Y0057643D01*
X0193048Y0059178D02*
X0193048Y0059945D01*
X0190746Y0046901D02*
X0190746Y0043831D01*
X0195350Y0043831D01*
X0193048Y0043831D02*
X0193048Y0045366D01*
X0190746Y0033089D02*
X0193815Y0030020D01*
X0193048Y0028485D02*
X0193048Y0025416D01*
X0192281Y0025416D02*
X0195350Y0025416D01*
X0021509Y0152423D02*
X0020741Y0151656D01*
X0018439Y0151656D01*
X0018439Y0156259D01*
X0020741Y0156259D01*
X0021509Y0155492D01*
X0021509Y0154725D01*
X0020741Y0153957D01*
X0018439Y0153957D01*
X0016905Y0153190D02*
X0016905Y0152423D01*
X0016137Y0151656D01*
X0014603Y0151656D01*
X0013835Y0152423D01*
X0012301Y0152423D02*
X0012301Y0156259D01*
X0013835Y0155492D02*
X0013835Y0154725D01*
X0014603Y0153957D01*
X0016137Y0153957D01*
X0016905Y0153190D01*
X0016905Y0155492D02*
X0016137Y0156259D01*
X0014603Y0156259D01*
X0013835Y0155492D01*
X0012301Y0152423D02*
X0011533Y0151656D01*
X0009999Y0151656D01*
X0009232Y0152423D01*
X0009232Y0156259D01*
X0020741Y0153957D02*
X0021509Y0153190D01*
X0021509Y0152423D01*
D13*
X0049800Y0166550D02*
X0049800Y0179550D01*
X0049802Y0179637D01*
X0049808Y0179724D01*
X0049817Y0179811D01*
X0049830Y0179897D01*
X0049847Y0179983D01*
X0049868Y0180068D01*
X0049893Y0180151D01*
X0049921Y0180234D01*
X0049952Y0180315D01*
X0049987Y0180395D01*
X0050026Y0180473D01*
X0050068Y0180550D01*
X0050113Y0180625D01*
X0050162Y0180697D01*
X0050213Y0180768D01*
X0050268Y0180836D01*
X0050325Y0180901D01*
X0050386Y0180964D01*
X0050449Y0181025D01*
X0050514Y0181082D01*
X0050582Y0181137D01*
X0050653Y0181188D01*
X0050725Y0181237D01*
X0050800Y0181282D01*
X0050877Y0181324D01*
X0050955Y0181363D01*
X0051035Y0181398D01*
X0051116Y0181429D01*
X0051199Y0181457D01*
X0051282Y0181482D01*
X0051367Y0181503D01*
X0051453Y0181520D01*
X0051539Y0181533D01*
X0051626Y0181542D01*
X0051713Y0181548D01*
X0051800Y0181550D01*
X0056800Y0181550D01*
X0056887Y0181548D01*
X0056974Y0181542D01*
X0057061Y0181533D01*
X0057147Y0181520D01*
X0057233Y0181503D01*
X0057318Y0181482D01*
X0057401Y0181457D01*
X0057484Y0181429D01*
X0057565Y0181398D01*
X0057645Y0181363D01*
X0057723Y0181324D01*
X0057800Y0181282D01*
X0057875Y0181237D01*
X0057947Y0181188D01*
X0058018Y0181137D01*
X0058086Y0181082D01*
X0058151Y0181025D01*
X0058214Y0180964D01*
X0058275Y0180901D01*
X0058332Y0180836D01*
X0058387Y0180768D01*
X0058438Y0180697D01*
X0058487Y0180625D01*
X0058532Y0180550D01*
X0058574Y0180473D01*
X0058613Y0180395D01*
X0058648Y0180315D01*
X0058679Y0180234D01*
X0058707Y0180151D01*
X0058732Y0180068D01*
X0058753Y0179983D01*
X0058770Y0179897D01*
X0058783Y0179811D01*
X0058792Y0179724D01*
X0058798Y0179637D01*
X0058800Y0179550D01*
X0058800Y0166550D01*
X0058798Y0166463D01*
X0058792Y0166376D01*
X0058783Y0166289D01*
X0058770Y0166203D01*
X0058753Y0166117D01*
X0058732Y0166032D01*
X0058707Y0165949D01*
X0058679Y0165866D01*
X0058648Y0165785D01*
X0058613Y0165705D01*
X0058574Y0165627D01*
X0058532Y0165550D01*
X0058487Y0165475D01*
X0058438Y0165403D01*
X0058387Y0165332D01*
X0058332Y0165264D01*
X0058275Y0165199D01*
X0058214Y0165136D01*
X0058151Y0165075D01*
X0058086Y0165018D01*
X0058018Y0164963D01*
X0057947Y0164912D01*
X0057875Y0164863D01*
X0057800Y0164818D01*
X0057723Y0164776D01*
X0057645Y0164737D01*
X0057565Y0164702D01*
X0057484Y0164671D01*
X0057401Y0164643D01*
X0057318Y0164618D01*
X0057233Y0164597D01*
X0057147Y0164580D01*
X0057061Y0164567D01*
X0056974Y0164558D01*
X0056887Y0164552D01*
X0056800Y0164550D01*
X0051800Y0164550D01*
X0051713Y0164552D01*
X0051626Y0164558D01*
X0051539Y0164567D01*
X0051453Y0164580D01*
X0051367Y0164597D01*
X0051282Y0164618D01*
X0051199Y0164643D01*
X0051116Y0164671D01*
X0051035Y0164702D01*
X0050955Y0164737D01*
X0050877Y0164776D01*
X0050800Y0164818D01*
X0050725Y0164863D01*
X0050653Y0164912D01*
X0050582Y0164963D01*
X0050514Y0165018D01*
X0050449Y0165075D01*
X0050386Y0165136D01*
X0050325Y0165199D01*
X0050268Y0165264D01*
X0050213Y0165332D01*
X0050162Y0165403D01*
X0050113Y0165475D01*
X0050068Y0165550D01*
X0050026Y0165627D01*
X0049987Y0165705D01*
X0049952Y0165785D01*
X0049921Y0165866D01*
X0049893Y0165949D01*
X0049868Y0166032D01*
X0049847Y0166117D01*
X0049830Y0166203D01*
X0049817Y0166289D01*
X0049808Y0166376D01*
X0049802Y0166463D01*
X0049800Y0166550D01*
X0087800Y0163050D02*
X0095300Y0163050D01*
X0095302Y0162924D01*
X0095308Y0162799D01*
X0095318Y0162674D01*
X0095332Y0162549D01*
X0095349Y0162424D01*
X0095371Y0162300D01*
X0095396Y0162177D01*
X0095426Y0162055D01*
X0095459Y0161934D01*
X0095496Y0161814D01*
X0095536Y0161695D01*
X0095581Y0161578D01*
X0095629Y0161461D01*
X0095681Y0161347D01*
X0095736Y0161234D01*
X0095795Y0161123D01*
X0095857Y0161014D01*
X0095923Y0160907D01*
X0095992Y0160802D01*
X0096064Y0160699D01*
X0096139Y0160598D01*
X0096218Y0160500D01*
X0096300Y0160405D01*
X0096384Y0160312D01*
X0096472Y0160222D01*
X0096562Y0160134D01*
X0096655Y0160050D01*
X0096750Y0159968D01*
X0096848Y0159889D01*
X0096949Y0159814D01*
X0097052Y0159742D01*
X0097157Y0159673D01*
X0097264Y0159607D01*
X0097373Y0159545D01*
X0097484Y0159486D01*
X0097597Y0159431D01*
X0097711Y0159379D01*
X0097828Y0159331D01*
X0097945Y0159286D01*
X0098064Y0159246D01*
X0098184Y0159209D01*
X0098305Y0159176D01*
X0098427Y0159146D01*
X0098550Y0159121D01*
X0098674Y0159099D01*
X0098799Y0159082D01*
X0098924Y0159068D01*
X0099049Y0159058D01*
X0099174Y0159052D01*
X0099300Y0159050D01*
X0099426Y0159052D01*
X0099551Y0159058D01*
X0099676Y0159068D01*
X0099801Y0159082D01*
X0099926Y0159099D01*
X0100050Y0159121D01*
X0100173Y0159146D01*
X0100295Y0159176D01*
X0100416Y0159209D01*
X0100536Y0159246D01*
X0100655Y0159286D01*
X0100772Y0159331D01*
X0100889Y0159379D01*
X0101003Y0159431D01*
X0101116Y0159486D01*
X0101227Y0159545D01*
X0101336Y0159607D01*
X0101443Y0159673D01*
X0101548Y0159742D01*
X0101651Y0159814D01*
X0101752Y0159889D01*
X0101850Y0159968D01*
X0101945Y0160050D01*
X0102038Y0160134D01*
X0102128Y0160222D01*
X0102216Y0160312D01*
X0102300Y0160405D01*
X0102382Y0160500D01*
X0102461Y0160598D01*
X0102536Y0160699D01*
X0102608Y0160802D01*
X0102677Y0160907D01*
X0102743Y0161014D01*
X0102805Y0161123D01*
X0102864Y0161234D01*
X0102919Y0161347D01*
X0102971Y0161461D01*
X0103019Y0161578D01*
X0103064Y0161695D01*
X0103104Y0161814D01*
X0103141Y0161934D01*
X0103174Y0162055D01*
X0103204Y0162177D01*
X0103229Y0162300D01*
X0103251Y0162424D01*
X0103268Y0162549D01*
X0103282Y0162674D01*
X0103292Y0162799D01*
X0103298Y0162924D01*
X0103300Y0163050D01*
X0110800Y0163050D01*
X0110800Y0023050D01*
X0087800Y0023050D01*
X0087800Y0163050D01*
X0111550Y0182800D02*
X0114550Y0179800D01*
X0126550Y0179800D01*
X0129550Y0182800D01*
X0129550Y0197300D01*
X0129548Y0197376D01*
X0129542Y0197452D01*
X0129533Y0197527D01*
X0129519Y0197602D01*
X0129502Y0197676D01*
X0129481Y0197749D01*
X0129457Y0197821D01*
X0129428Y0197892D01*
X0129397Y0197961D01*
X0129362Y0198028D01*
X0129323Y0198093D01*
X0129281Y0198157D01*
X0129236Y0198218D01*
X0129188Y0198277D01*
X0129137Y0198333D01*
X0129083Y0198387D01*
X0129027Y0198438D01*
X0128968Y0198486D01*
X0128907Y0198531D01*
X0128843Y0198573D01*
X0128778Y0198612D01*
X0128711Y0198647D01*
X0128642Y0198678D01*
X0128571Y0198707D01*
X0128499Y0198731D01*
X0128426Y0198752D01*
X0128352Y0198769D01*
X0128277Y0198783D01*
X0128202Y0198792D01*
X0128126Y0198798D01*
X0128050Y0198800D01*
X0113050Y0198800D01*
X0112974Y0198798D01*
X0112898Y0198792D01*
X0112823Y0198783D01*
X0112748Y0198769D01*
X0112674Y0198752D01*
X0112601Y0198731D01*
X0112529Y0198707D01*
X0112458Y0198678D01*
X0112389Y0198647D01*
X0112322Y0198612D01*
X0112257Y0198573D01*
X0112193Y0198531D01*
X0112132Y0198486D01*
X0112073Y0198438D01*
X0112017Y0198387D01*
X0111963Y0198333D01*
X0111912Y0198277D01*
X0111864Y0198218D01*
X0111819Y0198157D01*
X0111777Y0198093D01*
X0111738Y0198028D01*
X0111703Y0197961D01*
X0111672Y0197892D01*
X0111643Y0197821D01*
X0111619Y0197749D01*
X0111598Y0197676D01*
X0111581Y0197602D01*
X0111567Y0197527D01*
X0111558Y0197452D01*
X0111552Y0197376D01*
X0111550Y0197300D01*
X0111550Y0182800D01*
X0113950Y0182300D02*
X0116450Y0182300D01*
X0115150Y0183600D02*
X0115150Y0181000D01*
X0126800Y0161550D02*
X0131800Y0161550D01*
X0131887Y0161548D01*
X0131974Y0161542D01*
X0132061Y0161533D01*
X0132147Y0161520D01*
X0132233Y0161503D01*
X0132318Y0161482D01*
X0132401Y0161457D01*
X0132484Y0161429D01*
X0132565Y0161398D01*
X0132645Y0161363D01*
X0132723Y0161324D01*
X0132800Y0161282D01*
X0132875Y0161237D01*
X0132947Y0161188D01*
X0133018Y0161137D01*
X0133086Y0161082D01*
X0133151Y0161025D01*
X0133214Y0160964D01*
X0133275Y0160901D01*
X0133332Y0160836D01*
X0133387Y0160768D01*
X0133438Y0160697D01*
X0133487Y0160625D01*
X0133532Y0160550D01*
X0133574Y0160473D01*
X0133613Y0160395D01*
X0133648Y0160315D01*
X0133679Y0160234D01*
X0133707Y0160151D01*
X0133732Y0160068D01*
X0133753Y0159983D01*
X0133770Y0159897D01*
X0133783Y0159811D01*
X0133792Y0159724D01*
X0133798Y0159637D01*
X0133800Y0159550D01*
X0133800Y0146550D01*
X0133798Y0146463D01*
X0133792Y0146376D01*
X0133783Y0146289D01*
X0133770Y0146203D01*
X0133753Y0146117D01*
X0133732Y0146032D01*
X0133707Y0145949D01*
X0133679Y0145866D01*
X0133648Y0145785D01*
X0133613Y0145705D01*
X0133574Y0145627D01*
X0133532Y0145550D01*
X0133487Y0145475D01*
X0133438Y0145403D01*
X0133387Y0145332D01*
X0133332Y0145264D01*
X0133275Y0145199D01*
X0133214Y0145136D01*
X0133151Y0145075D01*
X0133086Y0145018D01*
X0133018Y0144963D01*
X0132947Y0144912D01*
X0132875Y0144863D01*
X0132800Y0144818D01*
X0132723Y0144776D01*
X0132645Y0144737D01*
X0132565Y0144702D01*
X0132484Y0144671D01*
X0132401Y0144643D01*
X0132318Y0144618D01*
X0132233Y0144597D01*
X0132147Y0144580D01*
X0132061Y0144567D01*
X0131974Y0144558D01*
X0131887Y0144552D01*
X0131800Y0144550D01*
X0126800Y0144550D01*
X0126713Y0144552D01*
X0126626Y0144558D01*
X0126539Y0144567D01*
X0126453Y0144580D01*
X0126367Y0144597D01*
X0126282Y0144618D01*
X0126199Y0144643D01*
X0126116Y0144671D01*
X0126035Y0144702D01*
X0125955Y0144737D01*
X0125877Y0144776D01*
X0125800Y0144818D01*
X0125725Y0144863D01*
X0125653Y0144912D01*
X0125582Y0144963D01*
X0125514Y0145018D01*
X0125449Y0145075D01*
X0125386Y0145136D01*
X0125325Y0145199D01*
X0125268Y0145264D01*
X0125213Y0145332D01*
X0125162Y0145403D01*
X0125113Y0145475D01*
X0125068Y0145550D01*
X0125026Y0145627D01*
X0124987Y0145705D01*
X0124952Y0145785D01*
X0124921Y0145866D01*
X0124893Y0145949D01*
X0124868Y0146032D01*
X0124847Y0146117D01*
X0124830Y0146203D01*
X0124817Y0146289D01*
X0124808Y0146376D01*
X0124802Y0146463D01*
X0124800Y0146550D01*
X0124800Y0159550D01*
X0124802Y0159637D01*
X0124808Y0159724D01*
X0124817Y0159811D01*
X0124830Y0159897D01*
X0124847Y0159983D01*
X0124868Y0160068D01*
X0124893Y0160151D01*
X0124921Y0160234D01*
X0124952Y0160315D01*
X0124987Y0160395D01*
X0125026Y0160473D01*
X0125068Y0160550D01*
X0125113Y0160625D01*
X0125162Y0160697D01*
X0125213Y0160768D01*
X0125268Y0160836D01*
X0125325Y0160901D01*
X0125386Y0160964D01*
X0125449Y0161025D01*
X0125514Y0161082D01*
X0125582Y0161137D01*
X0125653Y0161188D01*
X0125725Y0161237D01*
X0125800Y0161282D01*
X0125877Y0161324D01*
X0125955Y0161363D01*
X0126035Y0161398D01*
X0126116Y0161429D01*
X0126199Y0161457D01*
X0126282Y0161482D01*
X0126367Y0161503D01*
X0126453Y0161520D01*
X0126539Y0161533D01*
X0126626Y0161542D01*
X0126713Y0161548D01*
X0126800Y0161550D01*
X0146800Y0162050D02*
X0146800Y0169050D01*
X0146802Y0169110D01*
X0146807Y0169171D01*
X0146816Y0169230D01*
X0146829Y0169289D01*
X0146845Y0169348D01*
X0146865Y0169405D01*
X0146888Y0169460D01*
X0146915Y0169515D01*
X0146944Y0169567D01*
X0146977Y0169618D01*
X0147013Y0169667D01*
X0147051Y0169713D01*
X0147093Y0169757D01*
X0147137Y0169799D01*
X0147183Y0169837D01*
X0147232Y0169873D01*
X0147283Y0169906D01*
X0147335Y0169935D01*
X0147390Y0169962D01*
X0147445Y0169985D01*
X0147502Y0170005D01*
X0147561Y0170021D01*
X0147620Y0170034D01*
X0147679Y0170043D01*
X0147740Y0170048D01*
X0147800Y0170050D01*
X0149300Y0170050D01*
X0149800Y0169550D01*
X0168800Y0169550D01*
X0169300Y0170050D01*
X0170800Y0170050D01*
X0170860Y0170048D01*
X0170921Y0170043D01*
X0170980Y0170034D01*
X0171039Y0170021D01*
X0171098Y0170005D01*
X0171155Y0169985D01*
X0171210Y0169962D01*
X0171265Y0169935D01*
X0171317Y0169906D01*
X0171368Y0169873D01*
X0171417Y0169837D01*
X0171463Y0169799D01*
X0171507Y0169757D01*
X0171549Y0169713D01*
X0171587Y0169667D01*
X0171623Y0169618D01*
X0171656Y0169567D01*
X0171685Y0169515D01*
X0171712Y0169460D01*
X0171735Y0169405D01*
X0171755Y0169348D01*
X0171771Y0169289D01*
X0171784Y0169230D01*
X0171793Y0169171D01*
X0171798Y0169110D01*
X0171800Y0169050D01*
X0171800Y0162050D01*
X0171798Y0161990D01*
X0171793Y0161929D01*
X0171784Y0161870D01*
X0171771Y0161811D01*
X0171755Y0161752D01*
X0171735Y0161695D01*
X0171712Y0161640D01*
X0171685Y0161585D01*
X0171656Y0161533D01*
X0171623Y0161482D01*
X0171587Y0161433D01*
X0171549Y0161387D01*
X0171507Y0161343D01*
X0171463Y0161301D01*
X0171417Y0161263D01*
X0171368Y0161227D01*
X0171317Y0161194D01*
X0171265Y0161165D01*
X0171210Y0161138D01*
X0171155Y0161115D01*
X0171098Y0161095D01*
X0171039Y0161079D01*
X0170980Y0161066D01*
X0170921Y0161057D01*
X0170860Y0161052D01*
X0170800Y0161050D01*
X0169300Y0161050D01*
X0168800Y0161550D01*
X0149800Y0161550D01*
X0149300Y0161050D01*
X0147800Y0161050D01*
X0147740Y0161052D01*
X0147679Y0161057D01*
X0147620Y0161066D01*
X0147561Y0161079D01*
X0147502Y0161095D01*
X0147445Y0161115D01*
X0147390Y0161138D01*
X0147335Y0161165D01*
X0147283Y0161194D01*
X0147232Y0161227D01*
X0147183Y0161263D01*
X0147137Y0161301D01*
X0147093Y0161343D01*
X0147051Y0161387D01*
X0147013Y0161433D01*
X0146977Y0161482D01*
X0146944Y0161533D01*
X0146915Y0161585D01*
X0146888Y0161640D01*
X0146865Y0161695D01*
X0146845Y0161752D01*
X0146829Y0161811D01*
X0146816Y0161870D01*
X0146807Y0161929D01*
X0146802Y0161990D01*
X0146800Y0162050D01*
X0145550Y0182050D02*
X0140550Y0182050D01*
X0140463Y0182052D01*
X0140376Y0182058D01*
X0140289Y0182067D01*
X0140203Y0182080D01*
X0140117Y0182097D01*
X0140032Y0182118D01*
X0139949Y0182143D01*
X0139866Y0182171D01*
X0139785Y0182202D01*
X0139705Y0182237D01*
X0139627Y0182276D01*
X0139550Y0182318D01*
X0139475Y0182363D01*
X0139403Y0182412D01*
X0139332Y0182463D01*
X0139264Y0182518D01*
X0139199Y0182575D01*
X0139136Y0182636D01*
X0139075Y0182699D01*
X0139018Y0182764D01*
X0138963Y0182832D01*
X0138912Y0182903D01*
X0138863Y0182975D01*
X0138818Y0183050D01*
X0138776Y0183127D01*
X0138737Y0183205D01*
X0138702Y0183285D01*
X0138671Y0183366D01*
X0138643Y0183449D01*
X0138618Y0183532D01*
X0138597Y0183617D01*
X0138580Y0183703D01*
X0138567Y0183789D01*
X0138558Y0183876D01*
X0138552Y0183963D01*
X0138550Y0184050D01*
X0138550Y0197050D01*
X0138552Y0197137D01*
X0138558Y0197224D01*
X0138567Y0197311D01*
X0138580Y0197397D01*
X0138597Y0197483D01*
X0138618Y0197568D01*
X0138643Y0197651D01*
X0138671Y0197734D01*
X0138702Y0197815D01*
X0138737Y0197895D01*
X0138776Y0197973D01*
X0138818Y0198050D01*
X0138863Y0198125D01*
X0138912Y0198197D01*
X0138963Y0198268D01*
X0139018Y0198336D01*
X0139075Y0198401D01*
X0139136Y0198464D01*
X0139199Y0198525D01*
X0139264Y0198582D01*
X0139332Y0198637D01*
X0139403Y0198688D01*
X0139475Y0198737D01*
X0139550Y0198782D01*
X0139627Y0198824D01*
X0139705Y0198863D01*
X0139785Y0198898D01*
X0139866Y0198929D01*
X0139949Y0198957D01*
X0140032Y0198982D01*
X0140117Y0199003D01*
X0140203Y0199020D01*
X0140289Y0199033D01*
X0140376Y0199042D01*
X0140463Y0199048D01*
X0140550Y0199050D01*
X0145550Y0199050D01*
X0145637Y0199048D01*
X0145724Y0199042D01*
X0145811Y0199033D01*
X0145897Y0199020D01*
X0145983Y0199003D01*
X0146068Y0198982D01*
X0146151Y0198957D01*
X0146234Y0198929D01*
X0146315Y0198898D01*
X0146395Y0198863D01*
X0146473Y0198824D01*
X0146550Y0198782D01*
X0146625Y0198737D01*
X0146697Y0198688D01*
X0146768Y0198637D01*
X0146836Y0198582D01*
X0146901Y0198525D01*
X0146964Y0198464D01*
X0147025Y0198401D01*
X0147082Y0198336D01*
X0147137Y0198268D01*
X0147188Y0198197D01*
X0147237Y0198125D01*
X0147282Y0198050D01*
X0147324Y0197973D01*
X0147363Y0197895D01*
X0147398Y0197815D01*
X0147429Y0197734D01*
X0147457Y0197651D01*
X0147482Y0197568D01*
X0147503Y0197483D01*
X0147520Y0197397D01*
X0147533Y0197311D01*
X0147542Y0197224D01*
X0147548Y0197137D01*
X0147550Y0197050D01*
X0147550Y0184050D01*
X0147548Y0183963D01*
X0147542Y0183876D01*
X0147533Y0183789D01*
X0147520Y0183703D01*
X0147503Y0183617D01*
X0147482Y0183532D01*
X0147457Y0183449D01*
X0147429Y0183366D01*
X0147398Y0183285D01*
X0147363Y0183205D01*
X0147324Y0183127D01*
X0147282Y0183050D01*
X0147237Y0182975D01*
X0147188Y0182903D01*
X0147137Y0182832D01*
X0147082Y0182764D01*
X0147025Y0182699D01*
X0146964Y0182636D01*
X0146901Y0182575D01*
X0146836Y0182518D01*
X0146768Y0182463D01*
X0146697Y0182412D01*
X0146625Y0182363D01*
X0146550Y0182318D01*
X0146473Y0182276D01*
X0146395Y0182237D01*
X0146315Y0182202D01*
X0146234Y0182171D01*
X0146151Y0182143D01*
X0146068Y0182118D01*
X0145983Y0182097D01*
X0145897Y0182080D01*
X0145811Y0182067D01*
X0145724Y0182058D01*
X0145637Y0182052D01*
X0145550Y0182050D01*
X0143550Y0087050D02*
X0129050Y0087050D01*
X0126050Y0084050D01*
X0126050Y0072050D01*
X0129050Y0069050D01*
X0143550Y0069050D01*
X0143626Y0069052D01*
X0143702Y0069058D01*
X0143777Y0069067D01*
X0143852Y0069081D01*
X0143926Y0069098D01*
X0143999Y0069119D01*
X0144071Y0069143D01*
X0144142Y0069172D01*
X0144211Y0069203D01*
X0144278Y0069238D01*
X0144343Y0069277D01*
X0144407Y0069319D01*
X0144468Y0069364D01*
X0144527Y0069412D01*
X0144583Y0069463D01*
X0144637Y0069517D01*
X0144688Y0069573D01*
X0144736Y0069632D01*
X0144781Y0069693D01*
X0144823Y0069757D01*
X0144862Y0069822D01*
X0144897Y0069889D01*
X0144928Y0069958D01*
X0144957Y0070029D01*
X0144981Y0070101D01*
X0145002Y0070174D01*
X0145019Y0070248D01*
X0145033Y0070323D01*
X0145042Y0070398D01*
X0145048Y0070474D01*
X0145050Y0070550D01*
X0145050Y0085550D01*
X0145048Y0085626D01*
X0145042Y0085702D01*
X0145033Y0085777D01*
X0145019Y0085852D01*
X0145002Y0085926D01*
X0144981Y0085999D01*
X0144957Y0086071D01*
X0144928Y0086142D01*
X0144897Y0086211D01*
X0144862Y0086278D01*
X0144823Y0086343D01*
X0144781Y0086407D01*
X0144736Y0086468D01*
X0144688Y0086527D01*
X0144637Y0086583D01*
X0144583Y0086637D01*
X0144527Y0086688D01*
X0144468Y0086736D01*
X0144407Y0086781D01*
X0144343Y0086823D01*
X0144278Y0086862D01*
X0144211Y0086897D01*
X0144142Y0086928D01*
X0144071Y0086957D01*
X0143999Y0086981D01*
X0143926Y0087002D01*
X0143852Y0087019D01*
X0143777Y0087033D01*
X0143702Y0087042D01*
X0143626Y0087048D01*
X0143550Y0087050D01*
X0129850Y0083450D02*
X0127250Y0083450D01*
X0128550Y0084650D02*
X0128550Y0082150D01*
X0076300Y0039550D02*
X0076300Y0026550D01*
X0076298Y0026463D01*
X0076292Y0026376D01*
X0076283Y0026289D01*
X0076270Y0026203D01*
X0076253Y0026117D01*
X0076232Y0026032D01*
X0076207Y0025949D01*
X0076179Y0025866D01*
X0076148Y0025785D01*
X0076113Y0025705D01*
X0076074Y0025627D01*
X0076032Y0025550D01*
X0075987Y0025475D01*
X0075938Y0025403D01*
X0075887Y0025332D01*
X0075832Y0025264D01*
X0075775Y0025199D01*
X0075714Y0025136D01*
X0075651Y0025075D01*
X0075586Y0025018D01*
X0075518Y0024963D01*
X0075447Y0024912D01*
X0075375Y0024863D01*
X0075300Y0024818D01*
X0075223Y0024776D01*
X0075145Y0024737D01*
X0075065Y0024702D01*
X0074984Y0024671D01*
X0074901Y0024643D01*
X0074818Y0024618D01*
X0074733Y0024597D01*
X0074647Y0024580D01*
X0074561Y0024567D01*
X0074474Y0024558D01*
X0074387Y0024552D01*
X0074300Y0024550D01*
X0069300Y0024550D01*
X0069213Y0024552D01*
X0069126Y0024558D01*
X0069039Y0024567D01*
X0068953Y0024580D01*
X0068867Y0024597D01*
X0068782Y0024618D01*
X0068699Y0024643D01*
X0068616Y0024671D01*
X0068535Y0024702D01*
X0068455Y0024737D01*
X0068377Y0024776D01*
X0068300Y0024818D01*
X0068225Y0024863D01*
X0068153Y0024912D01*
X0068082Y0024963D01*
X0068014Y0025018D01*
X0067949Y0025075D01*
X0067886Y0025136D01*
X0067825Y0025199D01*
X0067768Y0025264D01*
X0067713Y0025332D01*
X0067662Y0025403D01*
X0067613Y0025475D01*
X0067568Y0025550D01*
X0067526Y0025627D01*
X0067487Y0025705D01*
X0067452Y0025785D01*
X0067421Y0025866D01*
X0067393Y0025949D01*
X0067368Y0026032D01*
X0067347Y0026117D01*
X0067330Y0026203D01*
X0067317Y0026289D01*
X0067308Y0026376D01*
X0067302Y0026463D01*
X0067300Y0026550D01*
X0067300Y0039550D01*
X0067302Y0039637D01*
X0067308Y0039724D01*
X0067317Y0039811D01*
X0067330Y0039897D01*
X0067347Y0039983D01*
X0067368Y0040068D01*
X0067393Y0040151D01*
X0067421Y0040234D01*
X0067452Y0040315D01*
X0067487Y0040395D01*
X0067526Y0040473D01*
X0067568Y0040550D01*
X0067613Y0040625D01*
X0067662Y0040697D01*
X0067713Y0040768D01*
X0067768Y0040836D01*
X0067825Y0040901D01*
X0067886Y0040964D01*
X0067949Y0041025D01*
X0068014Y0041082D01*
X0068082Y0041137D01*
X0068153Y0041188D01*
X0068225Y0041237D01*
X0068300Y0041282D01*
X0068377Y0041324D01*
X0068455Y0041363D01*
X0068535Y0041398D01*
X0068616Y0041429D01*
X0068699Y0041457D01*
X0068782Y0041482D01*
X0068867Y0041503D01*
X0068953Y0041520D01*
X0069039Y0041533D01*
X0069126Y0041542D01*
X0069213Y0041548D01*
X0069300Y0041550D01*
X0074300Y0041550D01*
X0074387Y0041548D01*
X0074474Y0041542D01*
X0074561Y0041533D01*
X0074647Y0041520D01*
X0074733Y0041503D01*
X0074818Y0041482D01*
X0074901Y0041457D01*
X0074984Y0041429D01*
X0075065Y0041398D01*
X0075145Y0041363D01*
X0075223Y0041324D01*
X0075300Y0041282D01*
X0075375Y0041237D01*
X0075447Y0041188D01*
X0075518Y0041137D01*
X0075586Y0041082D01*
X0075651Y0041025D01*
X0075714Y0040964D01*
X0075775Y0040901D01*
X0075832Y0040836D01*
X0075887Y0040768D01*
X0075938Y0040697D01*
X0075987Y0040625D01*
X0076032Y0040550D01*
X0076074Y0040473D01*
X0076113Y0040395D01*
X0076148Y0040315D01*
X0076179Y0040234D01*
X0076207Y0040151D01*
X0076232Y0040068D01*
X0076253Y0039983D01*
X0076270Y0039897D01*
X0076283Y0039811D01*
X0076292Y0039724D01*
X0076298Y0039637D01*
X0076300Y0039550D01*
X0055050Y0043050D02*
X0054550Y0042550D01*
X0054550Y0023550D01*
X0055050Y0023050D01*
X0055050Y0021550D01*
X0055048Y0021490D01*
X0055043Y0021429D01*
X0055034Y0021370D01*
X0055021Y0021311D01*
X0055005Y0021252D01*
X0054985Y0021195D01*
X0054962Y0021140D01*
X0054935Y0021085D01*
X0054906Y0021033D01*
X0054873Y0020982D01*
X0054837Y0020933D01*
X0054799Y0020887D01*
X0054757Y0020843D01*
X0054713Y0020801D01*
X0054667Y0020763D01*
X0054618Y0020727D01*
X0054567Y0020694D01*
X0054515Y0020665D01*
X0054460Y0020638D01*
X0054405Y0020615D01*
X0054348Y0020595D01*
X0054289Y0020579D01*
X0054230Y0020566D01*
X0054171Y0020557D01*
X0054110Y0020552D01*
X0054050Y0020550D01*
X0047050Y0020550D01*
X0046990Y0020552D01*
X0046929Y0020557D01*
X0046870Y0020566D01*
X0046811Y0020579D01*
X0046752Y0020595D01*
X0046695Y0020615D01*
X0046640Y0020638D01*
X0046585Y0020665D01*
X0046533Y0020694D01*
X0046482Y0020727D01*
X0046433Y0020763D01*
X0046387Y0020801D01*
X0046343Y0020843D01*
X0046301Y0020887D01*
X0046263Y0020933D01*
X0046227Y0020982D01*
X0046194Y0021033D01*
X0046165Y0021085D01*
X0046138Y0021140D01*
X0046115Y0021195D01*
X0046095Y0021252D01*
X0046079Y0021311D01*
X0046066Y0021370D01*
X0046057Y0021429D01*
X0046052Y0021490D01*
X0046050Y0021550D01*
X0046050Y0023050D01*
X0046550Y0023550D01*
X0046550Y0042550D01*
X0046050Y0043050D01*
X0046050Y0044550D01*
X0046052Y0044610D01*
X0046057Y0044671D01*
X0046066Y0044730D01*
X0046079Y0044789D01*
X0046095Y0044848D01*
X0046115Y0044905D01*
X0046138Y0044960D01*
X0046165Y0045015D01*
X0046194Y0045067D01*
X0046227Y0045118D01*
X0046263Y0045167D01*
X0046301Y0045213D01*
X0046343Y0045257D01*
X0046387Y0045299D01*
X0046433Y0045337D01*
X0046482Y0045373D01*
X0046533Y0045406D01*
X0046585Y0045435D01*
X0046640Y0045462D01*
X0046695Y0045485D01*
X0046752Y0045505D01*
X0046811Y0045521D01*
X0046870Y0045534D01*
X0046929Y0045543D01*
X0046990Y0045548D01*
X0047050Y0045550D01*
X0054050Y0045550D01*
X0054110Y0045548D01*
X0054171Y0045543D01*
X0054230Y0045534D01*
X0054289Y0045521D01*
X0054348Y0045505D01*
X0054405Y0045485D01*
X0054460Y0045462D01*
X0054515Y0045435D01*
X0054567Y0045406D01*
X0054618Y0045373D01*
X0054667Y0045337D01*
X0054713Y0045299D01*
X0054757Y0045257D01*
X0054799Y0045213D01*
X0054837Y0045167D01*
X0054873Y0045118D01*
X0054906Y0045067D01*
X0054935Y0045015D01*
X0054962Y0044960D01*
X0054985Y0044905D01*
X0055005Y0044848D01*
X0055021Y0044789D01*
X0055034Y0044730D01*
X0055043Y0044671D01*
X0055048Y0044610D01*
X0055050Y0044550D01*
X0055050Y0043050D01*
X0042550Y0048050D02*
X0042550Y0049550D01*
X0042548Y0049610D01*
X0042543Y0049671D01*
X0042534Y0049730D01*
X0042521Y0049789D01*
X0042505Y0049848D01*
X0042485Y0049905D01*
X0042462Y0049960D01*
X0042435Y0050015D01*
X0042406Y0050067D01*
X0042373Y0050118D01*
X0042337Y0050167D01*
X0042299Y0050213D01*
X0042257Y0050257D01*
X0042213Y0050299D01*
X0042167Y0050337D01*
X0042118Y0050373D01*
X0042067Y0050406D01*
X0042015Y0050435D01*
X0041960Y0050462D01*
X0041905Y0050485D01*
X0041848Y0050505D01*
X0041789Y0050521D01*
X0041730Y0050534D01*
X0041671Y0050543D01*
X0041610Y0050548D01*
X0041550Y0050550D01*
X0034550Y0050550D01*
X0034490Y0050548D01*
X0034429Y0050543D01*
X0034370Y0050534D01*
X0034311Y0050521D01*
X0034252Y0050505D01*
X0034195Y0050485D01*
X0034140Y0050462D01*
X0034085Y0050435D01*
X0034033Y0050406D01*
X0033982Y0050373D01*
X0033933Y0050337D01*
X0033887Y0050299D01*
X0033843Y0050257D01*
X0033801Y0050213D01*
X0033763Y0050167D01*
X0033727Y0050118D01*
X0033694Y0050067D01*
X0033665Y0050015D01*
X0033638Y0049960D01*
X0033615Y0049905D01*
X0033595Y0049848D01*
X0033579Y0049789D01*
X0033566Y0049730D01*
X0033557Y0049671D01*
X0033552Y0049610D01*
X0033550Y0049550D01*
X0033550Y0048050D01*
X0034050Y0047550D01*
X0034050Y0028550D01*
X0033550Y0028050D01*
X0033550Y0026550D01*
X0033552Y0026490D01*
X0033557Y0026429D01*
X0033566Y0026370D01*
X0033579Y0026311D01*
X0033595Y0026252D01*
X0033615Y0026195D01*
X0033638Y0026140D01*
X0033665Y0026085D01*
X0033694Y0026033D01*
X0033727Y0025982D01*
X0033763Y0025933D01*
X0033801Y0025887D01*
X0033843Y0025843D01*
X0033887Y0025801D01*
X0033933Y0025763D01*
X0033982Y0025727D01*
X0034033Y0025694D01*
X0034085Y0025665D01*
X0034140Y0025638D01*
X0034195Y0025615D01*
X0034252Y0025595D01*
X0034311Y0025579D01*
X0034370Y0025566D01*
X0034429Y0025557D01*
X0034490Y0025552D01*
X0034550Y0025550D01*
X0041550Y0025550D01*
X0041610Y0025552D01*
X0041671Y0025557D01*
X0041730Y0025566D01*
X0041789Y0025579D01*
X0041848Y0025595D01*
X0041905Y0025615D01*
X0041960Y0025638D01*
X0042015Y0025665D01*
X0042067Y0025694D01*
X0042118Y0025727D01*
X0042167Y0025763D01*
X0042213Y0025801D01*
X0042257Y0025843D01*
X0042299Y0025887D01*
X0042337Y0025933D01*
X0042373Y0025982D01*
X0042406Y0026033D01*
X0042435Y0026085D01*
X0042462Y0026140D01*
X0042485Y0026195D01*
X0042505Y0026252D01*
X0042521Y0026311D01*
X0042534Y0026370D01*
X0042543Y0026429D01*
X0042548Y0026490D01*
X0042550Y0026550D01*
X0042550Y0028050D01*
X0042050Y0028550D01*
X0042050Y0047550D01*
X0042550Y0048050D01*
X0018050Y0050800D02*
X0017898Y0050802D01*
X0017747Y0050808D01*
X0017596Y0050817D01*
X0017444Y0050831D01*
X0017294Y0050848D01*
X0017144Y0050869D01*
X0016994Y0050894D01*
X0016845Y0050922D01*
X0016697Y0050955D01*
X0016550Y0050991D01*
X0016403Y0051030D01*
X0016258Y0051074D01*
X0016114Y0051121D01*
X0015971Y0051172D01*
X0015830Y0051226D01*
X0015689Y0051284D01*
X0015551Y0051345D01*
X0015414Y0051410D01*
X0015278Y0051479D01*
X0015145Y0051550D01*
X0015013Y0051625D01*
X0014883Y0051704D01*
X0014756Y0051785D01*
X0014630Y0051870D01*
X0014506Y0051958D01*
X0014385Y0052049D01*
X0014266Y0052143D01*
X0014150Y0052241D01*
X0014036Y0052341D01*
X0013924Y0052443D01*
X0013816Y0052549D01*
X0013710Y0052657D01*
X0013606Y0052768D01*
X0013506Y0052882D01*
X0013408Y0052998D01*
X0013314Y0053117D01*
X0018050Y0062800D02*
X0018204Y0062798D01*
X0018358Y0062792D01*
X0018512Y0062782D01*
X0018666Y0062768D01*
X0018819Y0062751D01*
X0018971Y0062729D01*
X0019123Y0062703D01*
X0019275Y0062674D01*
X0019425Y0062640D01*
X0019575Y0062603D01*
X0019723Y0062562D01*
X0019871Y0062517D01*
X0020017Y0062468D01*
X0020162Y0062416D01*
X0020305Y0062360D01*
X0020448Y0062300D01*
X0020588Y0062237D01*
X0020727Y0062170D01*
X0020864Y0062099D01*
X0020999Y0062025D01*
X0021132Y0061948D01*
X0021264Y0061867D01*
X0021393Y0061783D01*
X0021520Y0061695D01*
X0021644Y0061604D01*
X0021766Y0061511D01*
X0021886Y0061413D01*
X0022003Y0061313D01*
X0022118Y0061210D01*
X0022230Y0061104D01*
X0022339Y0060996D01*
X0022445Y0060884D01*
X0022549Y0060770D01*
X0022649Y0060653D01*
X0022747Y0060534D01*
X0022841Y0060412D01*
X0022932Y0060287D01*
X0018050Y0062800D02*
X0017900Y0062798D01*
X0017749Y0062792D01*
X0017599Y0062783D01*
X0017450Y0062770D01*
X0017300Y0062753D01*
X0017151Y0062732D01*
X0017003Y0062708D01*
X0016855Y0062680D01*
X0016708Y0062648D01*
X0016562Y0062613D01*
X0016417Y0062573D01*
X0016273Y0062531D01*
X0016130Y0062484D01*
X0015988Y0062434D01*
X0015847Y0062381D01*
X0015708Y0062324D01*
X0015570Y0062264D01*
X0015434Y0062200D01*
X0015300Y0062133D01*
X0015167Y0062062D01*
X0015036Y0061988D01*
X0014907Y0061911D01*
X0014780Y0061830D01*
X0014655Y0061747D01*
X0014532Y0061660D01*
X0014411Y0061571D01*
X0014293Y0061478D01*
X0014177Y0061382D01*
X0014063Y0061284D01*
X0013952Y0061183D01*
X0013843Y0061078D01*
X0013738Y0060972D01*
X0013634Y0060862D01*
X0013534Y0060750D01*
X0013436Y0060636D01*
X0013342Y0060519D01*
X0013250Y0060400D01*
X0018050Y0050800D02*
X0018202Y0050802D01*
X0018353Y0050808D01*
X0018504Y0050817D01*
X0018656Y0050831D01*
X0018806Y0050848D01*
X0018956Y0050869D01*
X0019106Y0050894D01*
X0019255Y0050922D01*
X0019403Y0050955D01*
X0019550Y0050991D01*
X0019697Y0051030D01*
X0019842Y0051074D01*
X0019986Y0051121D01*
X0020129Y0051172D01*
X0020270Y0051226D01*
X0020411Y0051284D01*
X0020549Y0051345D01*
X0020686Y0051410D01*
X0020822Y0051479D01*
X0020955Y0051550D01*
X0021087Y0051625D01*
X0021217Y0051704D01*
X0021344Y0051785D01*
X0021470Y0051870D01*
X0021594Y0051958D01*
X0021715Y0052049D01*
X0021834Y0052143D01*
X0021950Y0052241D01*
X0022064Y0052341D01*
X0022176Y0052443D01*
X0022284Y0052549D01*
X0022390Y0052657D01*
X0022494Y0052768D01*
X0022594Y0052882D01*
X0022692Y0052998D01*
X0022786Y0053117D01*
X0090550Y0014050D02*
X0090550Y0007050D01*
X0090552Y0006990D01*
X0090557Y0006929D01*
X0090566Y0006870D01*
X0090579Y0006811D01*
X0090595Y0006752D01*
X0090615Y0006695D01*
X0090638Y0006640D01*
X0090665Y0006585D01*
X0090694Y0006533D01*
X0090727Y0006482D01*
X0090763Y0006433D01*
X0090801Y0006387D01*
X0090843Y0006343D01*
X0090887Y0006301D01*
X0090933Y0006263D01*
X0090982Y0006227D01*
X0091033Y0006194D01*
X0091085Y0006165D01*
X0091140Y0006138D01*
X0091195Y0006115D01*
X0091252Y0006095D01*
X0091311Y0006079D01*
X0091370Y0006066D01*
X0091429Y0006057D01*
X0091490Y0006052D01*
X0091550Y0006050D01*
X0093050Y0006050D01*
X0093550Y0006550D01*
X0112550Y0006550D01*
X0113050Y0006050D01*
X0114550Y0006050D01*
X0114610Y0006052D01*
X0114671Y0006057D01*
X0114730Y0006066D01*
X0114789Y0006079D01*
X0114848Y0006095D01*
X0114905Y0006115D01*
X0114960Y0006138D01*
X0115015Y0006165D01*
X0115067Y0006194D01*
X0115118Y0006227D01*
X0115167Y0006263D01*
X0115213Y0006301D01*
X0115257Y0006343D01*
X0115299Y0006387D01*
X0115337Y0006433D01*
X0115373Y0006482D01*
X0115406Y0006533D01*
X0115435Y0006585D01*
X0115462Y0006640D01*
X0115485Y0006695D01*
X0115505Y0006752D01*
X0115521Y0006811D01*
X0115534Y0006870D01*
X0115543Y0006929D01*
X0115548Y0006990D01*
X0115550Y0007050D01*
X0115550Y0014050D01*
X0115548Y0014110D01*
X0115543Y0014171D01*
X0115534Y0014230D01*
X0115521Y0014289D01*
X0115505Y0014348D01*
X0115485Y0014405D01*
X0115462Y0014460D01*
X0115435Y0014515D01*
X0115406Y0014567D01*
X0115373Y0014618D01*
X0115337Y0014667D01*
X0115299Y0014713D01*
X0115257Y0014757D01*
X0115213Y0014799D01*
X0115167Y0014837D01*
X0115118Y0014873D01*
X0115067Y0014906D01*
X0115015Y0014935D01*
X0114960Y0014962D01*
X0114905Y0014985D01*
X0114848Y0015005D01*
X0114789Y0015021D01*
X0114730Y0015034D01*
X0114671Y0015043D01*
X0114610Y0015048D01*
X0114550Y0015050D01*
X0113050Y0015050D01*
X0112550Y0014550D01*
X0093550Y0014550D01*
X0093050Y0015050D01*
X0091550Y0015050D01*
X0091490Y0015048D01*
X0091429Y0015043D01*
X0091370Y0015034D01*
X0091311Y0015021D01*
X0091252Y0015005D01*
X0091195Y0014985D01*
X0091140Y0014962D01*
X0091085Y0014935D01*
X0091033Y0014906D01*
X0090982Y0014873D01*
X0090933Y0014837D01*
X0090887Y0014799D01*
X0090843Y0014757D01*
X0090801Y0014713D01*
X0090763Y0014667D01*
X0090727Y0014618D01*
X0090694Y0014567D01*
X0090665Y0014515D01*
X0090638Y0014460D01*
X0090615Y0014405D01*
X0090595Y0014348D01*
X0090579Y0014289D01*
X0090566Y0014230D01*
X0090557Y0014171D01*
X0090552Y0014110D01*
X0090550Y0014050D01*
X0179300Y0019050D02*
X0179452Y0019048D01*
X0179603Y0019042D01*
X0179754Y0019033D01*
X0179906Y0019019D01*
X0180056Y0019002D01*
X0180206Y0018981D01*
X0180356Y0018956D01*
X0180505Y0018928D01*
X0180653Y0018895D01*
X0180800Y0018859D01*
X0180947Y0018820D01*
X0181092Y0018776D01*
X0181236Y0018729D01*
X0181379Y0018678D01*
X0181520Y0018624D01*
X0181661Y0018566D01*
X0181799Y0018505D01*
X0181936Y0018440D01*
X0182072Y0018371D01*
X0182205Y0018300D01*
X0182337Y0018225D01*
X0182467Y0018146D01*
X0182594Y0018065D01*
X0182720Y0017980D01*
X0182844Y0017892D01*
X0182965Y0017801D01*
X0183084Y0017707D01*
X0183200Y0017609D01*
X0183314Y0017509D01*
X0183426Y0017407D01*
X0183534Y0017301D01*
X0183640Y0017193D01*
X0183744Y0017082D01*
X0183844Y0016968D01*
X0183942Y0016852D01*
X0184036Y0016733D01*
X0179300Y0007050D02*
X0179146Y0007052D01*
X0178992Y0007058D01*
X0178838Y0007068D01*
X0178684Y0007082D01*
X0178531Y0007099D01*
X0178379Y0007121D01*
X0178227Y0007147D01*
X0178075Y0007176D01*
X0177925Y0007210D01*
X0177775Y0007247D01*
X0177627Y0007288D01*
X0177479Y0007333D01*
X0177333Y0007382D01*
X0177188Y0007434D01*
X0177045Y0007490D01*
X0176902Y0007550D01*
X0176762Y0007613D01*
X0176623Y0007680D01*
X0176486Y0007751D01*
X0176351Y0007825D01*
X0176218Y0007902D01*
X0176086Y0007983D01*
X0175957Y0008067D01*
X0175830Y0008155D01*
X0175706Y0008246D01*
X0175584Y0008339D01*
X0175464Y0008437D01*
X0175347Y0008537D01*
X0175232Y0008640D01*
X0175120Y0008746D01*
X0175011Y0008854D01*
X0174905Y0008966D01*
X0174801Y0009080D01*
X0174701Y0009197D01*
X0174603Y0009316D01*
X0174509Y0009438D01*
X0174418Y0009563D01*
X0179300Y0007050D02*
X0179450Y0007052D01*
X0179601Y0007058D01*
X0179751Y0007067D01*
X0179900Y0007080D01*
X0180050Y0007097D01*
X0180199Y0007118D01*
X0180347Y0007142D01*
X0180495Y0007170D01*
X0180642Y0007202D01*
X0180788Y0007237D01*
X0180933Y0007277D01*
X0181077Y0007319D01*
X0181220Y0007366D01*
X0181362Y0007416D01*
X0181503Y0007469D01*
X0181642Y0007526D01*
X0181780Y0007586D01*
X0181916Y0007650D01*
X0182050Y0007717D01*
X0182183Y0007788D01*
X0182314Y0007862D01*
X0182443Y0007939D01*
X0182570Y0008020D01*
X0182695Y0008103D01*
X0182818Y0008190D01*
X0182939Y0008279D01*
X0183057Y0008372D01*
X0183173Y0008468D01*
X0183287Y0008566D01*
X0183398Y0008667D01*
X0183507Y0008772D01*
X0183612Y0008878D01*
X0183716Y0008988D01*
X0183816Y0009100D01*
X0183914Y0009214D01*
X0184008Y0009331D01*
X0184100Y0009450D01*
X0179300Y0019050D02*
X0179148Y0019048D01*
X0178997Y0019042D01*
X0178846Y0019033D01*
X0178694Y0019019D01*
X0178544Y0019002D01*
X0178394Y0018981D01*
X0178244Y0018956D01*
X0178095Y0018928D01*
X0177947Y0018895D01*
X0177800Y0018859D01*
X0177653Y0018820D01*
X0177508Y0018776D01*
X0177364Y0018729D01*
X0177221Y0018678D01*
X0177080Y0018624D01*
X0176939Y0018566D01*
X0176801Y0018505D01*
X0176664Y0018440D01*
X0176528Y0018371D01*
X0176395Y0018300D01*
X0176263Y0018225D01*
X0176133Y0018146D01*
X0176006Y0018065D01*
X0175880Y0017980D01*
X0175756Y0017892D01*
X0175635Y0017801D01*
X0175516Y0017707D01*
X0175400Y0017609D01*
X0175286Y0017509D01*
X0175174Y0017407D01*
X0175066Y0017301D01*
X0174960Y0017193D01*
X0174856Y0017082D01*
X0174756Y0016968D01*
X0174658Y0016852D01*
X0174564Y0016733D01*
D14*
X0074800Y0031750D02*
X0068800Y0031750D01*
X0068800Y0034250D02*
X0074800Y0034250D01*
X0126300Y0151750D02*
X0132300Y0151750D01*
X0132300Y0154250D02*
X0126300Y0154250D01*
X0140050Y0189350D02*
X0146050Y0189350D01*
X0146050Y0191850D02*
X0140050Y0191850D01*
X0057300Y0174250D02*
X0051300Y0174250D01*
X0051300Y0171750D02*
X0057300Y0171750D01*
D15*
X0011800Y0140550D02*
X0011800Y0135550D01*
X0009300Y0133050D01*
X0011800Y0130550D01*
X0011800Y0125550D01*
X0009300Y0123050D01*
X0011800Y0120550D01*
X0011800Y0115550D01*
X0009300Y0113050D01*
X0011800Y0110550D01*
X0011800Y0105550D01*
X0009300Y0103050D01*
X0011800Y0100550D01*
X0011800Y0095550D01*
X0009300Y0093050D01*
X0011800Y0090550D01*
X0011800Y0085550D01*
X0009300Y0083050D01*
X0011800Y0080550D01*
X0011800Y0075550D01*
X0009300Y0073050D01*
X0011800Y0070550D01*
X0011800Y0065550D01*
X0009300Y0063050D01*
X0004300Y0063050D01*
X0001800Y0065550D01*
X0001800Y0070550D01*
X0004300Y0073050D01*
X0001800Y0075550D01*
X0001800Y0080550D01*
X0004300Y0083050D01*
X0001800Y0085550D01*
X0001800Y0090550D01*
X0004300Y0093050D01*
X0001800Y0095550D01*
X0001800Y0100550D01*
X0004300Y0103050D01*
X0001800Y0105550D01*
X0001800Y0110550D01*
X0004300Y0113050D01*
X0001800Y0115550D01*
X0001800Y0120550D01*
X0004300Y0123050D01*
X0001800Y0125550D01*
X0001800Y0130550D01*
X0004300Y0133050D01*
X0001800Y0135550D01*
X0001800Y0140550D01*
X0004300Y0143050D01*
X0009300Y0143050D01*
X0011800Y0140550D01*
X0189300Y0140550D02*
X0189300Y0135550D01*
X0191800Y0133050D01*
X0189300Y0130550D01*
X0189300Y0125550D01*
X0191800Y0123050D01*
X0189300Y0120550D01*
X0189300Y0115550D01*
X0191800Y0113050D01*
X0189300Y0110550D01*
X0189300Y0105550D01*
X0191800Y0103050D01*
X0189300Y0100550D01*
X0189300Y0095550D01*
X0191800Y0093050D01*
X0189300Y0090550D01*
X0189300Y0085550D01*
X0191800Y0083050D01*
X0189300Y0080550D01*
X0189300Y0075550D01*
X0191800Y0073050D01*
X0189300Y0070550D01*
X0189300Y0065550D01*
X0191800Y0063050D01*
X0196800Y0063050D01*
X0199300Y0065550D01*
X0199300Y0070550D01*
X0196800Y0073050D01*
X0199300Y0075550D01*
X0199300Y0080550D01*
X0196800Y0083050D01*
X0199300Y0085550D01*
X0199300Y0090550D01*
X0196800Y0093050D01*
X0199300Y0095550D01*
X0199300Y0100550D01*
X0196800Y0103050D01*
X0199300Y0105550D01*
X0199300Y0110550D01*
X0196800Y0113050D01*
X0199300Y0115550D01*
X0199300Y0120550D01*
X0196800Y0123050D01*
X0199300Y0125550D01*
X0199300Y0130550D01*
X0196800Y0133050D01*
X0199300Y0135550D01*
X0199300Y0140550D01*
X0196800Y0143050D01*
X0191800Y0143050D01*
X0189300Y0140550D01*
X0191800Y0145550D02*
X0196800Y0145550D01*
X0199300Y0148050D01*
X0199300Y0153050D01*
X0196800Y0155550D01*
X0199300Y0158050D01*
X0199300Y0163050D01*
X0196800Y0165550D01*
X0199300Y0168050D01*
X0199300Y0173050D01*
X0196800Y0175550D01*
X0199300Y0178050D01*
X0199300Y0183050D01*
X0196800Y0185550D01*
X0199300Y0188050D01*
X0199300Y0193050D01*
X0196800Y0195550D01*
X0191800Y0195550D01*
X0189300Y0193050D01*
X0189300Y0188050D01*
X0191800Y0185550D01*
X0189300Y0183050D01*
X0189300Y0178050D01*
X0191800Y0175550D01*
X0189300Y0173050D01*
X0189300Y0168050D01*
X0191800Y0165550D01*
X0189300Y0163050D01*
X0189300Y0158050D01*
X0191800Y0155550D01*
X0189300Y0153050D01*
X0189300Y0148050D01*
X0191800Y0145550D01*
D16*
X0179300Y0021050D02*
X0179495Y0021048D01*
X0179691Y0021040D01*
X0179886Y0021028D01*
X0180081Y0021012D01*
X0180276Y0020990D01*
X0180470Y0020964D01*
X0180663Y0020933D01*
X0180855Y0020897D01*
X0181047Y0020857D01*
X0181237Y0020812D01*
X0181426Y0020762D01*
X0181614Y0020708D01*
X0181801Y0020649D01*
X0181986Y0020586D01*
X0182169Y0020518D01*
X0182351Y0020445D01*
X0182531Y0020369D01*
X0182709Y0020287D01*
X0182885Y0020202D01*
X0183059Y0020112D01*
X0183230Y0020018D01*
X0183400Y0019920D01*
X0183566Y0019817D01*
X0183731Y0019711D01*
X0183892Y0019601D01*
X0184051Y0019487D01*
X0184207Y0019368D01*
X0184360Y0019247D01*
X0184510Y0019121D01*
X0184657Y0018992D01*
X0184801Y0018859D01*
X0184941Y0018723D01*
X0185078Y0018583D01*
X0185212Y0018440D01*
X0185342Y0018294D01*
X0185468Y0018145D01*
X0185591Y0017992D01*
X0185710Y0017837D01*
X0185825Y0017679D01*
X0185936Y0017518D01*
X0186043Y0017354D01*
X0186147Y0017188D01*
X0186246Y0017019D01*
X0179300Y0005050D02*
X0179105Y0005052D01*
X0178911Y0005059D01*
X0178717Y0005071D01*
X0178523Y0005088D01*
X0178329Y0005109D01*
X0178136Y0005135D01*
X0177944Y0005166D01*
X0177752Y0005201D01*
X0177562Y0005241D01*
X0177372Y0005286D01*
X0177184Y0005335D01*
X0176997Y0005389D01*
X0176811Y0005447D01*
X0176627Y0005510D01*
X0176444Y0005577D01*
X0176263Y0005649D01*
X0176084Y0005725D01*
X0175907Y0005805D01*
X0175732Y0005890D01*
X0175558Y0005979D01*
X0175388Y0006072D01*
X0175219Y0006169D01*
X0175053Y0006271D01*
X0174889Y0006376D01*
X0174728Y0006485D01*
X0174569Y0006598D01*
X0174414Y0006715D01*
X0174261Y0006836D01*
X0174112Y0006961D01*
X0173965Y0007089D01*
X0173821Y0007220D01*
X0173681Y0007355D01*
X0173544Y0007494D01*
X0173411Y0007635D01*
X0173281Y0007780D01*
X0173154Y0007928D01*
X0179300Y0005050D02*
X0179492Y0005052D01*
X0179684Y0005059D01*
X0179876Y0005071D01*
X0180068Y0005087D01*
X0180259Y0005108D01*
X0180449Y0005133D01*
X0180639Y0005163D01*
X0180828Y0005197D01*
X0181016Y0005236D01*
X0181203Y0005280D01*
X0181389Y0005328D01*
X0181574Y0005380D01*
X0181758Y0005437D01*
X0181940Y0005498D01*
X0182120Y0005564D01*
X0182299Y0005634D01*
X0182477Y0005708D01*
X0182652Y0005786D01*
X0182826Y0005869D01*
X0182997Y0005956D01*
X0183166Y0006046D01*
X0183333Y0006141D01*
X0183498Y0006240D01*
X0183661Y0006343D01*
X0183820Y0006450D01*
X0183978Y0006560D01*
X0184132Y0006674D01*
X0184284Y0006792D01*
X0184433Y0006914D01*
X0184579Y0007039D01*
X0184721Y0007167D01*
X0184861Y0007299D01*
X0184998Y0007434D01*
X0185131Y0007573D01*
X0185261Y0007714D01*
X0185387Y0007859D01*
X0185510Y0008007D01*
X0185629Y0008157D01*
X0185745Y0008311D01*
X0185857Y0008467D01*
X0185965Y0008626D01*
X0186070Y0008787D01*
X0186170Y0008951D01*
X0186266Y0009117D01*
X0186359Y0009285D01*
X0179300Y0021050D02*
X0179107Y0021048D01*
X0178914Y0021041D01*
X0178722Y0021029D01*
X0178529Y0021013D01*
X0178337Y0020992D01*
X0178146Y0020966D01*
X0177956Y0020936D01*
X0177766Y0020901D01*
X0177577Y0020862D01*
X0177389Y0020818D01*
X0177202Y0020770D01*
X0177016Y0020717D01*
X0176832Y0020660D01*
X0176649Y0020598D01*
X0176468Y0020532D01*
X0176288Y0020461D01*
X0176110Y0020387D01*
X0175934Y0020308D01*
X0175760Y0020224D01*
X0175588Y0020137D01*
X0175418Y0020045D01*
X0175251Y0019949D01*
X0175085Y0019850D01*
X0174922Y0019746D01*
X0174762Y0019639D01*
X0174605Y0019527D01*
X0174450Y0019412D01*
X0174298Y0019293D01*
X0174149Y0019171D01*
X0174002Y0019045D01*
X0173859Y0018915D01*
X0173719Y0018782D01*
X0173583Y0018646D01*
X0173449Y0018506D01*
X0173320Y0018364D01*
X0173193Y0018218D01*
X0018050Y0064800D02*
X0017858Y0064798D01*
X0017666Y0064791D01*
X0017474Y0064779D01*
X0017282Y0064763D01*
X0017091Y0064742D01*
X0016901Y0064717D01*
X0016711Y0064687D01*
X0016522Y0064653D01*
X0016334Y0064614D01*
X0016147Y0064570D01*
X0015961Y0064522D01*
X0015776Y0064470D01*
X0015592Y0064413D01*
X0015410Y0064352D01*
X0015230Y0064286D01*
X0015051Y0064216D01*
X0014873Y0064142D01*
X0014698Y0064064D01*
X0014524Y0063981D01*
X0014353Y0063894D01*
X0014184Y0063804D01*
X0014017Y0063709D01*
X0013852Y0063610D01*
X0013689Y0063507D01*
X0013530Y0063400D01*
X0013372Y0063290D01*
X0013218Y0063176D01*
X0013066Y0063058D01*
X0012917Y0062936D01*
X0012771Y0062811D01*
X0012629Y0062683D01*
X0012489Y0062551D01*
X0012352Y0062416D01*
X0012219Y0062277D01*
X0012089Y0062136D01*
X0011963Y0061991D01*
X0011840Y0061843D01*
X0011721Y0061693D01*
X0011605Y0061539D01*
X0011493Y0061383D01*
X0011385Y0061224D01*
X0011280Y0061063D01*
X0011180Y0060899D01*
X0011084Y0060733D01*
X0010991Y0060565D01*
X0011104Y0052831D02*
X0011203Y0052662D01*
X0011307Y0052496D01*
X0011414Y0052332D01*
X0011525Y0052171D01*
X0011640Y0052013D01*
X0011759Y0051858D01*
X0011882Y0051705D01*
X0012008Y0051556D01*
X0012138Y0051410D01*
X0012272Y0051267D01*
X0012409Y0051127D01*
X0012549Y0050991D01*
X0012693Y0050858D01*
X0012840Y0050729D01*
X0012990Y0050603D01*
X0013143Y0050482D01*
X0013299Y0050363D01*
X0013458Y0050249D01*
X0013619Y0050139D01*
X0013784Y0050033D01*
X0013950Y0049930D01*
X0014120Y0049832D01*
X0014291Y0049738D01*
X0014465Y0049648D01*
X0014641Y0049563D01*
X0014819Y0049481D01*
X0014999Y0049405D01*
X0015181Y0049332D01*
X0015364Y0049264D01*
X0015549Y0049201D01*
X0015736Y0049142D01*
X0015924Y0049088D01*
X0016113Y0049038D01*
X0016303Y0048993D01*
X0016495Y0048953D01*
X0016687Y0048917D01*
X0016880Y0048886D01*
X0017074Y0048860D01*
X0017269Y0048838D01*
X0017464Y0048822D01*
X0017659Y0048810D01*
X0017855Y0048802D01*
X0018050Y0048800D01*
X0018243Y0048802D01*
X0018436Y0048809D01*
X0018628Y0048821D01*
X0018821Y0048837D01*
X0019013Y0048858D01*
X0019204Y0048884D01*
X0019394Y0048914D01*
X0019584Y0048949D01*
X0019773Y0048988D01*
X0019961Y0049032D01*
X0020148Y0049080D01*
X0020334Y0049133D01*
X0020518Y0049190D01*
X0020701Y0049252D01*
X0020882Y0049318D01*
X0021062Y0049389D01*
X0021240Y0049463D01*
X0021416Y0049542D01*
X0021590Y0049626D01*
X0021762Y0049713D01*
X0021932Y0049805D01*
X0022099Y0049901D01*
X0022265Y0050000D01*
X0022428Y0050104D01*
X0022588Y0050211D01*
X0022745Y0050323D01*
X0022900Y0050438D01*
X0023052Y0050557D01*
X0023201Y0050679D01*
X0023348Y0050805D01*
X0023491Y0050935D01*
X0023631Y0051068D01*
X0023767Y0051204D01*
X0023901Y0051344D01*
X0024030Y0051486D01*
X0024157Y0051632D01*
X0024196Y0061922D02*
X0024069Y0062070D01*
X0023939Y0062215D01*
X0023806Y0062356D01*
X0023669Y0062495D01*
X0023529Y0062630D01*
X0023385Y0062761D01*
X0023238Y0062889D01*
X0023089Y0063014D01*
X0022936Y0063135D01*
X0022781Y0063252D01*
X0022622Y0063365D01*
X0022461Y0063474D01*
X0022297Y0063579D01*
X0022131Y0063681D01*
X0021962Y0063778D01*
X0021792Y0063871D01*
X0021618Y0063960D01*
X0021443Y0064045D01*
X0021266Y0064125D01*
X0021087Y0064201D01*
X0020906Y0064273D01*
X0020723Y0064340D01*
X0020539Y0064403D01*
X0020353Y0064461D01*
X0020166Y0064515D01*
X0019978Y0064564D01*
X0019788Y0064609D01*
X0019598Y0064649D01*
X0019406Y0064684D01*
X0019214Y0064715D01*
X0019021Y0064741D01*
X0018827Y0064762D01*
X0018633Y0064779D01*
X0018439Y0064791D01*
X0018245Y0064798D01*
X0018050Y0064800D01*
D17*
X0088850Y0010550D03*
X0117250Y0010550D03*
X0145100Y0165550D03*
X0173500Y0165550D03*
D18*
X0050550Y0047250D03*
X0038050Y0052250D03*
X0038050Y0023850D03*
X0050550Y0018850D03*
D19*
X0006695Y0018050D02*
X0006699Y0018359D01*
X0006710Y0018668D01*
X0006729Y0018977D01*
X0006756Y0019286D01*
X0006790Y0019593D01*
X0006831Y0019900D01*
X0006881Y0020205D01*
X0006937Y0020509D01*
X0007001Y0020812D01*
X0007073Y0021113D01*
X0007152Y0021412D01*
X0007238Y0021709D01*
X0007331Y0022004D01*
X0007432Y0022296D01*
X0007540Y0022586D01*
X0007654Y0022874D01*
X0007776Y0023158D01*
X0007905Y0023439D01*
X0008041Y0023717D01*
X0008183Y0023992D01*
X0008333Y0024263D01*
X0008488Y0024530D01*
X0008651Y0024794D01*
X0008819Y0025053D01*
X0008994Y0025308D01*
X0009176Y0025559D01*
X0009363Y0025805D01*
X0009556Y0026047D01*
X0009755Y0026283D01*
X0009960Y0026515D01*
X0010171Y0026742D01*
X0010387Y0026963D01*
X0010608Y0027179D01*
X0010835Y0027390D01*
X0011067Y0027595D01*
X0011303Y0027794D01*
X0011545Y0027987D01*
X0011791Y0028174D01*
X0012042Y0028356D01*
X0012297Y0028531D01*
X0012556Y0028699D01*
X0012820Y0028862D01*
X0013087Y0029017D01*
X0013358Y0029167D01*
X0013633Y0029309D01*
X0013911Y0029445D01*
X0014192Y0029574D01*
X0014476Y0029696D01*
X0014764Y0029810D01*
X0015054Y0029918D01*
X0015346Y0030019D01*
X0015641Y0030112D01*
X0015938Y0030198D01*
X0016237Y0030277D01*
X0016538Y0030349D01*
X0016841Y0030413D01*
X0017145Y0030469D01*
X0017450Y0030519D01*
X0017757Y0030560D01*
X0018064Y0030594D01*
X0018373Y0030621D01*
X0018682Y0030640D01*
X0018991Y0030651D01*
X0019300Y0030655D01*
X0019609Y0030651D01*
X0019918Y0030640D01*
X0020227Y0030621D01*
X0020536Y0030594D01*
X0020843Y0030560D01*
X0021150Y0030519D01*
X0021455Y0030469D01*
X0021759Y0030413D01*
X0022062Y0030349D01*
X0022363Y0030277D01*
X0022662Y0030198D01*
X0022959Y0030112D01*
X0023254Y0030019D01*
X0023546Y0029918D01*
X0023836Y0029810D01*
X0024124Y0029696D01*
X0024408Y0029574D01*
X0024689Y0029445D01*
X0024967Y0029309D01*
X0025242Y0029167D01*
X0025513Y0029017D01*
X0025780Y0028862D01*
X0026044Y0028699D01*
X0026303Y0028531D01*
X0026558Y0028356D01*
X0026809Y0028174D01*
X0027055Y0027987D01*
X0027297Y0027794D01*
X0027533Y0027595D01*
X0027765Y0027390D01*
X0027992Y0027179D01*
X0028213Y0026963D01*
X0028429Y0026742D01*
X0028640Y0026515D01*
X0028845Y0026283D01*
X0029044Y0026047D01*
X0029237Y0025805D01*
X0029424Y0025559D01*
X0029606Y0025308D01*
X0029781Y0025053D01*
X0029949Y0024794D01*
X0030112Y0024530D01*
X0030267Y0024263D01*
X0030417Y0023992D01*
X0030559Y0023717D01*
X0030695Y0023439D01*
X0030824Y0023158D01*
X0030946Y0022874D01*
X0031060Y0022586D01*
X0031168Y0022296D01*
X0031269Y0022004D01*
X0031362Y0021709D01*
X0031448Y0021412D01*
X0031527Y0021113D01*
X0031599Y0020812D01*
X0031663Y0020509D01*
X0031719Y0020205D01*
X0031769Y0019900D01*
X0031810Y0019593D01*
X0031844Y0019286D01*
X0031871Y0018977D01*
X0031890Y0018668D01*
X0031901Y0018359D01*
X0031905Y0018050D01*
X0031901Y0017741D01*
X0031890Y0017432D01*
X0031871Y0017123D01*
X0031844Y0016814D01*
X0031810Y0016507D01*
X0031769Y0016200D01*
X0031719Y0015895D01*
X0031663Y0015591D01*
X0031599Y0015288D01*
X0031527Y0014987D01*
X0031448Y0014688D01*
X0031362Y0014391D01*
X0031269Y0014096D01*
X0031168Y0013804D01*
X0031060Y0013514D01*
X0030946Y0013226D01*
X0030824Y0012942D01*
X0030695Y0012661D01*
X0030559Y0012383D01*
X0030417Y0012108D01*
X0030267Y0011837D01*
X0030112Y0011570D01*
X0029949Y0011306D01*
X0029781Y0011047D01*
X0029606Y0010792D01*
X0029424Y0010541D01*
X0029237Y0010295D01*
X0029044Y0010053D01*
X0028845Y0009817D01*
X0028640Y0009585D01*
X0028429Y0009358D01*
X0028213Y0009137D01*
X0027992Y0008921D01*
X0027765Y0008710D01*
X0027533Y0008505D01*
X0027297Y0008306D01*
X0027055Y0008113D01*
X0026809Y0007926D01*
X0026558Y0007744D01*
X0026303Y0007569D01*
X0026044Y0007401D01*
X0025780Y0007238D01*
X0025513Y0007083D01*
X0025242Y0006933D01*
X0024967Y0006791D01*
X0024689Y0006655D01*
X0024408Y0006526D01*
X0024124Y0006404D01*
X0023836Y0006290D01*
X0023546Y0006182D01*
X0023254Y0006081D01*
X0022959Y0005988D01*
X0022662Y0005902D01*
X0022363Y0005823D01*
X0022062Y0005751D01*
X0021759Y0005687D01*
X0021455Y0005631D01*
X0021150Y0005581D01*
X0020843Y0005540D01*
X0020536Y0005506D01*
X0020227Y0005479D01*
X0019918Y0005460D01*
X0019609Y0005449D01*
X0019300Y0005445D01*
X0018991Y0005449D01*
X0018682Y0005460D01*
X0018373Y0005479D01*
X0018064Y0005506D01*
X0017757Y0005540D01*
X0017450Y0005581D01*
X0017145Y0005631D01*
X0016841Y0005687D01*
X0016538Y0005751D01*
X0016237Y0005823D01*
X0015938Y0005902D01*
X0015641Y0005988D01*
X0015346Y0006081D01*
X0015054Y0006182D01*
X0014764Y0006290D01*
X0014476Y0006404D01*
X0014192Y0006526D01*
X0013911Y0006655D01*
X0013633Y0006791D01*
X0013358Y0006933D01*
X0013087Y0007083D01*
X0012820Y0007238D01*
X0012556Y0007401D01*
X0012297Y0007569D01*
X0012042Y0007744D01*
X0011791Y0007926D01*
X0011545Y0008113D01*
X0011303Y0008306D01*
X0011067Y0008505D01*
X0010835Y0008710D01*
X0010608Y0008921D01*
X0010387Y0009137D01*
X0010171Y0009358D01*
X0009960Y0009585D01*
X0009755Y0009817D01*
X0009556Y0010053D01*
X0009363Y0010295D01*
X0009176Y0010541D01*
X0008994Y0010792D01*
X0008819Y0011047D01*
X0008651Y0011306D01*
X0008488Y0011570D01*
X0008333Y0011837D01*
X0008183Y0012108D01*
X0008041Y0012383D01*
X0007905Y0012661D01*
X0007776Y0012942D01*
X0007654Y0013226D01*
X0007540Y0013514D01*
X0007432Y0013804D01*
X0007331Y0014096D01*
X0007238Y0014391D01*
X0007152Y0014688D01*
X0007073Y0014987D01*
X0007001Y0015288D01*
X0006937Y0015591D01*
X0006881Y0015895D01*
X0006831Y0016200D01*
X0006790Y0016507D01*
X0006756Y0016814D01*
X0006729Y0017123D01*
X0006710Y0017432D01*
X0006699Y0017741D01*
X0006695Y0018050D01*
X0062144Y0061052D02*
X0073956Y0061052D01*
X0073956Y0092548D01*
X0062144Y0092548D01*
X0062144Y0061052D01*
X0094546Y0061449D02*
X0095297Y0060699D01*
X0098299Y0060699D01*
X0099050Y0061449D01*
X0099050Y0062951D01*
X0098299Y0063701D01*
X0098299Y0065303D02*
X0099050Y0066053D01*
X0099050Y0067555D01*
X0098299Y0068305D01*
X0097549Y0068305D01*
X0096798Y0067555D01*
X0096798Y0066804D01*
X0096798Y0067555D02*
X0096047Y0068305D01*
X0095297Y0068305D01*
X0094546Y0067555D01*
X0094546Y0066053D01*
X0095297Y0065303D01*
X0095297Y0063701D02*
X0094546Y0062951D01*
X0094546Y0061449D01*
X0094546Y0059131D02*
X0094546Y0057630D01*
X0094546Y0058380D02*
X0099050Y0058380D01*
X0099050Y0057630D02*
X0099050Y0059131D01*
X0096798Y0056028D02*
X0097549Y0055278D01*
X0097549Y0053026D01*
X0099050Y0053026D02*
X0094546Y0053026D01*
X0094546Y0055278D01*
X0095297Y0056028D01*
X0096798Y0056028D01*
X0095297Y0069907D02*
X0094546Y0070657D01*
X0094546Y0072159D01*
X0095297Y0072909D01*
X0096047Y0072909D01*
X0099050Y0069907D01*
X0099050Y0072909D01*
X0099050Y0074511D02*
X0094546Y0074511D01*
X0096047Y0076012D01*
X0094546Y0077513D01*
X0099050Y0077513D01*
X0099050Y0079115D02*
X0094546Y0082117D01*
X0095297Y0083718D02*
X0094546Y0084469D01*
X0094546Y0085970D01*
X0095297Y0086721D01*
X0096047Y0086721D01*
X0099050Y0083718D01*
X0099050Y0086721D01*
X0098299Y0088322D02*
X0099050Y0089073D01*
X0099050Y0090574D01*
X0098299Y0091325D01*
X0096798Y0091325D01*
X0096047Y0090574D01*
X0096047Y0089824D01*
X0096798Y0088322D01*
X0094546Y0088322D01*
X0094546Y0091325D01*
X0095297Y0092926D02*
X0094546Y0093677D01*
X0094546Y0095178D01*
X0095297Y0095929D01*
X0098299Y0092926D01*
X0099050Y0093677D01*
X0099050Y0095178D01*
X0098299Y0095929D01*
X0095297Y0095929D01*
X0094546Y0097530D02*
X0094546Y0100533D01*
X0096047Y0102134D02*
X0094546Y0103635D01*
X0099050Y0103635D01*
X0099050Y0102134D02*
X0099050Y0105137D01*
X0099050Y0106738D02*
X0096047Y0109741D01*
X0095297Y0109741D01*
X0094546Y0108990D01*
X0094546Y0107489D01*
X0095297Y0106738D01*
X0099050Y0106738D02*
X0099050Y0109741D01*
X0098299Y0111342D02*
X0097549Y0111342D01*
X0096798Y0112093D01*
X0096798Y0113594D01*
X0097549Y0114345D01*
X0098299Y0114345D01*
X0099050Y0113594D01*
X0099050Y0112093D01*
X0098299Y0111342D01*
X0096798Y0112093D02*
X0096047Y0111342D01*
X0095297Y0111342D01*
X0094546Y0112093D01*
X0094546Y0113594D01*
X0095297Y0114345D01*
X0096047Y0114345D01*
X0096798Y0113594D01*
X0096798Y0115946D02*
X0096798Y0118198D01*
X0097549Y0118948D01*
X0098299Y0118948D01*
X0099050Y0118198D01*
X0099050Y0115946D01*
X0094546Y0115946D01*
X0094546Y0118198D01*
X0095297Y0118948D01*
X0096047Y0118948D01*
X0096798Y0118198D01*
X0096798Y0099032D02*
X0096798Y0097530D01*
X0099050Y0097530D02*
X0094546Y0097530D01*
X0095297Y0092926D02*
X0098299Y0092926D01*
X0099050Y0082117D02*
X0094546Y0079115D01*
X0094155Y0164300D02*
X0094155Y0168804D01*
X0092654Y0167303D01*
X0091053Y0168804D02*
X0091053Y0165051D01*
X0090302Y0164300D01*
X0088801Y0164300D01*
X0088050Y0165051D01*
X0088050Y0168804D01*
X0092654Y0164300D02*
X0095656Y0164300D01*
X0103796Y0179050D02*
X0087304Y0179050D01*
X0086677Y0184550D02*
X0085098Y0184550D01*
X0077548Y0183926D02*
X0046052Y0183926D01*
X0046052Y0199674D01*
X0061800Y0199674D01*
X0061800Y0211485D01*
X0069674Y0211485D01*
X0069674Y0199674D01*
X0077548Y0199674D01*
X0077548Y0183926D01*
X0069674Y0199674D02*
X0061800Y0199674D01*
X0094423Y0184550D02*
X0096677Y0184550D01*
X0087304Y0179050D02*
X0087151Y0179249D01*
X0087003Y0179451D01*
X0086860Y0179656D01*
X0086722Y0179865D01*
X0086589Y0180077D01*
X0086461Y0180292D01*
X0086339Y0180510D01*
X0086221Y0180731D01*
X0086109Y0180955D01*
X0086002Y0181181D01*
X0085901Y0181410D01*
X0085805Y0181641D01*
X0085714Y0181875D01*
X0085629Y0182110D01*
X0085550Y0182348D01*
X0085477Y0182587D01*
X0085409Y0182828D01*
X0085347Y0183070D01*
X0085291Y0183314D01*
X0085240Y0183560D01*
X0085196Y0183806D01*
X0085157Y0184053D01*
X0085125Y0184301D01*
X0085098Y0184550D01*
X0098646Y0195583D02*
X0098888Y0195505D01*
X0099128Y0195421D01*
X0099366Y0195332D01*
X0099602Y0195236D01*
X0099836Y0195135D01*
X0100067Y0195029D01*
X0100295Y0194916D01*
X0100521Y0194799D01*
X0100744Y0194676D01*
X0100963Y0194547D01*
X0101180Y0194413D01*
X0101393Y0194274D01*
X0101603Y0194130D01*
X0101809Y0193981D01*
X0102011Y0193827D01*
X0102210Y0193668D01*
X0102405Y0193504D01*
X0102596Y0193335D01*
X0102782Y0193162D01*
X0102965Y0192985D01*
X0103143Y0192803D01*
X0103316Y0192617D01*
X0103485Y0192426D01*
X0103649Y0192232D01*
X0103809Y0192034D01*
X0103964Y0191832D01*
X0104113Y0191626D01*
X0104258Y0191417D01*
X0104398Y0191204D01*
X0104532Y0190988D01*
X0104661Y0190768D01*
X0104785Y0190546D01*
X0104904Y0190321D01*
X0105016Y0190093D01*
X0105124Y0189862D01*
X0105225Y0189629D01*
X0105321Y0189393D01*
X0105412Y0189155D01*
X0105496Y0188915D01*
X0105575Y0188673D01*
X0105648Y0188429D01*
X0105714Y0188183D01*
X0105775Y0187936D01*
X0105830Y0187688D01*
X0105879Y0187438D01*
X0105922Y0187187D01*
X0105958Y0186935D01*
X0105989Y0186683D01*
X0106013Y0186429D01*
X0106031Y0186176D01*
X0106043Y0185921D01*
X0106049Y0185667D01*
X0106049Y0185412D01*
X0106043Y0185158D01*
X0106030Y0184904D01*
X0106011Y0184650D01*
X0105986Y0184397D01*
X0105955Y0184144D01*
X0105918Y0183892D01*
X0105875Y0183642D01*
X0105826Y0183392D01*
X0105771Y0183143D01*
X0105709Y0182896D01*
X0105642Y0182651D01*
X0105569Y0182407D01*
X0105490Y0182165D01*
X0105405Y0181926D01*
X0105314Y0181688D01*
X0105217Y0181452D01*
X0105115Y0181219D01*
X0105007Y0180989D01*
X0104894Y0180761D01*
X0104775Y0180536D01*
X0104651Y0180314D01*
X0104522Y0180095D01*
X0104387Y0179879D01*
X0104247Y0179666D01*
X0104101Y0179457D01*
X0103951Y0179252D01*
X0103796Y0179050D01*
X0104423Y0184550D02*
X0106002Y0184550D01*
X0092454Y0195583D02*
X0092210Y0195505D01*
X0091968Y0195420D01*
X0091729Y0195330D01*
X0091491Y0195234D01*
X0091256Y0195132D01*
X0091023Y0195024D01*
X0090793Y0194911D01*
X0090566Y0194792D01*
X0090342Y0194668D01*
X0090121Y0194538D01*
X0089904Y0194403D01*
X0089689Y0194262D01*
X0089478Y0194116D01*
X0089271Y0193966D01*
X0089068Y0193810D01*
X0088868Y0193649D01*
X0088672Y0193484D01*
X0088481Y0193314D01*
X0088293Y0193139D01*
X0088110Y0192959D01*
X0087932Y0192776D01*
X0087757Y0192587D01*
X0087588Y0192395D01*
X0087423Y0192199D01*
X0087263Y0191998D01*
X0087109Y0191794D01*
X0086959Y0191586D01*
X0086814Y0191375D01*
X0086674Y0191160D01*
X0086540Y0190942D01*
X0086411Y0190720D01*
X0086288Y0190496D01*
X0086170Y0190268D01*
X0086057Y0190038D01*
X0085951Y0189805D01*
X0085850Y0189569D01*
X0085754Y0189331D01*
X0085665Y0189091D01*
X0085582Y0188849D01*
X0085504Y0188604D01*
X0085433Y0188358D01*
X0085367Y0188110D01*
X0085308Y0187861D01*
X0085254Y0187611D01*
X0085207Y0187359D01*
X0085166Y0187106D01*
X0085131Y0186852D01*
X0085102Y0186597D01*
X0085080Y0186342D01*
X0085064Y0186086D01*
X0085054Y0185830D01*
X0085050Y0185574D01*
X0085053Y0185317D01*
X0085061Y0185061D01*
X0085076Y0184805D01*
X0085098Y0184550D01*
X0156695Y0186800D02*
X0156699Y0187109D01*
X0156710Y0187418D01*
X0156729Y0187727D01*
X0156756Y0188036D01*
X0156790Y0188343D01*
X0156831Y0188650D01*
X0156881Y0188955D01*
X0156937Y0189259D01*
X0157001Y0189562D01*
X0157073Y0189863D01*
X0157152Y0190162D01*
X0157238Y0190459D01*
X0157331Y0190754D01*
X0157432Y0191046D01*
X0157540Y0191336D01*
X0157654Y0191624D01*
X0157776Y0191908D01*
X0157905Y0192189D01*
X0158041Y0192467D01*
X0158183Y0192742D01*
X0158333Y0193013D01*
X0158488Y0193280D01*
X0158651Y0193544D01*
X0158819Y0193803D01*
X0158994Y0194058D01*
X0159176Y0194309D01*
X0159363Y0194555D01*
X0159556Y0194797D01*
X0159755Y0195033D01*
X0159960Y0195265D01*
X0160171Y0195492D01*
X0160387Y0195713D01*
X0160608Y0195929D01*
X0160835Y0196140D01*
X0161067Y0196345D01*
X0161303Y0196544D01*
X0161545Y0196737D01*
X0161791Y0196924D01*
X0162042Y0197106D01*
X0162297Y0197281D01*
X0162556Y0197449D01*
X0162820Y0197612D01*
X0163087Y0197767D01*
X0163358Y0197917D01*
X0163633Y0198059D01*
X0163911Y0198195D01*
X0164192Y0198324D01*
X0164476Y0198446D01*
X0164764Y0198560D01*
X0165054Y0198668D01*
X0165346Y0198769D01*
X0165641Y0198862D01*
X0165938Y0198948D01*
X0166237Y0199027D01*
X0166538Y0199099D01*
X0166841Y0199163D01*
X0167145Y0199219D01*
X0167450Y0199269D01*
X0167757Y0199310D01*
X0168064Y0199344D01*
X0168373Y0199371D01*
X0168682Y0199390D01*
X0168991Y0199401D01*
X0169300Y0199405D01*
X0169609Y0199401D01*
X0169918Y0199390D01*
X0170227Y0199371D01*
X0170536Y0199344D01*
X0170843Y0199310D01*
X0171150Y0199269D01*
X0171455Y0199219D01*
X0171759Y0199163D01*
X0172062Y0199099D01*
X0172363Y0199027D01*
X0172662Y0198948D01*
X0172959Y0198862D01*
X0173254Y0198769D01*
X0173546Y0198668D01*
X0173836Y0198560D01*
X0174124Y0198446D01*
X0174408Y0198324D01*
X0174689Y0198195D01*
X0174967Y0198059D01*
X0175242Y0197917D01*
X0175513Y0197767D01*
X0175780Y0197612D01*
X0176044Y0197449D01*
X0176303Y0197281D01*
X0176558Y0197106D01*
X0176809Y0196924D01*
X0177055Y0196737D01*
X0177297Y0196544D01*
X0177533Y0196345D01*
X0177765Y0196140D01*
X0177992Y0195929D01*
X0178213Y0195713D01*
X0178429Y0195492D01*
X0178640Y0195265D01*
X0178845Y0195033D01*
X0179044Y0194797D01*
X0179237Y0194555D01*
X0179424Y0194309D01*
X0179606Y0194058D01*
X0179781Y0193803D01*
X0179949Y0193544D01*
X0180112Y0193280D01*
X0180267Y0193013D01*
X0180417Y0192742D01*
X0180559Y0192467D01*
X0180695Y0192189D01*
X0180824Y0191908D01*
X0180946Y0191624D01*
X0181060Y0191336D01*
X0181168Y0191046D01*
X0181269Y0190754D01*
X0181362Y0190459D01*
X0181448Y0190162D01*
X0181527Y0189863D01*
X0181599Y0189562D01*
X0181663Y0189259D01*
X0181719Y0188955D01*
X0181769Y0188650D01*
X0181810Y0188343D01*
X0181844Y0188036D01*
X0181871Y0187727D01*
X0181890Y0187418D01*
X0181901Y0187109D01*
X0181905Y0186800D01*
X0181901Y0186491D01*
X0181890Y0186182D01*
X0181871Y0185873D01*
X0181844Y0185564D01*
X0181810Y0185257D01*
X0181769Y0184950D01*
X0181719Y0184645D01*
X0181663Y0184341D01*
X0181599Y0184038D01*
X0181527Y0183737D01*
X0181448Y0183438D01*
X0181362Y0183141D01*
X0181269Y0182846D01*
X0181168Y0182554D01*
X0181060Y0182264D01*
X0180946Y0181976D01*
X0180824Y0181692D01*
X0180695Y0181411D01*
X0180559Y0181133D01*
X0180417Y0180858D01*
X0180267Y0180587D01*
X0180112Y0180320D01*
X0179949Y0180056D01*
X0179781Y0179797D01*
X0179606Y0179542D01*
X0179424Y0179291D01*
X0179237Y0179045D01*
X0179044Y0178803D01*
X0178845Y0178567D01*
X0178640Y0178335D01*
X0178429Y0178108D01*
X0178213Y0177887D01*
X0177992Y0177671D01*
X0177765Y0177460D01*
X0177533Y0177255D01*
X0177297Y0177056D01*
X0177055Y0176863D01*
X0176809Y0176676D01*
X0176558Y0176494D01*
X0176303Y0176319D01*
X0176044Y0176151D01*
X0175780Y0175988D01*
X0175513Y0175833D01*
X0175242Y0175683D01*
X0174967Y0175541D01*
X0174689Y0175405D01*
X0174408Y0175276D01*
X0174124Y0175154D01*
X0173836Y0175040D01*
X0173546Y0174932D01*
X0173254Y0174831D01*
X0172959Y0174738D01*
X0172662Y0174652D01*
X0172363Y0174573D01*
X0172062Y0174501D01*
X0171759Y0174437D01*
X0171455Y0174381D01*
X0171150Y0174331D01*
X0170843Y0174290D01*
X0170536Y0174256D01*
X0170227Y0174229D01*
X0169918Y0174210D01*
X0169609Y0174199D01*
X0169300Y0174195D01*
X0168991Y0174199D01*
X0168682Y0174210D01*
X0168373Y0174229D01*
X0168064Y0174256D01*
X0167757Y0174290D01*
X0167450Y0174331D01*
X0167145Y0174381D01*
X0166841Y0174437D01*
X0166538Y0174501D01*
X0166237Y0174573D01*
X0165938Y0174652D01*
X0165641Y0174738D01*
X0165346Y0174831D01*
X0165054Y0174932D01*
X0164764Y0175040D01*
X0164476Y0175154D01*
X0164192Y0175276D01*
X0163911Y0175405D01*
X0163633Y0175541D01*
X0163358Y0175683D01*
X0163087Y0175833D01*
X0162820Y0175988D01*
X0162556Y0176151D01*
X0162297Y0176319D01*
X0162042Y0176494D01*
X0161791Y0176676D01*
X0161545Y0176863D01*
X0161303Y0177056D01*
X0161067Y0177255D01*
X0160835Y0177460D01*
X0160608Y0177671D01*
X0160387Y0177887D01*
X0160171Y0178108D01*
X0159960Y0178335D01*
X0159755Y0178567D01*
X0159556Y0178803D01*
X0159363Y0179045D01*
X0159176Y0179291D01*
X0158994Y0179542D01*
X0158819Y0179797D01*
X0158651Y0180056D01*
X0158488Y0180320D01*
X0158333Y0180587D01*
X0158183Y0180858D01*
X0158041Y0181133D01*
X0157905Y0181411D01*
X0157776Y0181692D01*
X0157654Y0181976D01*
X0157540Y0182264D01*
X0157432Y0182554D01*
X0157331Y0182846D01*
X0157238Y0183141D01*
X0157152Y0183438D01*
X0157073Y0183737D01*
X0157001Y0184038D01*
X0156937Y0184341D01*
X0156881Y0184645D01*
X0156831Y0184950D01*
X0156790Y0185257D01*
X0156756Y0185564D01*
X0156729Y0185873D01*
X0156710Y0186182D01*
X0156699Y0186491D01*
X0156695Y0186800D01*
M02*
